<?xml version="1.0" encoding="UTF-8"?>
<svg id="Capa_2" data-name="Capa 2" xmlns="http://www.w3.org/2000/svg" viewBox="0 0 1097.95 903.14">
  <defs>
    <style>
      .cls-1 {
        fill: #dfdddd;
      }

      .cls-2 {
        fill: #2e3a71;
      }

      .cls-3 {
        fill: #f9f8f8;
      }

      .cls-4 {
        fill: #fff;
      }

      .cls-5 {
        fill: #2d3971;
      }

      .cls-6 {
        fill: #2d3a72;
      }

      .cls-7 {
        fill: #f7f6f7;
      }

      .cls-8 {
        fill: #26366f;
      }

      .cls-9 {
        fill: #fdfcfc;
      }

      .cls-10 {
        fill: #fafafa;
      }

      .cls-11 {
        fill: #22a2da;
      }

      .cls-12 {
        fill: #233c87;
      }

      .cls-13 {
        fill: #f6f6f6;
      }

      .cls-14 {
        fill: #b3afbd;
      }

      .cls-15 {
        fill: #d6d3d4;
      }

      .cls-16 {
        fill: #273574;
      }

      .cls-17 {
        fill: #26346c;
      }

      .cls-18 {
        fill: #cecbcc;
      }

      .cls-19 {
        fill: #f5f4f4;
      }

      .cls-20 {
        fill: #f1efef;
      }

      .cls-21 {
        fill: #27356d;
      }

      .cls-22 {
        fill: #2c3a73;
      }

      .cls-23 {
        fill: #2c386f;
      }

      .cls-24 {
        fill: #f0efef;
      }

      .cls-25 {
        fill: #313d74;
      }

      .cls-26 {
        fill: #263266;
      }

      .cls-27 {
        fill: #303b73;
      }

      .cls-28 {
        fill: #cdcacb;
      }

      .cls-29 {
        fill: #fefdfd;
      }

      .cls-30 {
        fill: #efedee;
      }

      .cls-31 {
        fill: #2e3971;
      }

      .cls-32 {
        fill: #ebe9ea;
      }

      .cls-33 {
        fill: #273b7e;
      }

      .cls-34, .cls-35 {
        stroke: #fff;
        stroke-miterlimit: 10;
        stroke-width: 6px;
      }

      .cls-34, .cls-36 {
        fill: #263b7e;
      }

      .cls-37 {
        fill: #26356d;
      }

      .cls-38 {
        fill: #c7c4c4;
      }

      .cls-39 {
        fill: #e1e1e1;
      }

      .cls-40 {
        fill: #263368;
      }

      .cls-41 {
        fill: #263165;
      }

      .cls-42 {
        fill: #263879;
      }

      .cls-43 {
        fill: #26346d;
      }

      .cls-44 {
        fill: #d5cfcd;
      }

      .cls-45 {
        fill: #bdbabb;
      }

      .cls-46 {
        fill: #c5c2c2;
      }

      .cls-47 {
        fill: #c6c2c4;
      }

      .cls-48 {
        fill: #dddadb;
      }

      .cls-49 {
        fill: #21a2da;
      }

      .cls-50 {
        fill: #cec7c3;
      }

      .cls-51 {
        fill: #1f67aa;
      }

      .cls-52 {
        fill: #27366e;
      }

      .cls-53 {
        fill: #263b7d;
      }

      .cls-54 {
        fill: #fdfdfd;
      }

      .cls-55 {
        fill: #e4e3e3;
      }

      .cls-56 {
        fill: #fdfdfe;
      }

      .cls-57 {
        fill: #cbc7c8;
      }

      .cls-58 {
        fill: #263268;
      }

      .cls-59 {
        fill: #eceaea;
      }

      .cls-60 {
        fill: #dfdbda;
      }

      .cls-61 {
        fill: #dcdadb;
      }

      .cls-62 {
        fill: #faf9f9;
      }

      .cls-63 {
        fill: #f5f4f5;
      }

      .cls-64 {
        fill: #2f3b73;
      }

      .cls-65 {
        fill: #e6e4e5;
      }

      .cls-66 {
        fill: #d7d5d6;
      }

      .cls-67 {
        fill: #29366e;
      }

      .cls-35, .cls-68 {
        fill: #199cd6;
      }

      .cls-69 {
        fill: #e1dfe0;
      }

      .cls-70 {
        fill: #27356e;
      }

      .cls-71 {
        fill: #edebec;
      }

      .cls-72 {
        fill: #27356f;
      }

      .cls-73 {
        fill: #f1eeed;
      }

      .cls-74 {
        fill: #273771;
      }

      .cls-75 {
        fill: #d3d1d2;
      }

      .cls-76 {
        fill: #27366f;
      }

      .cls-77 {
        fill: #cfcccd;
      }

      .cls-78 {
        fill: #cbc8c9;
      }

      .cls-79 {
        fill: #273670;
      }

      .cls-80 {
        fill: #263267;
      }

      .cls-81 {
        fill: #1893cf;
      }

      .cls-82 {
        fill: #fffefe;
      }

      .cls-83 {
        fill: #273773;
      }

      .cls-84 {
        fill: #c1bdbe;
      }

      .cls-85 {
        fill: #204389;
      }

      .cls-86 {
        fill: #d9d6d7;
      }

      .cls-87 {
        fill: #28366e;
      }

      .cls-88 {
        fill: #26356e;
      }

      .cls-89 {
        fill: #2d3a73;
      }

      .cls-90 {
        fill: #f2f1f2;
      }
    </style>
  </defs>
  <g id="Capa_1-2" data-name="Capa 1">
    <g>
      <path class="cls-10" d="M558.25,621.08c-70.93,0-141.85,.15-212.78-.14-12.88-.05-25.95-2.11-37.31-8.46-9.47-5.3-17.52-12.6-21.93-23.45-3-7.39-7.34-14.28-11.86-21.05-4.48-6.71-10.56-11.65-15.59-17.66-8.25-9.85-10.81-22.04-13.06-34.22-1.45-7.81-2.09-15.74-2.09-23.7,0-102.73,.16-205.45-.16-308.18-.05-16.04-3.26-32.14-1.66-48.18,2.04-20.56,1.5-41.12,1.92-61.69,.25-12.11,2.5-24.18,6.36-35.5,3.2-9.38,8.95-17.83,17.69-23.96,11.28-7.9,24.01-11.5,37.15-12.12C402.7-1.83,500.56,.56,598.36,1.09c47.01,.26,94.07,.78,141.09,1.8,14.38,.31,28.94,2.98,41.09,12.32,6.64,5.1,12.33,10.81,15.67,18.75,5.28,12.58,12.64,24.07,22.52,33.36,10.16,9.57,14.6,21.41,17.29,34.41,1.8,8.69,3.08,17.46,3.08,26.33,.05,139.19,.13,278.38-.11,417.57-.03,15.76-2.74,31.34-9.55,45.9-6.56,14.02-18.41,21.31-32.52,25.5-14.47,4.29-29.42,4.14-44.37,4.12-64.77-.11-129.53-.05-194.3-.05Z"/>
      <path class="cls-34" d="M307.58,696.33c0,14.32,.25,28.64-.07,42.95-.38,17.18-3.78,33.49-14.84,47.46-7.15,9.03-16.8,13.5-27.53,16.12-4.25,1.04-8.67,1.97-13,1.93-10.61-.1-21.17-1.38-30.84-6.06-8.56-4.14-14.93-10.71-19.73-19.06-6.75-11.74-9.06-24.44-9.93-37.7-2.03-31.05-.3-62.12-1.04-93.17-.1-4.07,1.19-4.94,4.96-4.81,7.98,.28,15.99,.31,23.96-.01,4.01-.16,5.28,.71,5.25,5.03-.22,28.96-.25,57.93-.02,86.9,.06,7.63,1.14,15.29,3.21,22.69,3.11,11.09,11.22,16.93,23.25,16.29,10.57-.56,16.42-5.21,20.34-18.33,2.59-8.67,2.9-17.78,2.99-26.74,.26-27.13,.16-54.27,.02-81.4-.02-3.42,.72-4.56,4.31-4.44,8.31,.28,16.65,.25,24.97,0,3.16-.09,3.86,.87,3.83,3.9-.15,16.15-.07,32.29-.07,48.44Z"/>
      <path class="cls-34" d="M441.91,762.1c7.57,6.79,15.02,13.26,25.71,15.09,10.05,1.72,21.32-2.63,24.31-11.32,3.38-9.83,.73-18.34-10.24-24.27-11.46-6.19-23.51-11.32-34.34-18.64-15.05-10.17-20.39-24.21-18.12-42.2,1.23-9.75,4.98-17.98,11.2-24.82,7.09-7.81,16.32-12.38,27.1-13.98,11.47-1.7,22.28-.42,32.95,4.01,7.67,3.19,13.26,8.81,18.92,14.51,1.68,1.7,.53,2.49-.51,3.61-4.82,5.21-10.54,9.58-14.6,15.52-1.77,2.59-2.76,0-3.61-.91-6.58-7.05-14.57-10.92-24.27-10.62-7.23,.22-12.9,3.22-15.09,10.61-1.9,6.39-1.48,12.47,3.13,17.88,2.86,3.36,6.58,5.3,10.38,7.23,9.68,4.91,19.77,9.06,28.9,15,11.12,7.23,18.39,16.76,19.84,30.67,1.56,14.95-2.18,28.07-11.68,39.25-7.12,8.37-16.87,13.35-27.7,15.05-12.71,1.99-25.41,.98-37.02-5.04-7.35-3.81-14.54-8.18-20.03-14.67-.76-.9-2.54-1.65-.95-3.2,5.89-5.73,9.63-13.26,15.74-18.75Z"/>
      <path class="cls-35" d="M541.37,644.08c6.8,0,13.12,.03,19.43-.02,2.18-.02,2.97,.95,3.71,3.05,8.49,24.11,17.15,48.16,25.8,72.21,6.47,17.99,12.98,35.95,19.78,54.76,3.86-4.53,4.58-9.47,6.21-13.88,10.57-28.59,20.92-57.25,31.33-85.89,3.25-8.93,6.58-17.83,9.62-26.83,.91-2.69,2.24-3.58,4.98-3.46,4.48,.2,8.99,.22,13.48,0,3.05-.15,3.7,.63,2.58,3.55-4.3,11.16-8.4,22.4-12.63,33.59-8.41,22.22-16.9,44.41-25.26,66.65-6.23,16.56-12.29,33.19-18.43,49.78-.81,2.2-2.07,3.6-4.77,3.37-2.64-.23-5.32-.05-7.99-.05-9.41,0-9.5,.03-12.67-8.65-12.26-33.56-24.75-67.02-37.66-100.34-6.03-15.56-11.49-31.33-17.51-47.83Z"/>
      <path class="cls-34" d="M390.5,722.7c0,24.61-.07,49.23,.08,73.84,.02,3.36-.62,4.6-4.27,4.47-8.3-.3-16.64-.32-24.94,0-3.95,.15-4.92-1.03-4.9-4.9,.14-37.59,.09-75.17,.09-112.76,0-11.81,.11-23.62-.04-35.42-.04-2.96,.57-4.03,3.79-3.94,8.64,.24,17.3,.26,25.94-.02,3.55-.11,4.37,.91,4.35,4.39-.16,24.78-.08,49.56-.08,74.34Z"/>
      <path class="cls-4" d="M115.75,894.68c0-8.87,0-17.74,0-26.62,0-1.16,.03-2.33,0-3.49-.03-1.27,.6-1.68,1.82-1.7,1.36-.02,2.19,.22,2.18,1.86-.04,12.14-.03,24.28-.02,36.42,0,1.23-.49,1.75-1.77,1.71-1.65-.05-3.06,.03-4.21-1.76-6.1-9.51-12.44-18.85-18.49-28.39-.89-1.4-1.87-2.06-3.11-2.48,1.25,10.3,.49,20.7,.47,31.07,0,2.88-2.75,.99-3.86,1.37,0-8.6,0-17.11,0-25.62,0-3.49-.29-7.02,.15-10.46,.16-1.28-1.98-3.06,.08-3.52,1.96-.44,4.13-.89,5.9,1.91,6.32,10.08,13.13,19.86,19.75,29.75,.37-.02,.73-.05,1.1-.07Z"/>
      <path class="cls-4" d="M599.43,869.65c0,11.12-.23,21.28,.17,31.41,.09,2.4-.89,1.63-1.91,1.77-1.85,.25-1.54-.39-1.51-2.07,.26-11.81,.15-23.62,.13-35.44,0-.61-.33-1.22-.59-2.08,3.31-.96,5.64-.4,7.79,3.12,5.31,8.67,11.2,16.98,16.77,25.49,.73,1.11,1.43,2.03,3.04,2.92,0-9.71-.05-18.96,.06-28.21,.01-1.33-1.18-3.56,1.76-3.69,3.35-.15,2.11,2.37,2.12,3.84,.09,10.81,.09,21.63,0,32.45-.01,1.23,1.04,3.27-1.25,3.6-1.9,.27-3.45,.15-4.87-2.12-5.68-9.03-11.88-17.72-17.72-26.65-1.01-1.55-2.2-2.65-3.99-4.34Z"/>
      <path class="cls-4" d="M867.11,882.86c0-5.65,.04-11.31-.02-16.96-.02-1.84,.04-3.11,2.54-3.07,7.98,.14,15.96,.04,23.94,.07,1.04,0,2.48-.45,2.5,1.46,.02,1.92-1.42,1.48-2.47,1.49-6.15,.04-12.3,.12-18.45-.03-2.36-.06-3.02,.63-3.11,3.04-.42,11.01-.51,11.01,10.56,11.01,3.32,0,6.65,.02,9.97,0,1.4,0,2.56-.05,2.57,1.99,0,2.04-1.14,2.01-2.55,2.01-5.82-.02-11.64,.1-17.45-.06-2.4-.07-2.99,.69-3.09,3.06-.47,11.99-.55,11.98,11.57,11.98,3.66,0,7.32,.02,10.97,0,1.42,0,2.55-.02,2.55,2.01,0,2.05-1.18,1.99-2.57,1.99-8.31-.01-16.63-.09-24.94,.05-2.51,.04-2.55-1.24-2.53-3.08,.06-5.65,.02-11.3,.02-16.96Z"/>
      <path class="cls-4" d="M934.72,872.67c-2.18,.17-3.8,.88-5.14-2.42-2.13-5.26-13.19-6.65-17.51-2.87-3.65,3.19-2.37,8.83,2.54,10.44,3.8,1.24,7.73,2.11,11.63,3.04,6.3,1.5,10.39,6.47,9.8,12.05-.53,4.99-6.2,9.87-11.95,9.88-3.73,0-7.46,.52-11.22-.82-4.21-1.5-6.83-3.86-7.97-8.29-.42-1.65-.94-2.16,.89-3.25,2.62-1.56,2.45,.92,2.93,1.77,4,7.09,8.83,8.97,16.44,6.76,3.88-1.12,6.81-3.14,6.75-7.16-.06-4.4-3.98-5.81-7.53-6.89-3.22-.98-6.53-1.56-9.71-2.77-6.51-2.46-8.71-4.83-8.59-10.15,.14-5.78,3.95-8.02,8.83-9.49,9.35-2.82,17.1,1.07,19.8,10.18Z"/>
      <path class="cls-4" d="M430.17,872.68c-2.15,.12-3.78,.89-5.16-2.41-2.31-5.54-12.92-6.89-17.5-2.91-3.08,2.67-2.63,7.38,.89,9.5,3.96,2.38,8.52,2.84,12.85,3.95,7.23,1.84,10.88,5.93,10.22,12.05-.63,5.88-5.52,9.77-12.37,10-6.59,.22-13.06,.39-17.33-6.13-.77-1.17-1.35-2.16-1.3-3.56,.03-.95-1.63-2.2,1.01-2.47,1.62-.16,2.63-.62,3.02,1.41,1.48,7.71,14.97,10.5,20.91,4.37,3.12-3.22,2.64-7.16-1.16-9.71-4.32-2.9-9.52-2.73-14.14-4.6-6.45-2.61-8.72-4.86-8.59-10.16,.14-5.76,3.89-8.03,8.81-9.51,9.45-2.83,17.04,.94,19.86,10.18Z"/>
      <path class="cls-4" d="M651.86,902.84c-6.05,.7-11.32-1.43-14.65-7.47-.95-1.72-2.1-3.21,.61-4.8,3.71-2.18,2.52,1.62,2.95,2.47,3.63,7.1,15.51,9.28,21.05,3.68,3.11-3.14,1.53-9.26-2.95-10.81-3.79-1.31-7.74-2.13-11.61-3.19-9.52-2.61-12.62-9.12-7.83-16,3.54-5.08,9.46-5.42,15.08-4.74,5.08,.61,9.1,3.31,11.4,8.09,.42,.87,.85,2.2-.3,2.58-1.23,.41-2.61,.79-3.61-1.22-2.98-6-8.14-6.78-14.23-5.63-3.56,.67-5.8,2.75-6.36,5.84-.61,3.33,1.93,5.27,4.98,6.21,3.37,1.05,6.74,2.15,10.16,2.99,8.28,2.03,11.51,5.91,10.68,13.09-.61,5.27-6.06,8.92-13.32,8.92-.5,0-1,0-2.09,0Z"/>
      <path class="cls-4" d="M975.69,902.84c-9.34,0-13.48-2.44-16.2-8.89-.96-2.27-.06-2.86,1.6-3.66,2.54-1.22,1.66,.99,2.05,1.94,3.14,7.64,13.8,10.18,21.13,4.75,4.07-3.02,2.61-9.21-2.52-11.08-3.91-1.43-7.98-2.41-11.94-3.72-8.61-2.85-9.27-5.98-8.81-11.38,.33-3.91,4.03-7.7,9.65-8.7,5.42-.96,10.69-.04,15.29,3.26,1.63,1.17,2.66,2.92,2.99,4.9,.16,.97,.66,2.57-1.29,2.55-1-.01-1.89,.36-2.73-1.21-3.51-6.57-10.97-8.41-17.23-4.68-2.31,1.37-3,3.35-2.67,5.88,.37,2.78,2.13,4.27,4.63,5.05,4.74,1.49,9.55,2.79,14.23,4.44,4.54,1.6,7.21,5.23,6.91,9.88-.37,5.68-6.05,10.41-11.6,10.65-1.16,.05-2.33,0-3.5,0Z"/>
      <path class="cls-4" d="M308,902.84c-6.99,.26-12.86-1.31-15.76-8.69-.77-1.97-.7-2.7,1.17-3.73,3.01-1.66,1.94,1.08,2.38,2.03,2.29,5.02,6.55,7.18,11.66,7.31,3.96,.1,8.11-.3,10.4-4.55,2.2-4.08,.85-7.73-3.75-9.3-4.39-1.5-8.87-2.75-13.32-4.04-4.84-1.41-7.5-4.78-7.84-9.61-.29-4.21,3.79-7.92,8.87-9.47,5.63-1.71,10.68-.92,15.72,2.02,2.11,1.23,2.76,2.95,3.5,4.93,.42,1.13,1.15,2.43-.17,2.96-1.17,.47-2.47,.51-3.59-1.31-3.78-6.17-9.05-7.7-15.6-5.1-2.6,1.03-4.98,3.07-4.79,5.56,.19,2.61,1.74,5.22,5.17,6.12,4.94,1.3,9.93,2.48,14.71,4.44,4.69,1.92,6.58,5.64,6.45,10.04-.15,5.13-5.61,9.93-10.72,10.38-1.48,.13-2.99,.02-4.49,.02Z"/>
      <path class="cls-4" d="M680.28,863.06c.21,10.16-.9,20.14,1.14,30.03,.87,4.24,6.51,7.27,11.77,6.76,6.41-.63,9.9-3.79,10.03-9.62,.17-7.81,.01-15.64,.07-23.45,.01-1.76-.95-4.07,2.59-3.99,3.18,.08,2.37,2.11,2.35,3.72-.13,8.74,.67,17.51-.97,26.19-.88,4.63-3.11,8.45-7.92,9.44-5.92,1.23-12.04,1.9-17.59-1.54-5.45-3.37-4.91-9.3-5.33-14.47-.52-6.45,.1-12.98-.21-19.45-.19-4.04,1.47-4.48,4.09-3.63Z"/>
      <path class="cls-4" d="M526.2,902.82c-15.08,1.71-19.64-12.7-18.65-23.23,1.28-13.63,13.18-21.2,25.27-16.68,3.55,1.33,6.67,3.46,8.1,7.17,.27,.69,2.76,2.03,.05,2.69-1.26,.31-2.69,2.34-4.15-.75-2.45-5.19-7.89-7.78-12.14-6.84-7.42,1.63-11.34,6.22-12.4,13-.81,5.13-.45,10.12,1.7,14.48,2.06,4.18,5.78,7.15,11.16,7.25,5.77,.11,9.45-2.72,12.31-7.31,.81-1.3,1.06-3.9,3.72-2.39,2.34,1.34,.59,2.95-.04,4.15-3.17,6.09-8.11,9.21-14.93,8.45Z"/>
      <path class="cls-4" d="M34.53,872.4c-3.06,1.85-4.33,.61-6.27-2.3-4.87-7.28-17.42-6.46-21.66,2.47-2.68,5.64-2.82,11.42-1.26,17.29,1.45,5.44,5.06,9.02,10.59,9.92,6.13,1,10.71-1.8,13.93-7.02,.82-1.33,.94-3.99,3.61-2.58,2.66,1.41,.57,3.15-.08,4.51-4.02,8.35-11.54,8.92-19.33,8.1-6.29-.67-10.07-4.86-12.18-10.53-1.94-5.23-2.46-10.44-1.19-16.15,2.28-10.29,8.36-13.05,15.17-14.03,8.01-1.16,14.86,.67,18.66,10.35Z"/>
      <path class="cls-4" d="M451.73,863.22c3.97-1.16,6.21,.24,8.01,3.35,2.97,5.15,6.26,10.11,9.49,15.25,6.1-5.67,7.31-16.04,16.01-19.41,.42,.37,.84,.74,1.26,1.11-3.82,5.73-7.22,11.79-11.59,17.05-2.82,3.39-3.67,6.71-3.49,10.77,.14,3.15-.05,6.31,.05,9.47,.06,1.96-1.03,2.05-2.51,2.05-1.46,0-2.71-.06-2.5-2.03,.03-.33-.05-.68,0-.99,2.48-12.43-3.77-21.86-10.63-31.1-1.34-1.8-2.68-3.6-4.1-5.52Z"/>
      <path class="cls-4" d="M759.25,862.88c4.49,0,8.98-.05,13.47,.04,.71,.01,1.94-.94,1.86,1.5-.08,2.42-1.31,1.06-1.96,1.44-.13,.07-.33,0-.49,.01-3.46,.09-8.23-1.17-10.07,.61-2.46,2.37-.76,7.19-.82,10.95-.13,7.48-.08,14.97-.01,22.45,.02,1.88-.1,3.05-2.58,3.04-2.6,0-2.45-1.42-2.45-3.16,.03-9.98-.14-19.96,.1-29.93,.08-3.37-.98-4.35-4.16-4.01-2.3,.24-4.65,.05-6.98,.04-1.05,0-1.99-.07-1.93-1.56,.06-1.49,1.08-1.42,2.06-1.42,4.66-.01,9.31,0,13.97,0Z"/>
      <path class="cls-4" d="M1076.93,862.99c0,11.65,.03,22.76-.02,33.86-.01,2.48,1.67,1.98,3.07,1.98,4.99,.03,9.99,0,14.98,.02,1.41,0,3.05-.47,3,2.05-.06,2.56-1.8,1.9-3.12,1.91-6.33,.05-12.66-.15-18.98,.09-3.16,.12-2.94-1.59-2.94-3.7,.04-10.82,.19-21.65-.07-32.46-.1-3.95,1.43-4.48,4.08-3.76Z"/>
      <path class="cls-4" d="M252.63,884.36c0-5.16-.12-10.32,.05-15.47,.08-2.4-.66-3.22-3.07-3.07-2.98,.19-5.98,.05-8.98,.04-1.02,0-2-.02-1.99-1.5,0-1.48,1-1.48,2.01-1.48,9.31,0,18.63,0,27.94,0,1.01,0,2,0,2.01,1.48,0,1.48-.97,1.48-1.99,1.5-.5,.01-1,0-1.5,0q-10.5,.27-10.5,11c0,7.65,.02,15.3-.02,22.95,0,1.37,.56,3.06-1.98,3.06-2.54,0-1.97-1.69-1.98-3.06-.04-5.16-.02-10.31-.02-15.47Z"/>
      <path class="cls-4" d="M144.72,884.36c0,5.16,.02,10.31-.02,15.47-.01,1.37,.56,3.06-1.98,3.06-2.54,0-1.98-1.69-1.98-3.06-.03-10.15-.12-20.29,.05-30.44,.05-2.82-.74-3.81-3.58-3.57-2.81,.24-5.65,.06-8.48,.04-1.02,0-2-.02-1.99-1.5,0-1.48,1-1.48,2.01-1.48,9.31,0,18.63,0,27.94,0,1.01,0,2,0,2.01,1.48,0,1.48-.97,1.48-1.99,1.5-.33,0-.67-.02-1,0-3.58,.32-8.48-1.64-10.4,.87-1.78,2.33-.54,6.99-.6,10.63-.03,2.33,0,4.66,0,6.99Z"/>
      <path class="cls-4" d="M342.56,884.06c0-4.99-.16-9.99,.06-14.97,.12-2.72-.83-3.45-3.39-3.26-2.81,.21-5.65,.06-8.48,.03-.94,0-2.04,.19-2.16-1.3-.12-1.38,.65-1.68,1.8-1.68,9.48,0,18.96,0,28.44,.01,.85,0,1.6,.14,1.69,1.27,.1,1.36-.62,1.7-1.78,1.7-2.99-.01-6,.19-8.98-.05-2.73-.22-3.3,.84-3.27,3.38,.14,9.98,.1,19.96,0,29.94-.01,1.32,1.2,3.56-1.74,3.71-3.34,.17-2.1-2.33-2.14-3.82-.13-4.99-.05-9.98-.05-14.97Z"/>
      <path class="cls-4" d="M742.51,902.84c-6.97,0-13.96-.1-20.94,.05-2.52,.05-3.43-.55-3.39-3.27,.16-11.14,.05-22.29,.08-33.43,0-1.5-.7-3.49,2.18-3.34,2.59,.14,1.75,1.98,1.76,3.24,.06,9.81,.11,19.63-.02,29.44-.03,2.53,.57,3.51,3.28,3.37,4.48-.23,9,.23,13.46-.15,3.5-.3,4.06,1.18,3.59,4.08Z"/>
      <path class="cls-4" d="M282.6,883.26c0,5.64-.1,11.29,.05,16.93,.06,2.26-.77,2.7-2.85,2.72-3.04,.02-1.15-1.81-1.16-2.75-.06-11.62-.06-23.24-.02-34.86,0-.86-1.77-2.5,.97-2.44,1.79,.04,3.14-.09,3.06,2.48-.18,5.97-.06,11.95-.06,17.93Z"/>
      <path class="cls-4" d="M1002.6,902.81c-1.86,.32-2.7-.3-2.65-2.36,.04-1.81,.37-2.71,2.45-2.65,1.81,.05,2.72,.37,2.65,2.45-.06,1.78-.31,2.96-2.45,2.56Z"/>
      <path class="cls-4" d="M1062.91,900.35c.37,2-.54,2.54-2.46,2.55-1.95,.01-2.56-.61-2.56-2.55,0-1.94,.61-2.57,2.56-2.55,1.92,.01,2.83,.56,2.46,2.55Z"/>
      <path class="cls-56" d="M297.48,27.54c.86-.32,1.08-1.02,1.11-1.85,1.71-1.79,3.97-1.51,6.1-1.5,99.84,0,199.69-.1,299.52,.03,.59,.02,1.19,.09,1.77,.21,.8,.2,1.54,.57,2.21,1.05,1.31,1.02,2.38,2.34,3.83,3.2,2.24,1.5,3.98,3.55,5.93,5.37,2.93,3.01,5.91,5.95,8.9,8.9,2.1,2.2,4.38,4.25,6,6.88,.65,.86,1.4,1.62,2.17,2.37,1.26,1.25,2.46,2.55,3.48,4.01,4.68,6.2,9.68,12.18,13.62,18.91,1.2,1.83,2.15,3.8,3.47,5.56,14.48,25.57,24.47,52.57,26.08,82.23,.05,1.01,.42,1.94,.63,2.91,.36,1.69,.29,3.42,.46,5.13,.29,9.46,1.52,18.87,1.03,28.36-.88,16.93-2.15,33.81-6.03,50.37-.75,2.06-1.18,4.2-1.51,6.36-.76,2.45-1.23,4.98-2.05,7.42-1.49,5.3-3.27,10.5-4.97,15.73-8.02,23.17-19.53,44.67-31.65,65.87-2.23,3.89-4.09,7.97-6.43,11.81-3.83,6.3-3.71,6.87,1.43,12.44,1.88,1.99,3.81,3.94,5.31,6.25,1.46,1.9,3.26,3.48,4.94,5.18,1.24,1.26,2.46,2.53,3.44,4.01,1.25,1.87,2.94,3.34,4.5,4.92,1.56,1.51,2.9,3.2,4.12,5,.91,1.17,1.99,2.18,3.05,3.21,1.77,1.88,3.77,3.53,5.19,5.72,1.03,1.66,2.48,2.96,3.87,4.3,1.6,1.63,3.29,3.18,4.5,5.15,2.03,2.82,.55,4.62-1.83,6.07-6.1,3.71-11.72,8.12-17.58,12.18-12.96,8.96-26.27,17.42-38.96,26.77-4.83,3.56-7.52,3.95-11.36-1.68-4.27-6.28-9.12-12.23-13.86-18.21-.9-1.07-1.79-2.14-2.58-3.28-2.78-3.79-6.24-7.05-8.71-11.09-.92-1.06-1.83-2.14-2.65-3.28-1.62-2.35-3.31-3.85-6.58-2.43-13.36,5.78-27.22,10.14-41.22,14.1-1.58,.35-3.14,.79-4.68,1.31-29.05,7.26-58.56,10.08-88.45,9.21-4.31-.12-8.56-1.21-12.91-.98-1.41-.13-2.83-.15-4.21-.45-11.5-1.69-23.02-3.25-34.39-5.84-34.19-7.82-65.6-21.69-93.85-42.55-1.16-.81-2.25-1.7-3.26-2.69-.75-.75-1.53-1.48-2.44-2.05-1.05-.67-2-1.48-2.9-2.35-1.01-1.04-2.07-2.02-3.33-2.77-1.5-.97-2.75-2.24-4.05-3.45-2.19-2.97-5.79-4.39-8.08-7.27-.2-.56-.32-1.12-.36-1.71-.08-35.97-.25-71.92,.07-107.87,.13-.86,.43-1.65,1.04-2.29,2.48-1.33,3.09,.89,4.05,2.24,3.59,5.07,7.45,9.93,11.41,14.71,.91,1,1.78,2.03,2.51,3.17,.77,1.28,1.78,2.35,2.86,3.37,1.21,1.22,2.4,2.45,3.35,3.89,1.61,2.36,3.8,4.16,5.79,6.15,4.84,4.89,9.73,9.72,14.59,14.59,1.69,1.74,3.27,3.59,5.35,4.91,1.52,1.01,2.81,2.3,4.15,3.53,11.05,9.36,22.99,17.41,35.73,24.26,3.73,1.89,7.43,3.83,11.27,5.48,17.79,7.57,36.17,12.58,55.61,13.15,4.92,.04,9.83,.02,14.74,0,2.72-.14,5.48,.43,8.17-.42,.75-.21,1.53-.33,2.3-.4,15.74-1.2,30.72-5.66,45.54-10.76,2.55-.88,3.19-2.11,1.45-4.36-1.23-1.59-2.61-3.02-3.99-4.47-.96-1.02-1.85-2.09-2.61-3.25-1.01-1.69-2.42-3.04-3.83-4.39-1.47-1.55-3.09-2.98-4.26-4.8-.99-1.62-2.38-2.89-3.73-4.2-1.2-1.22-2.4-2.43-3.33-3.89-.99-1.56-2.34-2.79-3.63-4.07-1.19-1.22-2.4-2.43-3.32-3.88-.99-1.61-2.38-2.86-3.71-4.17-1.18-1.21-2.38-2.4-3.29-3.84-1-1.62-2.41-2.88-3.76-4.19-1.5-1.55-3.11-3.01-4.29-4.84-1.35-2.08-3.25-3.64-4.98-5.37-1.07-1.08-1.99-2.27-2.89-3.49-1.77-4.23-1.65-4.6,2.96-5.15,12.29-1.48,24.69-1.85,36.98-3.33,.78-.24,1.59-.37,2.4-.45,.52-.07,1.05-.09,1.57-.09,2.04,0,4.08,.08,6.05-.62,1.27-.31,2.57-.38,3.87-.42,2.1,.02,4.19,.07,6.21-.65,1.88-.41,3.79-.35,5.7-.38,1.92,0,3.83,0,5.75,.01,1.35,.02,2.7,.08,4.02,.38,14.57,1.75,26.61,8.95,37.97,17.62,2.25,1.72,4.61,3.3,6.75,5.14,2.96,2.54,5.1,2.11,7.32-1.09,8.38-12.09,15.37-24.86,20.54-38.67,6.78-18.12,10.59-36.82,10.15-56.11-.73-31.71-9.59-60.91-28.86-86.55-1.7-2.26-3.13-4.71-4.87-6.93-.89-1.11-1.79-2.22-2.58-3.41-1.04-1.73-2.5-3.09-3.95-4.47-3.33-3.36-6.66-6.72-10.07-9.99-13.45-11.69-27.97-21.69-44.6-28.39-1.18-.44-2.36-.88-3.52-1.35-34.4-13.91-69.06-14.73-103.96-2-1.16,.5-2.36,.91-3.54,1.36-10.56,4.09-20.13,9.98-29.39,16.41-1.07,.75-2.08,1.59-3.19,2.29-.88,.55-1.69,1.18-2.43,1.92-1.17,1.19-2.59,2.05-3.91,3.06-1.15,.94-2.15,2.05-3.18,3.12-3.17,3.16-6.31,6.34-9.48,9.5-1.1,1.06-2.23,2.08-3.16,3.29-1.03,1.42-2.02,2.88-3.2,4.19-5.11,6.15-9.65,12.7-13.72,19.57-.85,1.51-1.5,3.1-2.24,4.66-11.8,22.7-16.66,47.02-17.04,72.4-1.67,9.91-1.07,19.82-.12,29.74-.22,1.42-.6,2.74-2.21,3.21-3.58-.51-5.06-3.67-7.35-5.82-.96-1.51-1.99-2.97-3.33-4.19-.95-.97-1.8-2.03-2.59-3.13-4.86-6.26-8.91-13.02-12.52-20.07-.55-1.08-1.1-2.17-1.67-3.24-3.85-8.41-6.91-17.08-8.86-26.13-.11-3.45-1.75-6.69-1.35-10.23,.05-.47-.32,.4-.65,.29-2.45-.81-1.86-2.86-1.6-4.49,.68-4.26,.81-8.49,.07-12.74-.16-.49-.27-1-.35-1.51-.29-5.62-.52-11.2,.56-16.81,.65-3.39,.97-7.16-.05-10.36-1.68-5.25,3.23-8.76,2.7-13.56-.14-1.22,.58-2.56,.57-3.9,4.9-24.42,14.46-46.81,29.33-66.86,.96-1.29,1.85-2.86,3.89-2.62Z"/>
      <path class="cls-24" d="M265.54,96.36c-.66,4.71-1.32,9.43-1.97,14.12-1.61,.14-.38-1.89-2.15-1.94,3.08,11.35-.82,22.63,.21,33.95-1.19,3.23-.09,6.56-.57,9.82,.35-3.27-.5-6.59,.56-9.83,2.4,5.63,.53,11.31-.1,17.02,1.51-.19,.75-1.49,1.81-2.21,.59,4.58,2.25,8.77,2.24,13.3-.4,.24-.72,.57-.93,1,.71,5.65,.36,11.31,.37,16.95,.04,20.93,.01,41.87,.03,62.8,0,2.15-.25,4.33,.48,6.43,.26,.87,.47,1.74,.06,2.63-.32,.34-.65,.67-.97,1.01-.42,.41-.71,.9-.88,1.47-.16,36.22-.24,72.43,.04,108.65,.17,.61,.31,1.23,.43,1.85,1.19,2.35,.82,4.89,.82,7.36,.02,44.4,.02,88.79,.02,133.19,0,1.82-.27,3.66,.31,5.42,.36,.38,.75,.72,1.22,.98,4.46,1.41,9.24-.54,13.66,1.28,.51,.34,.72,.82,.63,1.42-.5,.73-1.23,1.07-2.05,1.27-1.8,.3-3.63,.2-5.44,.21-3.02-.28-3.43,1.06-2.32,3.56,2.25,5.05,5.53,9.4,8.94,13.69,6.38,8.02,13.6,15.44,18.03,24.88,.61,1.28,.62,2.62,.38,4-.12,.65,.04,.98,.03,.31,0-.05,.27-.1,.43-.15,.45,.07,.84,.23,1.2,.5,.37,.32,.7,.67,1.02,1.05,.54,.61,1.04,1.23,1.53,1.88,1.12,1.46,2.26,2.9,3.24,4.45,9.76,15.45,24.85,21.47,42.02,21.84,119.15,2.54,238.32,.51,357.48,1.11,16.64,.08,33.3,.37,49.93-.16,8.43-.27,16.91-.61,25.27-2.4,18.94-4.07,31.11-14.92,35.43-34.09,.69-3.08,1.32-6.18,2.11-9.24,2.11-7.26,2.54-14.79,2.55-22.2,.15-131.35,.14-262.69,.03-394.04,0-7.27-.64-14.59-2.3-21.74-.31-1.13-.46-2.29-.52-3.46,.05-2.81,.12-5.63-1.27-8.23-.24-.69-.35-1.41-.38-2.14,0-5.09-3.35-8.64-5.82-12.59-.63-.69-1.04-1.49-1.24-2.41-.15-2.3-1.38-3.79-3.48-4.62-1.87-1.4-3.22-3.23-4.33-5.25-1.73-3.3-3.8-6.33-6.86-8.57-1.84-1.41-3.04-3.31-4.07-5.34-.62-1.83-1.38-3.58-2.97-4.84-.47-.48-.84-1.02-1.09-1.64-.9-3-2.66-5.54-4.34-8.12-.27-.36-.49-.74-.7-1.13-.96-1.87-1.23-4.25-3.69-5.02-2.83-2.35-5.14-5.16-7.19-8.18-.98-2.9-3.29-4.43-5.88-5.65-.39-.21-.76-.46-1.11-.72-1.45-1.48-3.23-2.13-5.27-2.18-.88-.13-1.67-.46-2.42-.93-.93-.69-2.01-.6-3.1-.55-.49-.01-.97-.08-1.45-.18-1.33-.24-2.6-.64-3.91-.95-9.06-2.66-18.44-2.41-27.7-2.73-11.81-.4-23.64-.22-35.46-.08-34.95,.43-69.88-1.56-104.83-1.25-45.62,.4-91.23,.11-136.85,.22-37.12,.09-74.25,.04-111.37,0-10.02-.01-19.88,1.31-29.72,2.93-.61,.12-1.22,.25-1.83,.4-.31,.03-.62,.06-.93,.09-4.33,0-8.66-.01-12.98-.02-.4-2.33,1.24-3.3,2.92-4.02,10.51-4.45,21.55-6.04,32.9-5.94,96.01-.97,192.02-.15,288.03-.49,4.81-.02,9.56,.94,14.36,.48,12.29-1.06,24.6-.48,36.91-.25,7.57,.14,15.12,.51,22.71-.06,13.8-1.03,27.56,1.39,41.37,.91,11.38-.4,22.58,.77,33.29,4.75,11.55,4.29,20.86,11.34,26.99,22.43,6.84,12.37,14.39,24.28,24.11,34.72,7.18,7.71,10.92,17.24,13.78,27.29,3.7,13.02,3.54,26.37,3.56,39.59,.2,129.54,.2,259.08,0,388.62-.02,14.23-.55,28.52-5.28,42.36-5.16,15.11-15.36,24.54-30.19,29.37-5.2,1.69-10.44,3.51-16.06,3.25-8.95-.26-17.88,.83-26.83,.52-35.22-1.23-70.46-.41-105.69-.57-25.11-.11-50.22-.1-75.33-.02-38.55,.12-77.1-.14-115.65,0-22.44,.09-44.88-.09-67.31-.03-6.29,.02-12.57,.42-18.83,.96-7.84,.67-15.54-1.59-23.36-.9-18.4-.91-33.43-7.92-43.35-24.09-3.22-5.25-6.3-10.58-9.42-15.9-4.81-8.2-10.45-15.78-17.05-22.66-6.9-7.19-9.86-16.48-12.83-25.68-2.32-7.19-3.04-14.55-2.6-22.14,.29-5.1-1.75-10.03-1.7-15.28,.22-26.8,.01-53.61,.12-80.41,.17-40.77-.35-81.54,.02-122.3,.22-24.11-.38-48.22-.01-72.33,.16-10.48-.64-20.96-.52-31.39,.12-10.49-2.65-20.72-1.57-31.21,.52-5.1,.32-10.18,1.52-15.31,1.39-5.94-.38-12.21,.47-18.36,.98-7.12-.73-14.41,.27-21.42,1.55-10.83,.5-21.88,3.17-32.56,.24-.97,.49-1.94,.84-2.88,.41-1.1,.85-2.4,2.22-2.39,1.67,.02,2.05,1.47,2.26,2.82,.39,2.46-.1,5.01,.8,7.41,.62,11.44,.61,22.9-.02,34.31,.32,.17,.63,.37,.93,.57Z"/>
      <path class="cls-19" d="M320.57,15.6c-10.81,.8-21.51,2.17-31.73,6.07-1.5,.57-2.51,1.53-3.22,2.91-3,0-6,0-9.01,0-1.27-3.27,1.52-3.99,3.38-5.07,6.27-3.65,13.17-5.75,20.23-6.89,10.16-1.65,20.39-2.8,30.74-3.09,14.64-.41,29.25,.3,43.87,.39,62.43,.36,124.87,.13,187.31,.19,7.34,0,14.57-1.17,21.93-1.05,21.45,.35,42.9,1.38,64.36,1.1,4.17-.05,8.15,1.55,12.36,1.51,20.58-.17,41.13,1.88,61.72,1.12,5.77-.21,11.43-1.35,17.34-.8,12.29,1.15,23.79,3.93,34.16,11.13,6.57,4.57,10.85,10.76,14.6,17.42,4.42,7.83,9.05,15.55,13.97,23.04,3.24,4.94,8.13,8.68,11.84,13.42,8.8,11.24,13.37,23.94,14.74,38,2.02,20.74,1.47,41.54,1.47,62.32,.02,118.71,.07,237.42-.07,356.13-.01,12.6-.92,25.22-3.56,37.61-.17,.5-.37,1-.57,1.48-.83,1.47-1.11,3.12-1.38,4.76-.11,.43-.28,.85-.49,1.25-1.13,1.57-2.01,3.27-2.56,5.15-.16,.41-.37,.8-.6,1.18-1.47,2-2.72,4.12-3.71,6.4-.27,.43-.58,.81-.93,1.17-7.9,9.41-18.12,14.48-30,17.18-6.2,1.41-12.46,1.39-18.63,2.47-1.83,.32-3.64,.08-5.32-.82-2.05-1-4.24-.77-6.39-.77-132.16-.02-264.31-.01-396.47,0-2.31,0-4.69-.29-6.79,1.09-2.03,.63-3.98,.95-5.13-1.48-.15-1.06,.02-1.99,1.02-2.6,7.11-.26,14.23,.13,21.35-.02,3.48-.07,6.94-.48,10.43-.47,46.93,.1,93.85-.08,140.78,.1,36.74,.14,73.49,.04,110.23,.08,34.94,.05,69.89-.1,104.83-.01,9.42,.02,18.86,.15,28.28,.17,3.39,0,6.91-.45,10.29-1.29,7.65-.45,14.58-3.18,21.73-5.79,7.03-2.57,11.22-7.96,16.35-12.43,3.2-2.78,4.26-7.34,5.66-11.23,3.52-9.74,5.22-19.78,5.38-30.35,2.07-136.82,.28-273.64,.68-410.46,.03-11.64,0-23.71-4.14-34.78-3.04-8.14-6.3-16.49-12.65-23.04-8.25-8.51-15.28-17.99-20.54-28.62-5.92-11.97-14.49-21.33-26.53-27.02-4.99-2.36-10.63-4.24-16.06-4.5-6.5-.31-12.89-1.75-19.48-1.38-8.95,.5-17.91-.62-26.84-.77-24.8-.4-49.62-.14-74.43-.14-89.5-2.01-179.02-.69-268.53-.85-11.71-.02-23.5-.27-35.21,.85Z"/>
      <path class="cls-13" d="M825.14,573.12c1.5-7.96,2.97-15.85,3.1-24.06,2.17-138,.37-276.02,.69-414.02,.03-12.1-.13-24.52-4.53-36.3-4.64-12.44-11.24-23.3-21.75-31.78-2.61-2.11-3.58-6.16-5.56-9.15-6.14-9.23-10.22-19.83-17.81-28.06-6.76-7.33-15.43-11.66-25.08-14.18-6.93-1.81-14.07-1.69-21.07-2.8-3.65-.58-6.77,1.89-10.66,1.69-9.47-.51-19-.23-28.48,.25-3.24,.16-5.95-1.37-9.13-1.29-9.64,.25-19.4,.95-28.92-.15-26.25-3.04-52.57-3.27-78.86-2.54-68.23,1.88-136.47,.43-204.7,.66-12.08,.04-24.22-.97-36.34-.75-16.34,.3-32.62,1.61-48.19,7.03-4.09,1.42-9,2.16-11.23,6.89-1.99,0-3.97,0-5.92,0-.6-1.77,.72-2.2,1.58-2.79,10.61-7.28,22.56-10.53,35.16-12.29,5.97-.83,11.9-.77,17.86-.91,88.35-2.19,176.72-1.19,265.07-.65,43.57,.26,87.16-.29,130.72,.9,13.74,.38,27.78,.7,41.06,5.71,12.95,4.89,22.22,13.4,28.68,25.73,4.93,9.41,10.22,18.63,17.64,26.62,12.31,13.27,21.07,28.19,21.82,47.31,4.29,107.94,.7,215.92,1.81,323.88,.35,33.79,.07,67.59,.02,101.38,0,1.9,.76,4.03-.96,5.68-.08,7.21-1.83,14.26-2.07,21.47-.09,2.68-.45,5.66-3.92,6.51Z"/>
      <path class="cls-7" d="M825.14,573.12c4.42-4.23,2.92-10.03,3.92-15.14,.83-4.24,.52-8.69,2.07-12.84,.72,3.88,1.91,7.78-.86,11.41-.25,.33-.19,.99-.12,1.47,1.73,11.39-3.33,21.26-7.74,30.98-3.46,7.64-10.95,12.04-17.72,16.87-6.69,4.78-14.62,6.45-22.03,7.35-6.19,.75-12.59,1.86-18.97,1.86-136.84,0-273.68,.11-410.53-.22-10.47-.03-21.34-.68-31.41-4.71-14.73-5.89-25.03-15.94-32.24-30.43-4.41-8.85-9.32-17.83-17.01-25.13-7.69-7.3-14.22-16.32-16.9-26.94-1.49-5.89-3.76-11.62-3.37-18.23,.3-5.09,.63-10.91-2.23-15.95-.59-1.04-.37-2.6-.38-3.91-.03-8.16-.1-16.32,0-24.47,.72-57.06-2.26-114.13-.77-171.17,.94-36.08,.39-72.15,.79-108.22,.14-12.81,.64-25.85-1.98-38.65-1.4-6.83,2.9-13.25,1.96-20.17-1.43-10.56,.63-21.15-.1-31.7-.65-9.35,1.9-18.27,2.79-27.41,.57-5.83-.54-11.77,1.71-17.51,2.27-5.78,4.02-11.77,7.68-17.22,1.74,1.72-.06,4.27,1.87,5.53,2.05,2.89,1.79,5.86,.29,8.86-2.59,.47-1.91-1.83-2.41-2.76-5.66,13.66-5.83,28.39-6.29,42.96-.56,17.94-1.41,35.87-1.95,53.8-.45,14.94,.7,29.9,1.38,44.84,.28,6.15,.35,12.3,.39,18.44,.16,21.97,.72,43.96-.08,65.9-1.14,31.28-1.46,62.58-.59,93.82,1.14,41.27,0,82.53,.92,123.78,.21,9.23,.47,18.57,2.43,27.76,2.75,12.9,8.53,24.18,17.36,33.76,7.29,7.91,13.33,16.58,18.34,26.03,1.33,2.5,2.83,4.9,4.15,7.4,6.85,13,18.05,20.05,31.96,23.33,2.44,.58,4.87,1.08,7.08,2.32,6.8,2.21,13.59,4.05,20.86,2.34,4.25-1,8.66-.79,12.93-.39,20.59,1.89,41.22,.78,61.82,.83,66.39,.18,132.78,.09,199.18,.06,35.28-.01,70.55,.17,105.83-.12,6.62-.06,13.34-1.89,19.85-.67,9.57,1.8,18.79,.28,28.02-1.43,12.75-2.37,23.94-7.75,32.05-18.35,1.15-2.43,3.38-4.25,4-6.99,1.45-1.77,1.89-4.05,3-5.99,1.4-1.45,.04-3.45,1-5Z"/>
      <path class="cls-33" d="M265.54,96.36c-.26-.03-.52-.07-.77-.11-1.18-1.47-.6-3.2-.61-4.81-.08-13.28-.28-26.56-.48-39.83-.12-7.74,.6-15.53,.24-23.31-.03-.67,.48-1.21,1.06-1.59,10.23-.13,20.45-.26,30.68-.38,.86-.01,1.64,.16,1.81,1.21-14.88,17.61-23.67,38.23-29.78,60.18-.79,2.86-1.44,5.76-2.16,8.64Z"/>
      <path class="cls-55" d="M606.33,25.58c-100.25,0-200.51,0-300.76,0-2.33,0-4.65,.07-6.98,.11,0-.37,.01-.74,.02-1.1,0,0-.01,.01-.01,.01,3.45-1.55,7.15-1.4,10.78-1.4,96.82-.04,193.65-.04,290.47-.02,1.98,0,4.01-.2,5.89,.72,.66,.39,.86,.95,.6,1.67Z"/>
      <path class="cls-4" d="M265,26.71c-.07,23.18-.15,46.36-.22,69.54-.12,.65-.23,1.3-.35,1.94-.27,0-.54,.01-.81,.02V61.56c-.45-4.66-1.28-9.33,0-13.99,0-3,0-5.99,0-8.99-.21-3.19,.49-6.42-.67-9.58-.61-1.68,.45-2.34,2.05-2.3Z"/>
      <path class="cls-34" d="M139.94,777.45c10.99-16.48,15.35-34.84,15.8-55.66,.19-2.34-.77-5.9-.91-9.46-.55-13.43-4.81-25.59-10.66-37.54-7.49-15.32-19.52-25.25-35.22-30.43-9.55-3.15-19.58-3.91-29.94-2.48-14.17,1.95-26.54,7.33-35.94,17.71-15.26,16.86-21.3,37.61-22.22,60-.33,8.07,.64,16.07,2,24,2.47,14.35,7.93,27.49,17.05,38.87,12.27,15.33,29.19,21.6,48.06,22.21,8.94,.29,18.04-1.76,26.41-5.67,2.09-.98,3.48-1.55,5.63,1.14,3.63,4.54,6.92,9.36,10.68,13.81,1.4,1.65,2.68,3.44,5.06,2.38,6.04-2.7,12.01-5.58,17.99-8.43,.91-.43,2.4-.74,1.07-2.35-3.47-4.19-6.95-8.38-10.32-12.66-2.67-3.4-5.57-6.72-7.61-10.48-1.03-1.9,1.94-3.31,3.03-4.95Zm-24.02-25.9c-.46,.91,.16,2.37-1.71,2.45-1.58,.07-2.15-.63-2.92-1.9-2.77-4.54-6.48-8.48-8.74-13.37-.86-1.87-2.25-2.11-4.11-1.32-6.02,2.56-12.04,5.14-18.15,7.46-2.6,.98-1.38,2.28-.56,3.34,5.32,6.85,10.78,13.59,16.09,20.44,1.61,2.08,1.68,3.42-1.58,4.52-8.12,2.76-21.3-.93-26.29-7.75-7.46-10.2-10.12-21.76-11.37-34.18-1.22-12.14-.14-23.85,3.33-35.3,3.77-12.45,10.29-22.49,26.16-24.9,9.18-1.39,20.39,5.34,25.14,13.61,7.28,12.68,8.73,26.42,9.45,41.19-1.04,8.2-.51,17.36-4.73,25.7Z"/>
      <path class="cls-35" d="M955.55,770.62c-9.62-10.69-20.18-20.59-28.7-32.25-.78-1.07-3.35-1-2.35-3.13,.77-1.64,2.57-1.09,4.01-1.31,5.68-.85,11.29-2.1,16.52-4.51,6.56-3.02,12.61-6.74,16.81-12.93,6.44-9.49,7.82-20.09,7.16-31.19-.78-13.03-6.08-23.71-16.91-31.15-12.21-8.39-26.55-9.29-40.61-9.92-15.62-.7-31.3,0-46.95-.27-4.35-.08-5.54,.98-5.52,5.45,.18,48.29,.11,96.57,.11,144.86,0,2.09,0,4.17,0,6.62,5.32,0,10.98-.22,16.6,.08,3.6,.19,4.44-1.09,4.41-4.51-.16-16.82-.08-33.63-.08-50.45,0-11.05,0-11.09,11.19-11.01,2.38,.02,4.97-.82,6.96,1.57,3.98,4.77,7.96,9.54,12.16,14.11,14.55,15.81,29.13,31.59,42.97,48.03,1.39,1.65,3.02,2.27,5.21,2.24,7.82-.12,15.65-.05,24.84-.05-10.2-10.33-18.94-20.39-27.84-30.28Zm-72.03-54.6c-2.91,.04-2.58-1.88-2.58-3.7,0-7.48,0-14.95,0-22.43s.07-14.96-.04-22.43c-.04-2.46,.6-3.61,3.32-3.54,14.41,.37,28.85-.84,43.18,1.99,12.19,2.41,18.8,9.55,19.53,22.12,.74,12.6-5.28,21.56-16.91,24.85-15.27,4.32-30.95,2.91-46.51,3.14Z"/>
      <path class="cls-35" d="M792.64,708.01c-7.46-20.28-15-40.54-22.29-60.89-.87-2.42-1.94-3.1-4.21-3.07-5.49,.07-10.98,.14-16.47-.03-2.4-.08-3.59,.84-4.37,2.99-6.67,18.32-13.38,36.62-20.11,54.92-7.12,19.35-14.31,38.67-21.4,58.03-4.56,12.46-8.95,24.99-13.54,37.44-1.05,2.84-.53,3.72,2.58,3.56,4.65-.23,9.33-.27,13.97,.01,3.2,.2,4.48-1.47,5.33-4.01,3.63-10.88,7.42-21.71,10.74-32.68,.77-2.55,1.47-3.41,4.13-3.4,20.13,.11,40.26,.11,60.4,0,2.8-.01,4.01,.93,4.88,3.6,3.5,10.75,7.35,21.39,10.89,32.12,.97,2.95,1.97,4.68,5.67,4.41,5.78-.43,11.63-.11,17.98-.11-11.56-31.42-22.87-62.15-34.17-92.89Zm-11.84,35.88c-16.6-.08-33.21,.18-50.43-1.03,8.8-25.43,17.46-50.42,26.59-76.81,3.99,7.09,5.39,13.33,7.47,19.29,6.31,18.1,12.53,36.24,18.93,54.31,1.02,2.87,1.15,4.25-2.56,4.24Z"/>
      <path class="cls-4" d="M189.19,886.77c-1.03-.9-3.4-.77-3.05-2.55,.39-1.96,2.63-.86,3.98-1.25,5.28-1.54,8.13-5.8,7.48-11.53-.48-4.29-5.05-9.08-10.01-8.68-6.28,.51-12.63,.18-18.94,.09-1.96-.03-3,.25-2.98,2.64,.11,11.64,.06,23.27,.04,34.91,0,1.47,.08,2.52,2.08,2.49,2.09-.03,1.93-1.28,1.93-2.63,0-4.49-.04-8.98,.03-13.47,.02-1.16-.65-2.99,1.56-2.9,3.24,.13,6.48-.54,9.69,.98,6.1,2.89,8.5,8.89,11.48,14.06,2.12,3.68,4.26,4.39,8.08,3.65-3.96-5.25-6.31-11.44-11.35-15.82Zm-16.76-6.83c-1.24,.07-1.79-.54-1.78-1.78,.03-3.15,.07-6.31-.02-9.46-.05-1.78,.78-2.29,2.4-2.22,1.99,.08,3.98,.02,5.97,.02,0-.04,0-.08,0-.13,2.65,.16,5.32,.16,7.93,.53,3.14,.45,5.22,2.49,5.47,5.59,.26,3.25-1.26,5.8-4.65,6.76-5.05,1.44-10.23,.39-15.34,.68Z"/>
      <path class="cls-4" d="M1046.52,896.81c-2.89-4.17-11.02-12.9-10.48-12.93,1.74-.07,1.15,.02,1.74-.07,5.41-.81,10.07-5.81,9.89-10.63-.23-6.1-4.8-10.29-11.24-10.31-5.65-.01-11.32,.16-16.96-.07-2.88-.11-3.58,.85-3.54,3.62,.15,11.14,.02,22.29,.12,33.43,0,.99-2.13,3.14,1.35,3.07,2.39-.05,2.66-1.02,2.62-2.97-.1-4.32-.09-8.65,0-12.97,.02-1.13-.79-2.91,1.36-3.09,4.95-.4,9.99-.45,13.49,3.78,2.66,3.22,5.11,6.72,7.02,10.42,1.92,3.73,4.22,5.77,9.35,4.25-2.54-1.54-3.44-3.7-4.72-5.55Zm-24.33-16.9c-1.35,.06-1.56-.92-1.54-2,.01-.83,0-1.66,0-2.5q-.05-8.92,8.68-9.01c2.49,.15,5.01,.09,7.46,.51,3.03,.51,5.21,2.23,5.41,5.59,.2,3.41-1.27,5.82-4.63,6.77-5.06,1.43-10.25,.43-15.38,.64Z"/>
      <path class="cls-4" d="M61.02,861.82c-11.42-.07-19.24,7.73-19.22,20.76,.03,13.14,6.86,20.27,19.52,20.27,11.27,0,18-7.53,18.56-19.32,.73-15.18-9.53-21.65-18.87-21.71Zm5.07,36.38c-7.34,2.94-15.65-.81-18.23-8.29-1.27-3.69-1.36-7.52-.74-11.32,1.31-8.07,6.77-12.92,14.07-12.67,7.28,.26,12.58,5.5,13.52,13.41,.14,1.15,.16,2.32,.2,2.92-.02,8.16-3.18,13.69-8.81,15.94Z"/>
      <path class="cls-4" d="M798.32,861.8c-10.58-.08-19.95,7.65-19.13,20.33,0,12.56,6.75,20.09,17.05,20.85,14.22,1.04,20.96-9.05,20.97-20.52,.01-12.87-8.46-20.59-18.89-20.66Zm12.11,29.3c-2.58,6.01-8.32,8.88-15.1,7.81-5.7-.9-10.25-5.96-11.12-12.47-.17-1.3-.03-2.65-.03-3.98-.13-3.87,.39-7.65,2.66-10.89,5.79-8.23,18.72-7.36,23.17,1.69,2.84,5.77,2.97,11.87,.41,17.84Z"/>
      <path class="cls-4" d="M568.37,861.85c-11.33-.05-18.46,7.72-19.12,20.45-.54,10.55,7.39,21.89,18.87,20.55,11.83,0,18.93-7.33,19.3-19.05,.5-15.89-9.13-21.9-19.05-21.95Zm13.71,25.18c-1.45,7.79-6.65,12.17-14.06,12.04-6.95-.12-12.09-4.79-13.42-12.28-.26-1.46-.23-2.97-.32-4.21,.43-6.42,1.57-12.17,7.93-15.2,7.67-3.64,16.25-.12,19.04,7.86,1.34,3.85,1.57,7.82,.83,11.79Z"/>
      <path class="cls-4" d="M857.86,898.32c-3.51-4.78-12.19-14.52-11.65-14.51,1,.02,1.19,.19,1.82,0,4.84-1.48,9.94-4.18,9.16-11.55-.51-4.85-3.73-9.21-8.23-9.33-7.79-.2-15.6-.05-22.83-.05,0,12.73-.01,25.13,.03,37.53,0,.84-1.87,2.52,.94,2.46,1.76-.04,3.26,.16,3.08-2.46-.21-3.15-.24-6.33,.01-9.47,.18-2.34-1.47-6.05,.97-6.73,3.41-.96,7.63-1.38,10.9,1.21,1.91,1.51,3.53,3.47,5.02,5.43,2.06,2.69,4.21,5.4,5.7,8.41,1.63,3.3,3.81,4.24,7.55,3.16-.99-1.67-1.66-2.98-2.48-4.09Zm-25.54-18.39c-1.24,.04-1.72-.74-1.72-1.89,0-.99,0-1.99,0-2.98q-.03-8.57,8.5-8.65c2.31,.11,4.63,.12,6.93,.37,3.47,.37,6,1.99,6.25,5.81,.24,3.67-1.62,6.04-5.13,6.86-4.89,1.14-9.88,.32-14.83,.49Z"/>
      <path class="cls-4" d="M380.5,864.8c-.81-2.04-2.39-1.92-4.06-1.94-1.53-.01-2.7,.02-3.39,1.92-4.64,12.62-9.44,25.18-14.19,37.78,3.16,.89,5.11,.18,5.74-3.27,.34-1.87,1.45-3.6,1.86-5.47,.53-2.43,1.18-4.71,4.25-3.92,5.38,1.39,11.98-3.52,16.26,3.01,1.21,1.84,2.02,4.08,2.47,6.25,.75,3.65,2.72,4.4,6.06,3.23-5.02-12.56-10.04-25.07-14.99-37.6Zm-6.23,9.78c.76-2.14,1.39-4.32,2.4-7.48,2.51,6.88,4.64,12.74,6.81,18.68q-13.56,1.05-9.21-11.2Z"/>
      <path class="cls-4" d="M225.58,866.81c-.73-1.76-.6-4.37-4.17-4.08-3.32,.27-3.89,2.26-4.76,4.57-4.43,11.69-8.9,23.37-13.47,35.34,4.05,.17,4.86,.29,5.34-2.89,1.48-9.76,7.6-11.22,15.77-9.92,1.13,.18,2.35,.2,3.48-.01,2.08-.39,2.99,.83,3.62,2.39,.84,2.08,1.73,4.17,2.22,6.34,.86,3.76,2.73,5.38,6.46,3.95-4.82-11.92-9.57-23.84-14.49-35.69Zm-11.03,19.23c2.25-6.31,4.29-12.04,6.59-18.49,2.33,6.19,4.46,11.85,6.76,17.97-4.38,1.07-8.56,.29-13.36,.52Z"/>
      <path class="cls-53" d="M265.68,521.26c-.29-.14-.58-.26-.88-.37-1.11-1.11-.64-2.52-.64-3.8-.02-46.6-.02-93.21,0-139.81,0-1.29-.39-2.68,.56-3.85,4.11-.05,5.52,3.66,8.05,5.81,.77,1.69,1.75,3.14,3.82,3.32,1.04,.89,2.08,1.79,3.11,2.68,.53,1.31,1.25,2.39,2.89,2.29,.7,.57,1.39,1.15,2.09,1.72,.59,1.24,1.21,2.45,2.92,2.2,22.56,16.28,46.97,28.88,73.6,37.11,16.58,5.12,33.48,8.71,50.71,10.69,1.3,.15,2.58,.52,3.87,.79-.71,.87-1.47,.82-1.82,.57,1.52,.2,3.48,.44,5.47-.32,15.44,.72,30.86,1.36,46.32,.28,18.12-1.27,36-3.93,53.65-8.17,.96-.23,1.97-.27,2.95-.39,1.38,.09,2.79,.33,3.83-.94,14.51-4.63,29.09-9.04,43.11-15.07,4.11-1.77,4.08,2.59,5.86,4.26-.18,1.68,.95,2.34,2.24,2.89,2.91,3.7,5.82,7.41,8.73,11.11-.15,1.66,.99,2.34,2.25,2.92,5.03,6.3,10.64,12.25,14.91,19.04,2.94,4.68,5.47,3.73,8.5,1.34,9.34-7.36,19.57-13.43,29.23-20.31,9.43-6.71,19.06-13.15,28.69-19.57,2.07-1.38,2.8-2.52,.84-4.43-.39-2.53-2.29-3.72-4.28-4.82l-3.74-4.16c-.62-2.97-3.03-4.35-5.24-5.9-1.27-.73-2.14-1.83-2.82-3.09-.59-2.31-1.97-3.92-4.24-4.75-1.87-1.47-3.41-3.24-4.67-5.25-.17-2.09-1.54-3.11-3.34-3.75-1.61-1.73-3.23-3.46-4.84-5.18-.59-2.92-2.73-4.51-5.08-5.9-.15-.07-.33-.11-.44-.22-5.92-6.07-5.96-6.09-1.98-13.53,11.35-21.17,23.85-41.74,32.92-64.08,1.8-4.44,3.6-8.88,5.4-13.32,2.96-4.93,3.97-10.48,5.04-16.01,.17-2.5,.8-4.88,1.87-7.14,.47,.26,.64,.68,.66,1.18,.09-.05,.04-.13,.05-.2,.1-2.24,.96-4.42,.55-6.7,5.4-26.42,6.82-53.1,5.01-79.97,.95-3.13,.16-6.27,.3-9.41-.34-.65-1.1,.25-.51-.07,.24-.13,.39-.05,.42,.25,.16,1.56,.69,3.15-.47,4.57-2.07-12.26-2.89-24.7-6.32-36.76-4.85-17.03-12.06-32.99-20.54-48.45-.3-2.06-.99-3.89-3.01-4.89-4.58-6.38-9.16-12.76-13.74-19.13,.02-2.19-1.63-3.01-3.19-3.89-.64-.68-1.29-1.36-1.93-2.04-.8-3.38-3.45-5.14-6.07-6.93-3.03-3.02-6.06-6.05-9.09-9.07-1.46-2.3-2.93-4.59-5.85-5.29-1.27-.6-2.57-1.16-3.06-2.66,1.03-1.08,2.31-1.14,3.67-.93,2.61,.69,5.28,.42,7.93,.42,41.51,.02,83.01,0,124.52,.04,2.62,0,5.34-.5,7.79,.97,2.43,3.38,1.12,7.25,1.39,10.91,.18,2.43,.05,4.89,.05,7.33-.25,9.85,.43,19.72-.38,29.57-.21,.97-.68,1.82-1.09,2.71-.9,2.77-.51,5.62-.52,8.43-.02,141.65-.01,283.3-.05,424.95,0,3.1,.72,6.35-1.09,9.27-2.69,1.91-5.79,1.21-8.72,1.21-93.58,.04-187.17,.03-280.75,.03-51.12,0-102.24,0-153.36,.01-2.65,0-5.34-.28-7.92,.63-11.39,1.18-22.7-.77-34.06-.96Z"/>
      <path class="cls-36" d="M265.57,260.39c-.25-.35-.5-.7-.75-1.05-1.06-.91-.68-2.15-.68-3.26-.02-27.35-.02-54.7,0-82.05,0-1.13-.32-2.34,.6-3.32,.27-.1,.54-.14,.83-.12,2.14,8.9,5.36,17.44,8.85,25.88-.23,1.24,.09,2.23,1.28,2.83,4.23,6.72,8.45,13.43,12.68,20.15-.18,1.68,.93,2.35,2.25,2.85,1.32,.93,2.33,2.11,3.03,3.57,1.15,2.93,3.29,4.92,6.03,6.34,1.87,.7,1.61-.83,1.88-1.8,1.13-5.9-.18-11.8-.13-17.7,.04-4.4,1.51-8.82,.12-13.23,.61-25.71,5.13-50.47,17.83-73.24,1.6-.75,2.01-2.17,2.08-3.77,3.76-7.34,8.49-14,14.03-20.09,1.87-.6,2.83-1.97,3.23-3.82,.66-1.27,1.54-2.35,2.79-3.08,3.77-2.85,7.18-6.06,9.88-9.97,1.03-.98,2.05-1.95,3.08-2.93,1.98-.16,3.26-1.21,3.88-3.09,.73-.58,1.46-1.17,2.18-1.75,1.7,.23,2.33-.98,2.95-2.2,9.11-7.23,19.13-12.84,30.02-16.93,1.21,.27,2.4,.49,2.88-1.12,24.22-9.87,49.25-11.95,74.88-7.47,10.79,1.89,21.37,4.64,31.32,9.42,.66,1.07,1.55,1.58,2.82,1.14,16.92,6.68,31.75,16.6,45.04,28.93,2.82,3.8,6.07,7.17,9.96,9.9,1.55,1.1,2.76,2.5,3.69,4.15-.06,1.62,.95,2.36,2.31,2.82,17.83,21.25,28.74,45.71,32.9,73.04,6.71,44.08-4.97,83.61-30.5,119.57-2.09,2.94-3.52,2.67-5.87,.67-2.78-2.36-5.77-4.49-8.7-6.69-11.12-8.39-22.91-15.37-37.01-17.44,.1-.13,.2-.36,.31-.36,.6-.01,.64-.23,.05-.33-6.34-1.05-12.68,.28-19.02,0,1.04,.29,2.32-.42,3.15,.76-2.04,.76-4.16,.83-6.31,.71-3.72-.99-7.35,.3-11.02,.45-1.56,.25-3.17,.01-3.66,.07,0,0,1.06-.23,1.93,.75-13.75,2.42-27.7,2.73-41.68,3.83-.44,1.98,1.91,2.46,2.2,4.01-.03,1.62,.9,2.41,2.37,2.74,1.91,1.43,3.36,3.26,4.64,5.24,.38,2.54,2.34,3.7,4.28,4.88,1.23,1.38,2.45,2.75,3.68,4.13,.2,2.07,1.65,3.04,3.32,3.83l3.68,4.15c.18,2.08,1.63,3.05,3.32,3.81,1.24,1.39,2.47,2.78,3.71,4.18,.15,2.09,1.6,3.05,3.3,3.8,1.59,1.09,2.73,2.56,3.71,4.19,.37,2.54,2.32,3.7,4.26,4.86l3.68,4.15c0,1.6,.92,2.39,2.37,2.74,2.69,2.88,5.39,5.77,8.59,9.2-17.03,6.58-33.82,11.71-51.62,13.03-2.02-1.1-4.17-.23-6.24-.53,1.51,.16,3.12-.57,4.49,.69-2.71,.94-5.51,.9-8.32,.72-5.29-.69-10.59-.69-15.88,0-19.68-.69-38.41-5.27-56.17-13.77-3.27-2.44-6.82-4.28-10.8-5.25-13.04-6.81-25.19-14.91-36.12-24.8-.8-1.66-1.73-3.18-3.85-3.28-2.02-1.25-3.77-2.8-5.2-4.7-4.33-5.58-9.26-10.55-14.86-14.84-2.26-1.74-4.07-3.88-5.67-6.21-.14-2.1-1.62-3.04-3.29-3.83-1.26-.76-2.08-1.88-2.73-3.16,.12-1.66-.9-2.37-2.29-2.79-5.21-5.63-9.86-11.7-13.97-18.17Z"/>
      <path class="cls-32" d="M606.33,25.58c0-.33,0-.66,0-1-1.89-.98-3.93-.48-5.88-.48-98.32-.03-196.64-.02-294.96-.05-1.96,0-3.99,.52-5.88-.48,8.53-2.78,17.43-3.84,26.26-3.86,80.2-.19,160.41-.11,240.61-.11,17.75,0,35.53-.62,53.25,.13,34.75,1.47,69.51,.19,104.24,1.09,8.39,.22,17.27-.38,25.24,3.75-1.72,1.8-4,1.41-6.11,1.41-42.41,.04-84.81,.02-127.22,.04-2.5,0-4.96-.59-7.46-.41-.33,.01-.65,.02-.98,.03-.37-.02-.74-.04-1.1-.06Z"/>
      <path class="cls-4" d="M264.71,373.44c.09,1.15,.25,2.31,.25,3.46,.02,47.17,.03,94.34,.03,141.52,0,.83-.12,1.65-.19,2.48-2.74-.7-1.09-2.85-1.09-4.11-.11-48.17-.09-96.33-.09-144.5,.51-.49,.84-.39,.97,.31,.02,.29,.06,.57,.12,.85Z"/>
      <path class="cls-14" d="M611.36,26.75c-1.02-.03-2.05-.06-3.07-.08-.29-.34-.57-.68-.86-1.03,0,0-.11,.02-.11,.02,1.18-.9,2.56-.54,3.86-.54,45.72-.02,91.44-.02,137.15,0,1.3,0,2.67-.34,3.88,.51l-.08,.05c.08,.77-.26,1.22-1.02,1.35-45.6,.09-91.2,.01-136.8,.04-.99,0-2,.1-2.95-.32Z"/>
      <path class="cls-39" d="M264.59,372.59c-.32-.1-.65-.21-.97-.31,0,0,0,.02,0,.02-.8-1.21-.48-2.58-.48-3.88-.02-34.38-.02-68.76,0-103.14,0-1.3-.34-2.67,.5-3.87,.32,0,.63,0,.95,0,0,37.07,0,74.13-.01,111.2Z"/>
      <path class="cls-41" d="M301.57,199.46c1.74,1.61,.96,3.72,.98,5.59,.1,6.91,.07,13.81,0,20.72-.01,1.57,.56,3.34-.98,4.61-.89-10.31-.99-20.62,0-30.93Z"/>
      <path class="cls-88" d="M293.53,294.56c.72-1.15,1.35-.39,1.9,.15,4.28,4.25,8.55,8.52,12.8,12.8,.54,.54,1.32,1.16,.16,1.89-5.4-4.5-10.33-9.47-14.86-14.84Z"/>
      <path class="cls-89" d="M501.73,275.58c-1.39-.44-2.99,.28-4.66-1.02,8.04-.19,15.67-2.45,23.2,.37-.7,.95-2,.27-3.03,.6-1.27-.07-2.55-.13-3.82-.2-2-.74-4-.75-6,0-1.9,.08-3.79,.17-5.69,.25Z"/>
      <path class="cls-22" d="M673.21,263.27c.49,6.1-2.15,11.45-4.07,16.97-.03,.09-.21,.14-.32,.2-.22-.39-.44-.78-.66-1.16,1.68-5.34,3.36-10.67,5.04-16.01Z"/>
      <path class="cls-74" d="M351.41,85.49c-1.89,4.71-5.3,7.92-9.88,9.97,2.9-3.71,6.14-7.09,9.88-9.97Z"/>
      <path class="cls-83" d="M560.41,99.4c-4.69-1.93-7.94-5.29-9.96-9.9,3.77,2.85,7.05,6.18,9.96,9.9Z"/>
      <path class="cls-6" d="M353.56,342.19c4.34,.23,8.17,1.51,10.8,5.25-3.87-1.19-7.4-3.1-10.8-5.25Z"/>
      <path class="cls-26" d="M420.53,361.21c5.29-1.45,10.59-1.46,15.88,0-5.29,.48-10.59,.45-15.88,0Z"/>
      <path class="cls-79" d="M626.28,43.69c3.74,1.08,6.08,3.74,6.07,6.93-2.02-2.31-4.05-4.62-6.07-6.93Z"/>
      <path class="cls-70" d="M632.28,370.42c3.1,.76,5.43,2.17,5.08,5.9-1.69-1.97-3.39-3.94-5.08-5.9Z"/>
      <path class="cls-43" d="M299.7,232.19c-3.74-.46-5.41-2.9-6.03-6.34,2.01,2.11,4.02,4.22,6.03,6.34Z"/>
      <path class="cls-76" d="M657.27,398.35c2.99,.87,5.53,2.13,5.24,5.9-1.75-1.97-3.49-3.94-5.24-5.9Z"/>
      <path class="cls-6" d="M676.34,250.41c2.1,2.39,.52,4.7-.4,6.87-.2,.47-.62-.68-.86-1.15-.02-2,.47-3.89,1.25-5.71Z"/>
      <path class="cls-76" d="M611.35,29.32c3.76-.24,5.07,2.24,5.85,5.29-1.95-1.76-3.9-3.53-5.85-5.29Z"/>
      <path class="cls-89" d="M484.44,276.38c3.65-1.68,7.31-1.54,10.99-.09-1.17,.07-2.33,.13-3.5,.2-2.08,.9-4.44-.27-6.49,.85l-1.02,.06c-.34-.23-.45-.46-.33-.68,.12-.22,.23-.33,.35-.33Z"/>
      <path class="cls-2" d="M681.09,165.78c.14-1.77,.28-3.53,.42-5.3,.52,3.35,1.69,6.72-.16,9.95-.09-1.55-.17-3.1-.26-4.65Z"/>
      <path class="cls-31" d="M650.21,390.51c3.08,.41,4.19,1.66,4.24,4.75-1.41-1.58-2.82-3.16-4.24-4.75Z"/>
      <path class="cls-70" d="M483.46,331.21c-2.86-.35-4.62-1.67-4.26-4.86,1.42,1.62,2.84,3.24,4.26,4.86Z"/>
      <path class="cls-37" d="M666.24,408.42c2.93,.27,4.55,1.7,4.28,4.82-1.43-1.61-2.85-3.21-4.28-4.82Z"/>
      <path class="cls-64" d="M651.22,75.69c2.52,.69,4.34,1.82,3.01,4.89-1-1.63-2.01-3.26-3.01-4.89Z"/>
      <path class="cls-70" d="M454.48,298.26c-2.85-.37-4.58-1.74-4.28-4.88,1.43,1.63,2.85,3.25,4.28,4.88Z"/>
      <path class="cls-37" d="M358.37,79.48c0,2.64-.84,4.24-3.88,3.08,.89-1.53,2.5-2.16,3.88-3.08Z"/>
      <path class="cls-64" d="M338.74,98.54c.66,2.74-.53,3.92-3.23,3.82,.73-1.57,1.89-2.77,3.23-3.82Z"/>
      <path class="cls-80" d="M444.73,360.49c-1.74-.15-3.49-.31-5.23-.46,2.38-.48,4.79-1.59,6.98,.3-.58,.05-1.17,.11-1.75,.16Z"/>
      <path class="cls-79" d="M276.58,382.57c-2.66,.48-3.95-.6-3.82-3.32,1.27,1.11,2.55,2.22,3.82,3.32Z"/>
      <path class="cls-17" d="M642.21,381.51c2.54-.02,4.07,.85,3.33,3.75-1.11-1.25-2.22-2.5-3.33-3.75Z"/>
      <path class="cls-43" d="M313.59,314.1c2.71-.58,3.92,.6,3.85,3.28-1.28-1.09-2.57-2.19-3.85-3.28Z"/>
      <path class="cls-25" d="M321.48,122.46c1.79,2.62-.14,3.2-2.08,3.77,.31-1.47,.99-2.73,2.08-3.77Z"/>
      <path class="cls-87" d="M634.29,52.66c2.6,.04,3.92,1.13,3.19,3.89-1.06-1.3-2.13-2.6-3.19-3.89Z"/>
      <path class="cls-88" d="M284.57,284.52c2.71-.11,3.82,1.15,3.29,3.83-1.1-1.27-2.19-2.55-3.29-3.83Z"/>
      <path class="cls-72" d="M468.49,314.19c-2.72,.14-3.8-1.16-3.32-3.81,1.11,1.27,2.21,2.54,3.32,3.81Z"/>
      <path class="cls-52" d="M461.48,306.22c-2.69,.1-3.8-1.18-3.32-3.83,1.11,1.28,2.21,2.55,3.32,3.83Z"/>
      <path class="cls-37" d="M475.49,322.16c-2.75,.17-3.82-1.13-3.3-3.8,1.1,1.27,2.2,2.53,3.3,3.8Z"/>
      <path class="cls-5" d="M396.4,57.48c.5,.16,1.64,.31,1.12,.81-1.07,1.04-2.53,2.08-4,.32,.96-.37,1.92-.75,2.88-1.12Z"/>
      <path class="cls-40" d="M526.18,431.07c-.93,1.72-2.04,2.71-3.83,.94,1.15-.84,2.47-.95,3.83-.94Z"/>
      <path class="cls-58" d="M419.43,440.3c-1.84,1.77-3.93,.55-5.98,.23,.78-.16,1.55-.32,2.33-.49,1.22,.08,2.43,.17,3.65,.25Z"/>
      <path class="cls-17" d="M445.57,288.14c-2.28,.34-2.74-.2-2.37-2.74,.79,.91,1.58,1.83,2.37,2.74Z"/>
      <path class="cls-37" d="M290.64,222.29c-2.27,.15-2.73-.44-2.25-2.85,.75,.95,1.5,1.9,2.25,2.85Z"/>
      <path class="cls-43" d="M566.41,106.37c-2.28,.19-2.71-.32-2.31-2.82,.77,.94,1.54,1.88,2.31,2.82Z"/>
      <path class="cls-36" d="M507.42,275.34c2-1.46,4-1.45,6,0-2,0-4,0-6,0Z"/>
      <path class="cls-8" d="M282.59,387.54c-2.37,1.01-3.06-.1-2.89-2.29,.96,.76,1.93,1.53,2.89,2.29Z"/>
      <path class="cls-27" d="M275.71,199.29c-.45,.71-.99,.71-1.48,.1-.8-1-.83-2.01,.19-2.93,.43,.94,.86,1.88,1.28,2.83Z"/>
      <path class="cls-21" d="M577.38,423.15c-2.08,.07-3.38-.46-2.24-2.89,.75,.96,1.49,1.93,2.24,2.89Z"/>
      <path class="cls-70" d="M287.6,391.46c-2.45,1.24-2.92-.17-2.92-2.2,.97,.73,1.95,1.46,2.92,2.2Z"/>
      <path class="cls-36" d="M485.43,277.34c1.96-1.8,4.31-.65,6.49-.85-2.07,.99-4.28,.9-6.49,.85Z"/>
      <path class="cls-17" d="M279.55,278.56c2.2-.25,3.33,.38,2.29,2.79-.76-.93-1.53-1.86-2.29-2.79Z"/>
      <path class="cls-67" d="M363.5,75.53c.02,2.08-.53,3.39-2.95,2.2,.98-.73,1.97-1.47,2.95-2.2Z"/>
      <path class="cls-17" d="M489.51,338.11c-2.26,.33-2.72-.2-2.37-2.74,.79,.91,1.58,1.83,2.37,2.74Z"/>
      <path class="cls-87" d="M588.36,437.18c-2.03,.02-3.38-.5-2.25-2.92,.75,.97,1.5,1.95,2.25,2.92Z"/>
      <path class="cls-41" d="M484.44,276.38c0,.34-.02,.68-.02,1.01-.58,.05-1.15,.11-1.73,.16-1.07-.16-2.15-.32-3.62-.54,2-1.07,3.73-.48,5.38-.64Z"/>
      <path class="cls-23" d="M505.42,60.57c-1.62,1.3-2.65,1.13-2.82-1.14,.94,.38,1.88,.76,2.82,1.14Z"/>
      <path class="cls-32" d="M819.15,113.51v3c1.77,7.29,1.94,14.75,1.94,22.16,.07,131.74,.06,263.49,.03,395.23,0,7.45-.68,14.88-1.97,22.23-1.98,14.48-6.2,27.77-19.08,36.58-8.57,5.86-18.27,8.39-28.38,9.32-18.9,1.74-37.86,1.04-56.8,1.05-117.7,.03-235.4,.1-353.1-.1-14.72-.02-29.46-1.22-42.82-8.83-5.53-3.15-9.38-7.79-13.09-12.64-2-2.61-3.53-5.57-5.27-8.37,1.36-1.3,2.87-1.17,4.44-.48,2.78,1.76,4.05,4.8,6.05,7.23,10.07,12.25,23.65,16.88,38.8,17.6,47.23,2.23,94.5,.89,141.76,1.03,79.09,.22,158.17-.05,237.26,.13,13.49,.03,26.94-.68,40.38-1.32,8.81-.42,17.47-2.65,25.17-7.33,10.6-6.45,16.22-16.34,19.02-28.16,2.88-12.15,2.18-24.49,2.17-36.78-.02-74.25,.02-148.49,.01-222.74,0-57.6,.02-115.2-.05-172.8-.02-15.91-3.94-30.72-14.21-43.24-9.53-11.61-18.14-23.81-25.69-36.79-4.28-7.37-10.42-12.9-17.91-16.96-1.62-.88-3.15-1.89-4.06-3.59-.32-1.95-1.03-4.2,2.46-3.35,.43,.8,1.18,.98,2,1,2.09,.82,4.26,1.46,5.99,3,2.39,1.93,5.3,3.25,6.99,5.99,2.33,2.66,4.66,5.33,6.99,7.99,2.04,1.52,2.44,4.15,4,5.99h0c1.66,3,3.52,5.89,5,8.99,.33,.33,.67,.67,1,1,1.31,1.48,1.5,3.63,3,4.99,1.36,1.64,1.94,3.91,4,5,2.21,3.09,4.56,6.08,6.99,8.99,1.33,1.67,2.66,3.33,4,5,1.6,1.45,2.94,3.11,4,5,.02,.82,.2,1.57,1,2,1.65,4.49,4.92,8.23,5.99,12.99v2c1.65,2.42,1.08,5.39,2,7.99Z"/>
      <path class="cls-63" d="M263.62,47.57c0,4.66,0,9.33,0,13.99-2.29-2.78,.08-6.46-1.99-10.16-2.74,7.62-3.74,14.7-3.21,22.04,.22,3.08-.17,5.93-1.12,9.08-1.33,4.44-1.04,9.59-.48,14.32,.73,6.13,.02,12.19-.56,18.16-.33,3.41,.66,6.51,.38,9.77-.59,6.82-2.9,13.44-2.04,20.44,.79,6.46-.25,12.89,1.6,19.54,1.59,5.72,.2,12.36,.3,18.61,.35,21.73,.14,43.46,.14,65.19,0,37.04-.03,74.08,.02,111.12,.01,9.04,1.07,18.17,.61,27.08-.55,10.8-.45,21.57-.57,32.35-.21,19.97-.13,39.95-.01,59.93,.03,4.88-.69,9.74,1.65,14.62,1.75,3.63-1.03,7.86-.06,12.2,.82,3.68,.9,7.69,2.03,11.39,2.88,9.5,5.6,19.37,12.76,26.55,7.09,7.11,12.78,15.13,17.9,23.55,4.53,7.46,8.2,15.52,13.94,22.13,5.66,6.51,12.23,11.61,21.3,13.43,5.1,1.02,9.84,3.91,15.36,3.21,2.07,1.58,5.32-.97,6.99,2v2c-4.33,2.09-8.66,.67-12.99,0-5.43-2.87-11.77-2.79-17.29-5.55-8.94-4.47-16.82-10.2-21.37-19.22-7.05-13.96-15.58-26.77-26-38.45-8.55-9.59-13.09-21.19-15.32-33.83-1.45-8.21-1.04-16.5-1.78-24.74-.76-8.42-.26-16.96-.15-25.45,.69-57.56-2.17-115.11-.78-172.65,.68-28.1,.41-56.18,.74-84.27,.19-16.08-.4-32.2-1.31-48.21-.9-15.82,.54-31.48,.67-47.2,.12-14.53,.27-29.18,1.8-43.68,.95-9.07,2.31-18.26,7.46-26.37,1.18,2.32-.69,5.09,1.4,7.09Z"/>
      <path class="cls-57" d="M299.6,572.12c-.05-.3-.09-.59-.13-.89,.24-.23,.47-.47,.7-.71,2.86-1.33,5.9-.79,8.86-.79,155.3-.03,310.59-.02,465.89-.03q9.84,0,9.84-9.91c0-157.79,0-315.58,0-473.38,0-3.62,.71-7.57-4-9.13-.62-.38-.88-.94-.78-1.66,2.38-1.96,4.82-1.74,7.3-.23,2.48,4.46,.78,9.31,1.31,13.96-.03,3.96-.02,7.92,0,11.88,.17,4.76-.52,9.55,.54,14.28,.23,1.27,.21,2.53-.1,3.78-.65,2.46-.41,4.97-.41,7.45,0,141.72-.02,283.44,0,425.15-.03,4.96,.02,9.92-.04,14.87-.02,1.96,.17,4.01-1.25,5.67-2.93,1.76-6.17,1.06-9.28,1.06-141.02,.04-282.04,.03-423.06,.03-3,0-5.99,0-8.99,0-6.07-.04-12.13-.02-18.2,0-4.08-.03-8.17-.02-12.26,0-5.37,.25-10.67-.37-15.92-1.42Z"/>
      <path class="cls-71" d="M819.15,556.14c2.29-127.61,.42-255.23,.93-382.84,.08-18.93,1.02-37.89-.93-56.79,3,6.67,2.8,13.98,2.81,20.88,.25,132.62,.25,265.25,0,397.87-.01,6.9,.19,14.21-2.81,20.88Z"/>
      <path class="cls-90" d="M348.55,608.09c-2.01-1.78-5.04-.01-6.99-2h433.63c-4.02,1.67-8.24,2-12.53,2-138.03,0-276.07,0-414.1,0Z"/>
      <path class="cls-90" d="M320.57,15.6c2.25-.53,4.48-.99,6.84-1.05,83.3-1.95,166.62-.73,249.92-.75,14.57,0,29.19,.76,43.79,.8,1.16,0,2.36-.08,3.18,1-1.17,1.41-2.78,1.24-4.13,.74-2.28-.84-4.58-.73-6.9-.73-94.23,0-188.45,.03-282.68-.16-3.35,0-6.69,2.49-10.03,.15Z"/>
      <path class="cls-51" d="M265.68,521.26c11.32-.06,22.65-.13,33.97-.19,1.94-.75,3.96-.37,5.93-.37,146.2-.02,292.4-.02,438.6-.02,2,0,4,.04,5.99-.04,.68-.11,1.32,0,1.92,.35,.2,.71,0,1.28-.58,1.73-2.17,1.2-4.55,.84-6.85,.84-147.19,.01-294.38,.04-441.57,0-.91,0-1.82,0-2.73-.03-.85,0-1.71-.02-2.57-.03-.54,.02-1.09,0-1.64,0-3.46-.24-6.89,.22-10.34,.45-1.81-.4-3.75-.41-5.25-1.74-4.93-.85-10.01,.72-14.89-.96Z"/>
      <path class="cls-3" d="M299.6,23.56c100.18,0,200.36,.01,300.54,.07,2.06,0,4.35-.84,6.18,.95-102.58,0-205.16,.01-307.74,.02,.34-.35,.67-.69,1.01-1.04Z"/>
      <path class="cls-1" d="M278.61,523.17c.66,0,1.32-.01,1.98-.02,.83-.72,1.8-.42,2.73-.38,4.51,5.48,7.28,12.25,13.04,16.9,.19-1.66-.14-3.53,.11-5.36,.3-1.01,.36-2.21,1.83-2.28,3.32,4.81,1.16,10.13,1.44,15.22-.56,1.81-.71,3.74-1.56,5.47-.92,1.12-1.86,.54-2.48-.22-6.49-7.95-13.41-15.59-18.67-24.49-1.38-2.33-1.26-3.98,1.58-4.85Z"/>
      <path class="cls-65" d="M278.61,523.17c-1.75,1.34-1.63,2.45-.43,4.45,5.55,9.23,13.03,16.95,19.41,25.52,1.77,1.92,1.44,4.09,.77,6.29-1.75,2.1-3.16,.46-3.94-.76-6.14-9.63-14.75-17.4-20.44-27.33-1.41-2.47-3.63-4.99-1.35-8.15,1.99,0,3.99-.01,5.98-.02Z"/>
      <path class="cls-59" d="M272.63,523.19c-.19,6.19,4.15,10.25,7.3,14.7,5.01,7.07,11.4,13.11,15.74,20.73,.37,.65,1.26,1.02,1.91,1.51,1.81,2.33,1.82,4.66,0,6.99-7.34-12.39-17.82-22.43-25.63-34.46-.98-1.51-1.38-3.4-2.34-4.93-2.46-3.93-.81-4.92,3.03-4.54Z"/>
      <path class="cls-29" d="M752.21,25.62c-48.3,.01-96.59,.02-144.89,.03,1.6-1.83,3.74-1.02,5.63-1.02,45.42-.06,90.83-.06,136.25-.07,1.1,.08,2.31-.17,3.01,1.06Z"/>
      <path class="cls-4" d="M263.66,261.4c0,36.97-.02,73.93-.03,110.9-1.4-1.14-.99-2.73-.99-4.18-.02-34.75-.02-69.49,0-104.24,0-.81,.11-1.62,.2-2.42,.01-.09,.23-.22,.36-.22,.15,0,.31,.1,.47,.16Z"/>
      <path class="cls-4" d="M264.74,170.71c.03,29.54,.06,59.09,.09,88.63-1.66-.96-1.19-2.6-1.19-4.02-.02-27.85-.02-55.71,.01-83.56,0-.71-.5-1.59,.39-2.15,.06-.04,.29,.08,.34,.18,.15,.29,.24,.61,.36,.92Z"/>
      <path class="cls-15" d="M298.52,548.27c-.36-5.36,1.11-10.83-.93-16.1-2.19-3.34-2.12-6.67,.03-9.99,.63,.05,1.26,.1,1.89,.15,1.62,1.55,1.46,3.6,1.47,5.56,.04,12.54,.03,25.08,0,37.62,0,1.97,.1,4-1.35,5.63,0,0-.17,.1-.17,.1-.27-.06-.55-.11-.83-.14-.95-7.6-.71-15.21-.11-22.82Z"/>
      <path class="cls-62" d="M298.52,548.27c.04,7.61,.07,15.21,.11,22.82-2.32-.79-.49-2.71-1.07-3.97,0-2.33,0-4.66,0-6.99,0-2.33,0-4.66,.01-6.99,.29-1.63-.64-3.49,.94-4.87Z"/>
      <path class="cls-71" d="M756.2,25.59c-2.04,.11-2.01,1.57-1.97,3.03,.93,1.46,1.37,3.05,1.35,4.78-.06,1.39,.05,2.79-.01,4.18,.05,1.42,.04,2.83-.11,4.25-.38,1.3-.3,3.04-2.47,2.7-.73-5.68,.15-11.41-.48-17.09-.14-.25-.28-.49-.42-.74,.01-.34,.02-.68,.04-1.01,1.35-.56,2.68-1.94,4.08-.09Z"/>
      <path class="cls-71" d="M817.15,103.52c-2-4.33-5.54-7.95-5.99-12.99,2.61,4.05,6.32,7.59,5.99,12.99Z"/>
      <path class="cls-71" d="M802.16,78.54c-3.28-2.26-5.81-5.11-6.99-8.99,3.29,2.25,5.46,5.37,6.99,8.99Z"/>
      <path class="cls-82" d="M299.6,572.12c5.3,.06,10.61,.12,15.91,.19,.32,.51,.24,.94-.25,1.3-.91,.56-1.93,.7-2.97,.77-1.04,.08-2.09,.07-3.14,.07-1.65,.05-3.16-.41-4.56-1.28-1.34,0-2.68-.01-4.01-.02-.33-.34-.66-.69-.99-1.03Z"/>
      <path class="cls-71" d="M771.19,35.58c-2.51-1.79-5.46-3.06-6.99-5.99,3.4,.75,6.1,2.32,6.99,5.99Z"/>
      <path class="cls-71" d="M787.18,58.56c-2.35-2.62-4.26-5.48-5-8.99,2.52,2.53,4.65,5.26,5,8.99Z"/>
      <path class="cls-9" d="M261.62,142.48v10.71c-.54-3.58-2-7.19,0-10.7,0,0,0,0,0,0Z"/>
      <path class="cls-54" d="M260.89,124.44v-9.65c.13,0,.25-.01,.38-.02v9.66c-.13,0-.25,0-.38,.01Z"/>
      <path class="cls-71" d="M810.16,88.53c-1.86-1.24-3.75-2.46-4-5,2.9,.41,4.09,2.19,4,5Z"/>
      <path class="cls-71" d="M782.18,49.57c-2.12-1.48-3.36-3.53-4-5.99,3.74,.39,3.01,3.77,4,5.99Z"/>
      <path class="cls-71" d="M819.15,113.51c-1.5-2.46-1.46-5.3-2-7.99,2.62,2.18,1.89,5.19,2,7.99Z"/>
      <path class="cls-71" d="M764.2,29.58c-2.28-.43-4.33-1.34-5.99-3,2.63-.27,4.79,.4,5.99,3Z"/>
      <path class="cls-71" d="M791.17,64.55c-2.78-.6-2.3-3.15-3-4.99,2.01,1.06,2.65,2.94,3,4.99Z"/>
      <path class="cls-65" d="M283.61,523.17c-1.01,0-2.01-.01-3.02-.02,0-.31,0-.62-.02-.93,1.79-.06,3.71-.95,5.22,.79-.68,.68-1.41,.75-2.18,.15Z"/>
      <path class="cls-13" d="M335.56,610.09h12.99c1.05,1.46,2.62,.86,4,1,4.74-2.19,9.89-1.24,14.71-1.2,23.59,.23,47.17-.17,70.75-.11,22.09,.06,44.18,.26,66.27,.27,43.53,.03,87.05,.12,130.58,.01,31.22-.08,62.44,.15,93.66,0,9.96-.05,19.92,.1,29.88,.03,1.98-.01,4.02-.25,5.8,.98,13.82-1.15,27.64-2.09,40.06-9.45,4.89-2.89,8.37-7.31,12.9-10.53-3.67,7.41-10.36,11.3-17.41,14.61-10.92,5.13-22.8,6.01-34.55,7.31-4.28,.47-8.48-1.09-12.84-1.01-123.57,2.38-247.15,.45-370.73,1.03-7.44,.03-14.97-2.16-22.3-.73-7.63,1.49-14.77-.26-22.09-1.29-.59-.08-1.12-.61-1.67-.93Z"/>
      <path class="cls-63" d="M764.2,611.09H352.55c.18-1.08,.66-1.89,1.88-1.93,1.33-.05,2.66-.06,3.99-.06,133.03,0,266.07,0,399.1,.03,2.34,0,5.14-1.02,6.68,1.96Z"/>
      <path class="cls-13" d="M821.15,584.11c.63,3.45-1.7,5.21-4,6.99-.03-3.11,1.76-5.18,4-6.99Z"/>
      <path class="cls-13" d="M824.15,578.12c.27,2.63-.4,4.79-3,5.99,.03-2.48,.68-4.65,3-5.99Z"/>
      <path class="cls-13" d="M825.14,573.12c.29,1.79,1.08,3.68-1,5,.24-1.68-.67-3.6,1-5Z"/>
      <path class="cls-16" d="M751.19,521.11c-106.56,.02-213.12,.05-319.68,.05-43.95,0-87.91-.06-131.86-.09,1.88-1.66,4.15-.86,6.22-.86,148.11-.05,296.22-.05,444.33-.05,.33-.35,.7-.41,1.11-.16,.27,.41,.21,.77-.13,1.11Z"/>
      <path class="cls-85" d="M751.19,521.11c.03-.31,.04-.63,.02-.94-.92-1.73-.46-3.6-.47-5.39-.02-144.28-.02-288.55,0-432.83,0-1.8-.45-3.66,.45-5.4,.29-.34,.57-.67,.86-1.01,.54,.41,.93,.93,1.16,1.56,.19,.64,.3,1.29,.34,1.95,.16,38.62,.06,77.24,.06,115.86,.02,105.87,.01,211.74-.04,317.61,0,2.89,.92,6.05-1.48,8.57l-.46,.04-.46-.02Z"/>
      <path class="cls-42" d="M751.2,76.55c0,147.87,0,295.74,.01,443.61-.34,0-.67,0-1.01,0,0-145.81,0-291.62,.05-437.43,0-2.06-.84-4.35,.95-6.18Z"/>
      <path class="cls-12" d="M611.36,26.75c29.11-.05,58.22-.13,87.33-.15,17.8-.01,35.6,.06,53.4,.1,0,0,.02-.04,.02-.04,.58,.44,.53,.76-.17,.98-44.94-.01-89.88-.02-134.82-.07-1.93,0-4.02,.68-5.76-.81Z"/>
      <path class="cls-84" d="M752.49,76.38c-.09-.3-.24-.58-.44-.83,.1-9.99,.19-19.98,.29-29.97,.64-.27,1.13-.1,1.48,.5,1.37,3.42,.5,7.01,.78,10.51,.44,2.9-1,5.59-.91,8.45-.04,2.21,.1,4.44-.03,6.65,.06-1.97,.06-3.94,.06-5.91,.04-1.05-.11-2.1,.2-3.13,.66-.63,1.66-.91,2.2-.35,3.42,3.53,7.6,6.69,7.12,12.46-.99,.43-2.05,.24-3.07,.28-1.65-.09-3.32,.2-4.05,.03,1,0,2.91,0,4.84,0,4.03-.88,8.11-1.04,12.21-.92,2.39,.25,5.02-.61,7,1.52l.02,.49c-.58,1.19-1.68,1.59-2.86,1.63-7.43,.27-14.85,.31-22.28-.03-1.02-.05-1.88-.57-2.54-1.38Z"/>
      <path class="cls-47" d="M753.13,45.59c-.26-.01-.53-.02-.79-.02-.13-5.98-.27-11.96-.4-17.95,.12-.32,.17-.64,.17-.98,2.26,5.82,.49,11.91,1.15,17.84,.28,.41,.24,.78-.13,1.11Z"/>
      <path class="cls-65" d="M304.61,573.16c1.66,0,3.32,0,4.98,.01,3.37,2.48,6.06,5.69,9.09,8.53,7.82,7.32,17.11,11.03,27.77,12.05,10.59,1.02,21.25,1.76,31.81,1.38,17.3-.62,34.61-.73,51.87-.26,19.95,.54,39.87-.27,59.81-.02,17.44,.22,34.93-.17,52.39,.08,18.76,.27,37.54,.21,56.28,.04,29.12-.26,58.24-.03,87.36-.26,22.13-.17,44.25,.17,66.38,.06,9.41-.05,19.04,.04,28.1-3.07,14.21-4.88,25.09-13.21,28.85-28.85,3.33-13.86,3.33-27.83,2.64-41.91-.24-4.97-.23-9.92,.51-14.92,1.11-7.58-.68-15.21-.48-22.84,.18-6.79-.08-13.57,.42-20.4,.53-7.2-.37-14.51-.21-21.77,.17-7.6-.64-15.19,.19-22.81,.9-8.23-.29-16.49-.21-24.74,.08-9.24-.19-18.51-.09-27.75,.18-16.19,.64-32.35-.01-48.55-.35-8.52,.8-17.16,.21-25.67-.46-6.63-.31-13.23,.04-19.76,.41-7.77-.83-15.47,0-23.27,.73-6.84,.49-13.85-.08-20.77-.32-3.83-.12-7.62-.03-11.43,.39-15.7,.09-31.42,.07-47.11-.02-15.89,.32-31.84-.77-47.73-.97-14.09-7.03-26.15-15.9-36.82-7.56-9.1-14.45-18.63-20.44-28.81-4.45-7.55-9.68-14.31-17.52-18.66-1.48-.82-2.61-2.05-3.43-3.54,0-1.66,0-3.32,.01-4.98,8.19,4.48,16.01,9.42,21.19,17.51,4.2,6.55,8.28,13.19,12.39,19.8,6.05,9.72,14.55,17.59,20.41,27.51,6.01,10.17,8.78,21.28,8.79,32.71,.21,140.51,.28,281.02-.06,421.53-.04,15.94-4.54,31.15-18.4,41.49-4.91,3.67-10.4,6.1-16.54,7.4-22.28,4.72-44.84,3.48-67.33,3.5-114.71,.09-229.41,.15-344.12-.12-11.84-.03-23.92,0-35.54-2.99-11.99-3.08-21.5-9.95-28.27-20.43-.72-1.11-1.43-2.23-2.15-3.34Z"/>
      <path class="cls-45" d="M788.18,118.51c0-1,0-2-.01-3.01,.33,0,.65-.02,.98-.02,3.56,2.2,3.34,5.92,3.55,9.33,1.02,17.11,1.16,34.23,1.14,51.37-.1,115.68-.07,231.36,0,347.05,0,7.5-1.01,14.93-1.08,22.42-.03,3.59-.69,7.35-4.16,9.66-1.58-.86-.65-2.37-.91-3.57,0-142.45,0-284.9,.02-427.35,0-1.96-.49-3.99,.47-5.89Z"/>
      <path class="cls-11" d="M752.49,76.38c9.23-.07,18.46-.15,27.68-.22,4.82-.42,6.23,1.51,6.22,6.54-.15,160.8-.12,321.59-.07,482.39,0,3.84,.08,6.29-5.31,6.29-159.8-.18-319.59-.16-479.39-.17-.67,0-1.33-.05-2-.07-.04-16.27-.08-32.54-.12-48.81,.69-.01,1.38-.02,2.07-.04,.36,.57,.55,1.2,.57,1.87,.16,12.65-.02,25.3,.09,37.95,.05,5.77,.55,6.22,6.27,6.37,1.33,.03,2.66,.01,4,.01,153.65,0,307.31,0,460.96,0q10.06,0,10.07-10.11c0-156.48,0-312.97,0-469.45q0-9.74-9.88-9.74c-4.33,0-8.66,.02-12.98,.02-3.35,0-4.86,1.55-4.8,4.86,.03,2-.03,3.99-.03,5.99,0,139.84,0,279.67,0,419.51,0,2.5,.17,5.01-.15,7.48-.22,1.71-.01,3.84-2.54,4.22-.83-1.92-.4-3.95-.4-5.92-.02-143.95-.02-287.9-.04-431.85,0-1.98,.33-3.99-.32-5.94,.04-.4,.08-.8,.11-1.2Z"/>
      <path class="cls-77" d="M788.17,552.15c0,.99,.01,1.98,.02,2.98,2.33,2.93,1.14,6.35,1.34,9.57,.07,.79-.25,1.61,.22,2.47,2.7-1.45,3.53-4.57,5.77-6.4,1.54-.03,2.11-5.22,4.51-.85-.86,10.21-13.67,21.3-24.97,23.63-10.62,2.19-21.38,3-32.15,3-123.68,.08-247.36,.12-371.04-.08-10.05-.02-20.26-.15-30.14-2.88-4.7-1.3-8.96-3.5-13.04-6.09-1.27-.81-2.44-1.77-2.58-3.47,.05-.72,.43-1.17,1.14-1.34,1.29-.04,2.58-.21,3.83,.27,6.88,3.36,14.02,5.82,21.64,6.97,1.96,.3,3.89,.71,5.89,.71,107.04,.14,214.09,.02,321.13,.05,26.25,.04,52.5,.26,78.75-.14,8.98-.14,17.67-2.37,25.46-7.21,.99-.62,2.26-.51,3.23-1.21,.02-6.66,.05-13.31,.07-19.97,.3-.47,.61-.48,.93-.02Z"/>
      <path class="cls-44" d="M787.17,572.14c-.44,.8-1.2,.98-2.02,1.02-1.62,.96-3.34,1.53-5.25,1.39-3.11-.18-6.23,.3-9.34,.03-69.86,.32-139.72,.15-209.58,.18-58.04,.02-116.08,0-174.13,0-11.64,0-23.28-.28-34.93-.24-1.82,0-3.67,.14-5.4-.66-.61-.36-.96-.9-1.04-1.6,1.83-.04,3.66-.11,5.49-.11,145.4,0,290.81-.01,436.21-.02Z"/>
      <path class="cls-50" d="M788.17,552.15c-.31,0-.62,0-.94,.02-.02-58.76-.05-117.52-.06-176.28,0-83.73,0-167.46,.04-251.19,0-2.06-.84-4.36,.96-6.18,0,144.55,0,289.09,0,433.64Z"/>
      <path class="cls-60" d="M345.47,572.26c.04,.28,.06,.56,.06,.84-.21,.2-.41,.4-.62,.61-2.73,1.31-5.66,.55-8.49,.82-1.98-.29-3.97-.58-5.83-1.37l-3.07-.08c-.28-.15-.38-.32-.31-.5,.08-.19,.16-.28,.25-.28,6-.01,12.01-.03,18.01-.04Z"/>
      <path class="cls-73" d="M787.33,89.46c-.05-4.64-.09-9.29-.14-13.93,.25-.02,.51-.04,.76-.07,1.25,.8,1.32,2.1,1.46,3.38,.07,1.51,.06,3.02,.07,4.53-.04,1.51,.01,3.02-.25,4.52-.11,.51-.31,.97-.6,1.4-.39,.46-.82,.51-1.31,.17Z"/>
      <path class="cls-75" d="M788.17,115.5c-2-4.58-.57-9.38-.87-14.07,.62-.21,1.11-.03,1.46,.52,.45,.77,.66,1.61,.72,2.49-.25,3.71,1.24,7.63-1.29,11.07v-.02Z"/>
      <path class="cls-30" d="M780.16,75.66l-6.91-.21c-.36-.49-.3-.94,.16-1.34,.67-.45,1.41-.66,2.2-.76,1.56-.15,3.13-.12,4.7-.14,1.34-.06,2.68-.02,4.02,.08,1.27,.35,2.92,.22,2.86,2.25,0,0,.01-.01,.01-.01-2.34,.04-4.69,.08-7.03,.13Z"/>
      <path class="cls-69" d="M788.15,101.5c-.29,0-.57-.01-.85-.06,0-3.99,.02-7.98,.03-11.97,.27,.04,.55,.06,.83,.05,.97,.78,1.19,1.89,1.33,3.04,.02,1.97,.15,3.94,.02,5.91-.13,1.15-.37,2.26-1.35,3.04Z"/>
      <path class="cls-20" d="M327.46,572.31c.06,.26,.08,.52,.06,.78-.32,0-.64,.02-.95,.04-1.35,1.26-3.03,1.32-4.73,1.36-1.39,.05-2.78-.03-4.17-.2-.85-.17-1.61-.48-2.13-1.22,0-.26,0-.52-.02-.77,3.98,0,7.96,0,11.94,0Z"/>
      <path class="cls-49" d="M301.59,523.16c0-.29,0-.59,0-.88,42.96-.04,85.92-.11,128.88-.11,105.41-.02,210.81,0,316.22,0,1.83,0,3.66-.06,5.49-.1-.01,.33-.03,.67-.04,1-1.36,1.54-3.23,1.57-5.05,1.68-1.83,.11-3.66,.06-5.49,.06-143.31,0-286.62,0-429.93-.04-3.4,0-7.05,.92-10.08-1.61Z"/>
      <path class="cls-81" d="M752.38,77.57c1.52,1.93,.79,4.18,.79,6.27,.04,145.77,.04,291.55,.04,437.32,.23,.92-.14,1.25-1.04,1.05,0,0,.01-.15,.01-.15,0-.33-.03-.65-.08-.97,.04-57.61,.09-115.21,.1-172.82,.02-88.41,0-176.82,0-265.22,0-1.83,.11-3.66,.17-5.48Z"/>
      <path class="cls-15" d="M283.61,523.17c.73-.05,1.46-.1,2.18-.15,3.49-1.4,7.12-1.11,10.74-.82-1.25,1.53-1.36,7.24-.13,9.78,.49,1.02,.44,2.24,1.18,3.16v7.87c-4.09-4.51-8.39-7.86-10.36-12.9-.98-2.5-5-3.34-3.62-6.95Z"/>
      <path class="cls-28" d="M297.58,535.14c-1.94-2.44-3.88-4.88-5.81-7.34-.91-1.15-2.27-2.4-1.55-3.89,.65-1.35,2.38-.62,3.64-.73,.99-.09,2-.02,2.66-.98,.36,0,.73-.02,1.1-.03,0,3.33-.02,6.66-.03,9.99,0,.99-.01,1.98-.02,2.98Z"/>
      <path class="cls-69" d="M787.18,75.55c-.72-1.17-1.91-.98-3.02-1.04-4.2-3.87-6.56-9.11-9.48-13.79-5.58-8.94-11.57-17.25-20.47-23.13,0-1.33,0-2.66,0-3.99,9.54,4.74,16.6,11.79,21.93,21.15,5.85,10.27,13.05,19.69,20.43,29,6.27,7.92,12.14,16.15,14.36,26.73,1.91,9.08,2.3,18,2.28,27.13-.02,10.16,.55,20.34,.56,30.47,.02,8.07-.67,16.33-.34,24.35,.61,14.7-.55,29.39,.58,44.09,.58,7.6-1.26,15.28-.42,22.97,1.11,10.08-.54,20.15,.12,30.3,.52,7.98,.22,16.2-.35,24.33-.52,7.39,.6,14.89,.59,22.33,0,7.17,.15,14.35-.47,21.53-.49,5.66-1.01,11.52-.07,17.05,1.11,6.56-.02,13.03,.12,19.47,.17,7.41,1.22,14.91,.26,22.43-1.27,10.02-.09,20.12-.21,30.19-.11,9.33-.16,18.67-.29,28-.08,6.07,.1,12.13,.51,18.19,.35,5.25,.45,10.48-.44,15.81-.97,5.85,.42,11.89,.59,17.83,.24,8.52-.71,17.08-1.28,25.61-.95,14.2-6.51,25.87-18.51,34.18-9.73,6.74-20.64,8.21-32.12,9.05-10.24,.76-20.49-.85-30.69,.95-2.66,.47-5.56-.62-8.35-.62-38.77-.05-77.53-.03-116.3-.03-11.66,0-23.33-.34-34.97,.1-11.28,.42-22.62,.73-33.83,.41-11.95-.34-23.91-.2-35.86-.46-10.24-.23-20.52-.53-30.73,.06-18.84,1.09-37.63-.6-56.45-.15-10.07,.24-20.19-.49-30.23,.17-13.86,.92-27.61-.18-41.33-1.32-9.12-.76-17.6-4.58-24.36-11.03-3.41-3.25-7.65-5.93-9.39-10.7,1,0,2.01,0,3.01,0,3.34,1.6,6,3.99,8.62,6.63,5.42,5.46,12.44,8.19,19.82,9.77,13.76,2.95,27.76,2.12,41.7,2.12,120.52,.02,241.04-.02,361.56,.06,10.82,0,21.77,.4,32.19-2.37,12.98-3.46,23.51-9.87,28.6-24.14,4.12-11.56,4.32-23.24,4.35-34.78,.37-129.51,.29-259.02,.13-388.53-.01-10.57-.38-21.34-3.17-31.6-2.36-8.67-7.01-16.49-12.8-23.43-2.16-2.59-4.01-5.27-5.37-8.32-.07-1.11,.12-2.3-1.05-3.03Z"/>
      <path class="cls-15" d="M780.17,74.52c-1.66,0-3.32,.01-4.99,.02-3.03-1.48-4.34-4.37-5.88-7.09-3.01-5.33-6.71-10.14-10.96-14.54-2.8-2.91-2.92-.73-3.02,1.55-.09,.74-.32,1.42-.77,2.02-.42,.35-.85,.35-1.29,.05-.04-3.65-.09-7.29-.13-10.94,.04-.37,.09-.74,.13-1.11,1.15-.7,.87-1.86,.94-2.91,1.85-1.33,3.08,.18,4.4,1.03,3.53,2.28,6.18,5.43,8.78,8.68,4.79,5.97,8.38,12.69,12.4,19.14,.77,1.23,1.61,2.62,.38,4.1Z"/>
      <path class="cls-61" d="M780.17,74.52c-6.16-12.2-12.69-24.11-24.11-32.39-.5-.36-1.23-.38-1.86-.56,0-1.33,0-2.66,.01-3.99,3.51-.01,5.94,2.19,7.91,4.54,4.83,5.76,9.94,11.19,13.55,18.1,2.5,4.81,6.21,9.17,8.49,14.28-1.33,0-2.66,0-3.99,.01Z"/>
      <path class="cls-48" d="M788.23,78.58c6.65,7.4,12.77,14.89,16.68,24.48,3.79,9.29,4.83,18.51,5.34,28.23,2.02,38.42,.71,76.85,.82,115.27,.26,92.41,.05,184.83,.13,277.24,0,10.47,.28,21.25-1.6,31.24-2.11,11.24-5.5,23.71-17.54,29.56-6.17,2.99-12.4,5.7-19.63,6.82-23.01,3.58-46.04,1.47-69.02,1.54-115.89,.34-231.78,.23-347.67,.04-11.37-.02-22.64-2.39-32.22-9.07-4.13-2.88-7.31-7.12-10.92-10.74,.98-.03,1.96-.07,2.94-.1,.68,.03,1.37,.07,2.05,.1,2.32,1.3,4.38,2.88,6.32,4.77,5.18,5.05,11.89,7.39,18.71,8.74,8.74,1.73,17.7,2.84,26.6,2.85,126.13,.12,252.27,.1,378.4,.02,5.44,0,10.91-.65,16.3-1.64,7.89-.25,15.54-1.62,22.43-5.65,10.76-6.28,16.37-15.95,18.37-28.1,3.65-22.16,1.81-44.47,1.85-66.69,.21-117.53,.17-235.07-.03-352.6-.02-10.39-1.14-20.91-5.71-30.59-2.55-5.42-6.12-10.24-9.6-15.07-1.29-1.8-2.2-3.66-3.04-5.64,0-1.66,.01-3.33,.02-4.99Z"/>
      <path class="cls-47" d="M754.2,56.56c0-.66,0-1.32,.01-1.99,1.22-.99,2.13-.26,2.97,.58,4.78,4.79,7.68,10.93,11.65,16.3,1.05,1.42,.74,2.8-1.08,3.54-1.53-.11-3.13,.48-4.57-.46-2.27-4.54-4.22-9.32-8.99-11.98-.76-2-.76-4,0-6Z"/>
      <path class="cls-15" d="M763.19,74.53c1.66,0,3.32,0,4.99-.01,1.69-.97,3.38-1.57,5.04,.05-.01,.3,0,.59,.03,.89-4.33,0-8.66,.01-12.99,.02-.36-.19-.49-.39-.38-.59,.11-.21,.22-.32,.34-.32,.99,0,1.98-.02,2.97-.03Z"/>
      <path class="cls-18" d="M754.2,56.56v6c0,1,0,1.99,0,2.99-.33,.47-.64,.46-.93-.03,0-2.99,0-5.99,0-8.98,.31,.02,.63,.03,.94,.02Z"/>
      <path class="cls-47" d="M753.26,65.51c.31,.03,.62,.04,.93,.03,0,2.27,0,4.55,0,6.82-.31,0-.62,.02-.93,.02v-6.88Z"/>
      <path class="cls-47" d="M760.22,74.56c-.01,.31,0,.61,.04,.92-1.96,0-3.91,0-5.87,0-.01-.31-.02-.61-.04-.92h5.86Z"/>
      <path class="cls-46" d="M788.18,115.52c0-3.99,0-7.98,.01-11.97,3.1,.28,3.77,3.01,4.87,5.11,3.87,7.39,4.32,15.65,5.05,23.68,.37,4.04,.61,8.21,.61,12.35-.08,127.49-.05,254.98-.11,382.47,0,10.77-.56,21.58-4.23,31.87-1.07,3.01-2.21,6.4-6.18,7.07,0-3.66,0-7.32-.01-10.97,2.65-4.69,3.73-9.63,3.06-15.07-.51-4.11,1-8.15,1-12.34-.1-117.49-.08-234.97-.08-352.46,0-10.79,.57-21.62-.19-32.35-.57-8.06,0-16.23-1.74-24.22-.31-1.4-.7-2.54-2.06-3.16Z"/>
      <path class="cls-68" d="M752.17,522.22c.35-.35,.69-.7,1.04-1.05,1.79-1.83,.95-4.12,.95-6.18,.04-143.52,.04-287.04,.04-430.56q0-6.87,7.08-6.88c6.49,0,12.99,.18,19.48-.07,3.59-.14,4.86,1.22,4.43,4.62-.1,.82-.02,1.66-.02,2.5,0,159.5,0,319.01,0,478.51q0,7.02-6.93,7.02c-157.01,0-314.01,0-471.02,0q-6.64,0-6.64-6.82c0-11.65-.03-23.31,.03-34.96,0-1.75-.66-3.71,.97-5.18,148.29,0,296.59,0,444.88-.03,1.91,0,4.02,.75,5.7-.91Z"/>
      <path class="cls-75" d="M321.59,573.16c1.66,0,3.32-.02,4.98-.03,3.31,5.24,9.15,6.62,14.29,8.7,3.88,1.57,8.26,2.24,12.64,2.32,131.17,2.25,262.35,.42,393.53,.82,11.47,.03,23.37-.11,34.11-5.08,9.23-4.27,16.38-10.89,18.04-21.74-1.3-2.1-.53-4.38,.08-6.27,1.59-4.88,1.5-9.82,1.5-14.8,0-132.11-.02-264.22,.04-396.33,0-12.36-.71-24.5-5.9-36-1.92-4.25-5.42-7.6-6.68-12.19-.02-1.01-.04-2.03-.06-3.04,0-.32,.02-.65,.04-.97,2.48-.47,3.55,1.38,4.76,2.93,7.44,9.56,11.47,20.37,12.78,32.44,.98,8.97,.9,17.91,.9,26.87,.02,128.5,.05,257-.07,385.5,0,9.61-.96,19.31-4.74,28.31-6.2,14.72-18.29,21.2-33.49,23.02-5.1,.61-10.26,.65-15.34,1.55-2.12,.65-4.29,.43-6.45,.43-125.28,.01-250.55,.12-375.83-.15-13.3-.03-26.92-.53-39.35-6.65-4.28-2.11-8.79-4.12-9.78-9.63Z"/>
      <path class="cls-57" d="M788.2,566.1c7.16-7.89,7.89-17.65,8.02-27.57,.04-3.15,1.01-6.15,1.01-9.36-.08-128.86-.06-257.73-.08-386.59,0-10.33-1.11-20.56-4.15-30.45-.94-3.06-3.17-5.73-4.81-8.58-.01-.68-.03-1.36-.05-2.05,.01-.99,.02-1.98,.03-2.96,3.52-.1,4.74,2.73,6.11,5.09,4.61,7.98,6.25,17.05,6.32,25.86,1.09,134.64,.32,269.29,.55,403.93,0,5.5-.23,10.97-1.57,16.32-.64,1.78-1.11,3.61-1.37,5.48-.65,1.98-.57,4.22-2.06,5.92-1.16,2.49-3.01,4.48-4.75,6.56-.76,.91-1.58,2.1-2.68,1.55-1.07-.53-.45-2.06-.54-3.15Z"/>
      <path class="cls-77" d="M798.17,551.14c3.57-20.29,1.89-40.76,1.92-61.14,.16-115.32,.16-230.64-.05-345.97-.02-11.77-.82-23.67-4.79-35.03-1.45-4.15-3.63-7.71-7.07-10.48,0-1.99,.02-3.99,.02-5.98,6.85,7.14,10.04,15.74,12.24,25.39,2.88,12.6,1.59,25.12,1.6,37.64,.18,128.45,.09,256.9,.18,385.36,0,6-1.65,11.54-3.07,17.2-1.61,.39-.72,3.27-3,3,.84-1.56-.38-3.54,1-5,1.23-1.49-.18-3.5,1-5Z"/>
      <path class="cls-78" d="M330.59,573.16c1.99,0,3.99-.01,5.98-.02,13.84,4.8,28.24,5.45,42.67,5.46,85.46,.02,170.92,.03,256.38,.04,2.82,0,5.66-.22,8.46,.3,8.32,1.65,16.73,.4,25.09,.76,2.46,.11,4.94-.11,7.4,.11,1.56,.14,3.43,0,3.69,2.31-107.19,0-214.38,.1-321.57-.16-9.92-.02-19.94-2.03-28.11-8.79Z"/>
      <path class="cls-57" d="M680.27,582.12c-1.46-1.62-3.39-.96-5.13-.97-8.57-.07-17.14,0-25.71-.06-1.73-.01-3.67,.65-5.13-.97,2.22-2.1,5-1.45,7.59-1.46,31.37-.08,62.74,.17,94.11-.15,11.6-.12,23.14-1.24,34.16-5.36,1.66,0,3.33,0,4.99,0-4.19,5.84-11.03,6.95-17.04,7.57-29.21,3.04-58.56,.74-87.84,1.39Z"/>
      <path class="cls-84" d="M345.53,573.1c138.54,0,277.09,.02,415.63,.03,3.33,0,6.66,.02,9.99,.03-.76,3.44-3.54,3.38-6.19,3.6-38.21,3.15-76.49,1.65-114.75,1.8-33.95,.13-67.91-.01-101.86-.09-29.78-.06-59.57,.15-89.36,.08-22.12-.05-44.23,.03-66.34,.18-14.01,.09-27.89-1.63-41.84-2.19-2.23-.09-4.83-.22-5.27-3.39l-.03-.03Z"/>
      <path class="cls-38" d="M345.56,573.13c1.28,1.53,2.99,1.85,4.88,2.01,28.29,2.37,56.66,2.41,84.99,1.72,6.11-.15,12.15,.27,18.22,.27,27.86-.03,55.72-.01,83.59-.01,65.82,0,131.65-.03,197.47,.03,10.58,.01,20.97-3.02,31.63-1.79,1.67,.19,3.6-.62,4.82-2.21,3,0,6,0,8.99,0-3.83,3.04-8.17,4.51-13.06,5.01-40.88,4.2-81.87,.88-122.8,1.95-91.45,0-182.89,.09-274.34-.12-10.03-.02-20.24-.52-29.79-4.52-1.37-.57-2.96-.68-3.59-2.33,3,0,5.99,0,8.99-.01Z"/>
      <path class="cls-66" d="M753.21,588.11c4.66-2.03,9.72-1.26,14.55-1.83,17.18-2.02,30.95-10.98,34.78-28.61,1.62-7.48,2.62-14.97,2.62-22.6,0-133.45,.07-266.9-.1-400.35-.02-15.06-2.98-29.63-12.73-41.97-1.25-1.58-2.36-3.19-4.15-4.2,0-1.66,.02-3.32,.02-4.98,7.69,8.87,15.03,18.09,17.27,29.92,1.31,6.94,2.7,13.95,2.7,21.12-.03,134.71,.11,269.43-.28,404.14-.03,10.91-1.29,22.18-7.77,32.22-8.62,13.35-20.98,17.99-35.93,18.14-3.05,.05-6.06,.79-9.12,.48-.97-.1-2.02-.01-1.87-1.48Z"/>
      <path class="cls-18" d="M773.22,74.57c-1.68-.01-3.36-.03-5.04-.04,.12-.31,.45-.76,.35-.9-4.65-6.44-7.56-14.19-14.31-19.05,0-.99-.05-1.98,.01-2.97,.06-.93-.32-2.17,.93-2.53,1.11-.32,1.73,.73,2.42,1.39,5,4.76,9.32,10.05,12.66,16.13,1.5,2.73,3.29,5.31,4.95,7.95-.65,0-1.31,.02-1.96,.02Z"/>
      <path class="cls-86" d="M753.21,588.11c2.35,1.82,4.97,1.03,7.47,.63,1.27-.2,2.46-1.04,3.52,.37-5.28,1.57-10.81,1.88-16.17,1.88-126.51,.15-253.01,.24-379.52-.08-13.17-.03-26.67-1.06-38.99-7-4.97-2.39-8.77-6.26-11.93-10.74,1.33,0,2.67-.01,4-.02,7.76,9.1,18.06,11.82,29.54,13.28,20.52,2.62,41.04,1.57,61.56,1.6,113.51,.16,227.01,.07,340.52,.07Z"/>
      <path class="cls-77" d="M798.17,551.14c-.24,1.68,.67,3.6-1,5,.24-1.68-.66-3.6,1-5Z"/>
    </g>
  </g>
</svg>