<svg width="20" height="21" viewBox="0 0 20 21" fill="none" xmlns="http://www.w3.org/2000/svg">
<g id="fluent-mdl2:account-activity" clip-path="url(#clip0_3841_4473)">
<path id="Vector" d="M17.5 2.60803V20.108H2.5V2.60803H7.5C7.5 2.26298 7.5651 1.94071 7.69531 1.64124C7.82552 1.34176 8.00456 1.07483 8.23242 0.840454C8.46029 0.606079 8.72396 0.427043 9.02344 0.303345C9.32292 0.179647 9.64844 0.114543 10 0.108032C10.3451 0.108032 10.6673 0.173136 10.9668 0.303345C11.2663 0.433553 11.5332 0.61259 11.7676 0.840454C12.002 1.06832 12.181 1.33199 12.3047 1.63147C12.4284 1.93095 12.4935 2.25647 12.5 2.60803H17.5ZM6.25 3.85803V5.10803H13.75V3.85803H11.25V2.60803C11.25 2.43225 11.2174 2.26949 11.1523 2.11975C11.0872 1.97001 10.9993 1.8398 10.8887 1.72913C10.778 1.61845 10.6445 1.5273 10.4883 1.45569C10.332 1.38407 10.1693 1.35152 10 1.35803C9.82422 1.35803 9.66146 1.39058 9.51172 1.45569C9.36198 1.52079 9.23177 1.60868 9.12109 1.71936C9.01042 1.83004 8.91927 1.9635 8.84766 2.11975C8.77604 2.276 8.74349 2.43876 8.75 2.60803V3.85803H6.25ZM16.25 3.85803H15V6.35803H5V3.85803H3.75V18.858H16.25V3.85803ZM12.2949 7.12952C12.5684 7.12952 12.8223 7.17834 13.0566 7.276C13.291 7.37366 13.4993 7.51038 13.6816 7.68616C13.8639 7.86194 14.0007 8.06702 14.0918 8.30139C14.1829 8.53577 14.235 8.78967 14.248 9.06311C14.248 9.31702 14.1992 9.56441 14.1016 9.8053C14.0039 10.0462 13.8639 10.2578 13.6816 10.4401L8.54492 15.6256L5.04883 16.2897L5.78125 12.8619L10.918 7.68616C11.1003 7.50387 11.3118 7.36715 11.5527 7.276C11.7936 7.18485 12.041 7.13603 12.2949 7.12952ZM12.793 9.56116C12.9297 9.41142 12.998 9.2454 12.998 9.06311C12.998 8.86129 12.9329 8.69853 12.8027 8.57483C12.6725 8.45113 12.5033 8.38603 12.2949 8.37952C12.2038 8.37952 12.1159 8.39254 12.0312 8.41858C11.9466 8.44462 11.8717 8.49345 11.8066 8.56506L6.93359 13.4772L6.66992 14.7076L7.92969 14.4635L12.793 9.56116Z" fill="#001B69"/>
</g>
<defs>
<clipPath id="clip0_3841_4473">
<rect width="20" height="20" fill="white" transform="translate(0 0.108032)"/>
</clipPath>
</defs>
</svg>
