<svg width="14" height="13" viewBox="0 0 14 13" fill="none" xmlns="http://www.w3.org/2000/svg">
<path d="M7.56905 2.55113C7.56905 2.23677 7.31421 1.98193 6.99985 1.98193C6.68549 1.98193 6.43066 2.23677 6.43066 2.55113V5.96628H3.01549C2.70113 5.96628 2.44629 6.22112 2.44629 6.53548C2.44629 6.84984 2.70113 7.10468 3.01549 7.10468H6.43066L6.43066 10.5199C6.43066 10.8342 6.6855 11.089 6.99986 11.089C7.31422 11.089 7.56906 10.8342 7.56906 10.5199L7.56905 7.10468H10.9842C11.2986 7.10468 11.5534 6.84984 11.5534 6.53548C11.5534 6.22112 11.2986 5.96628 10.9842 5.96628H7.56905V2.55113Z" fill="#868FA0"/>
</svg>
