<svg width="24" height="24" viewBox="0 0 24 24" fill="none" xmlns="http://www.w3.org/2000/svg">
<path d="M7.23 16.5H8.23V10.5H7.23V16.5ZM11 16.5H12V7.5H11V16.5ZM14.77 16.5H15.77V13.5H14.77V16.5ZM17.5 8V6H15.5V5H17.5V3H18.5V5H20.5V6H18.5V8H17.5ZM5.115 20C4.655 20 4.271 19.846 3.963 19.538C3.65433 19.2293 3.5 18.845 3.5 18.385V5.615C3.5 5.155 3.65433 4.771 3.963 4.463C4.271 4.15433 4.655 4 5.115 4H14.423V7.462C14.423 7.906 14.5813 8.286 14.898 8.602C15.214 8.91867 15.594 9.077 16.038 9.077H19.5V18.385C19.5 18.845 19.346 19.229 19.038 19.537C18.7293 19.8457 18.345 20 17.885 20H5.115Z" fill="black"/>
</svg>
