<svg width="34" height="34" viewBox="0 0 34 34" fill="none" xmlns="http://www.w3.org/2000/svg">
<g id="mdi:folder-add">
<path id="Vector" d="M18.4163 26.9166C18.4163 27.3983 18.473 27.8658 18.5438 28.3333H5.66634C4.91489 28.3333 4.19422 28.0348 3.66287 27.5034C3.13152 26.9721 2.83301 26.2514 2.83301 25.5V8.49996C2.83301 6.92746 4.09384 5.66663 5.66634 5.66663H14.1663L16.9997 8.49996H28.333C29.0845 8.49996 29.8051 8.79847 30.3365 9.32982C30.8678 9.86118 31.1663 10.5818 31.1663 11.3333V19.5641C29.9197 18.8416 28.4747 18.4166 26.9163 18.4166C22.2272 18.4166 18.4163 22.2275 18.4163 26.9166ZM28.333 25.5V21.25H25.4997V25.5H21.2497V28.3333H25.4997V32.5833H28.333V28.3333H32.583V25.5H28.333Z" fill="#001B69"/>
</g>
</svg>
