<svg width="34" height="34" viewBox="0 0 34 34" fill="none" xmlns="http://www.w3.org/2000/svg">
<g id="material-symbols:box-add-sharp">
<path id="Vector" d="M4.25 29.75V8.21667L7.50833 4.25H26.4917L29.75 8.21667V16.1854C29.3014 16.0201 28.841 15.8841 28.3688 15.7774C27.8965 15.6707 27.4125 15.6183 26.9167 15.6202C26.1375 15.6202 25.3881 15.7089 24.6684 15.8865C23.9488 16.0641 23.2815 16.3408 22.6667 16.7167V11.3333H11.3333V22.6667L17 19.8333L19.0542 20.8604C18.8653 21.3563 18.7118 21.87 18.5938 22.4017C18.4757 22.9335 18.4167 23.4817 18.4167 24.0465C18.4167 25.109 18.6056 26.1304 18.9833 27.1107C19.3611 28.0911 19.9042 28.9708 20.6125 29.75H4.25ZM25.5 29.75V25.5H21.25V22.6667H25.5V18.4167H28.3333V22.6667H32.5833V25.5H28.3333V29.75H25.5ZM7.65 8.5H26.35L25.1458 7.08333H8.85417L7.65 8.5Z" fill="#001B69"/>
</g>
</svg>
