<svg width="41" height="40" viewBox="0 0 41 40" fill="none" xmlns="http://www.w3.org/2000/svg">
<g id="ant-design:delivered-procedure-outlined">
<path id="Vector" d="M25.1875 27.2773L30.7305 22.9023C30.8906 22.7773 30.8906 22.5352 30.7305 22.4102L25.1875 18.0352C24.9805 17.8711 24.6797 18.0195 24.6797 18.2812V21.25H12.0234C11.8516 21.25 11.7109 21.3906 11.7109 21.5625V23.75C11.7109 23.9219 11.8516 24.0625 12.0234 24.0625H24.6797V27.0312C24.6797 27.293 24.9844 27.4375 25.1875 27.2773ZM35.3945 11.457L29.043 5.10547C28.75 4.8125 28.3906 4.59766 28 4.48047V4.375H6.125C5.43359 4.375 4.875 4.93359 4.875 5.625V16.4844C4.875 16.6562 5.01562 16.7969 5.1875 16.7969H7.375C7.54688 16.7969 7.6875 16.6562 7.6875 16.4844V7.1875H13V12.5C13 13.1914 13.5586 13.75 14.25 13.75H26.75C27.4414 13.75 28 13.1914 28 12.5V8.03906L33.3125 13.3516V16.4844C33.3125 16.6562 33.4531 16.7969 33.625 16.7969H35.8125C35.9844 16.7969 36.125 16.6562 36.125 16.4844V13.2227C36.125 12.5586 35.8633 11.9258 35.3945 11.457ZM25.5 11.25H15.5V7.1875H25.5V11.25ZM35.8125 28.2812H33.625C33.4531 28.2812 33.3125 28.4219 33.3125 28.5938V32.8125H7.6875V28.5938C7.6875 28.4219 7.54688 28.2812 7.375 28.2812H5.1875C5.01562 28.2812 4.875 28.4219 4.875 28.5938V34.375C4.875 35.0664 5.43359 35.625 6.125 35.625H34.875C35.5664 35.625 36.125 35.0664 36.125 34.375V28.5938C36.125 28.4219 35.9844 28.2812 35.8125 28.2812Z" fill="white"/>
</g>
</svg>
