<svg xmlns="http://www.w3.org/2000/svg" width="23" height="22" viewBox="0 0 23 22" fill="#203881">
  <path d="M19.4292 5.77313L18.0792 3.07313C18.0231 2.96099 17.9368 2.86669 17.8301 2.80082C17.7234 2.73495 17.6004 2.70011 17.475 2.7002H5.32505C5.19965 2.70011 5.0767 2.73495 4.96999 2.80082C4.86329 2.86669 4.77704 2.96099 4.72092 3.07313L3.37092 5.77313C3.3244 5.86703 3.30014 5.9704 3.30005 6.0752V17.5502C3.30005 17.9082 3.44228 18.2516 3.69545 18.5048C3.94863 18.758 4.29201 18.9002 4.65005 18.9002H18.15C18.5081 18.9002 18.8515 18.758 19.1046 18.5048C19.3578 18.2516 19.5 17.9082 19.5 17.5502V6.0752C19.5 5.9704 19.4757 5.86703 19.4292 5.77313ZM5.74186 4.0502H17.0582L17.7332 5.4002H5.06686L5.74186 4.0502ZM18.15 17.5502H4.65005V6.7502H18.15V17.5502ZM14.5776 12.3476C14.6404 12.4103 14.6902 12.4848 14.7241 12.5667C14.7581 12.6487 14.7756 12.7365 14.7756 12.8252C14.7756 12.9139 14.7581 13.0017 14.7241 13.0837C14.6902 13.1656 14.6404 13.2401 14.5776 13.3028L11.8776 16.0028C11.8149 16.0655 11.7405 16.1153 11.6585 16.1493C11.5766 16.1832 11.4888 16.2007 11.4 16.2007C11.3113 16.2007 11.2235 16.1832 11.1416 16.1493C11.0596 16.1153 10.9852 16.0655 10.9225 16.0028L8.22249 13.3028C8.09583 13.1761 8.02467 13.0043 8.02467 12.8252C8.02467 12.6461 8.09583 12.4743 8.22249 12.3476C8.34914 12.221 8.52093 12.1498 8.70005 12.1498C8.87917 12.1498 9.05095 12.221 9.17761 12.3476L10.725 13.8959V8.7752C10.725 8.59617 10.7962 8.42449 10.9228 8.2979C11.0493 8.17131 11.221 8.10019 11.4 8.10019C11.5791 8.10019 11.7508 8.17131 11.8773 8.2979C12.0039 8.42449 12.075 8.59617 12.075 8.7752V13.8959L13.6225 12.3476C13.6852 12.2849 13.7596 12.2351 13.8416 12.2011C13.9235 12.1671 14.0113 12.1497 14.1 12.1497C14.1888 12.1497 14.2766 12.1671 14.3585 12.2011C14.4405 12.2351 14.5149 12.2849 14.5776 12.3476Z" fill="black"/>
</svg>