<svg width="24" height="22" viewBox="0 0 24 22" fill="none" xmlns="http://www.w3.org/2000/svg">
<path d="M12 16.2002L16 12.6002L14.6 11.3402L13 12.7802V9.0002H11V12.7802L9.4 11.3402L8 12.6002L12 16.2002ZM5 18.9002C4.45 18.9002 3.97933 18.7241 3.588 18.3719C3.19667 18.0197 3.00067 17.5958 3 17.1002V5.8727C3 5.6627 3.03767 5.4602 3.113 5.2652C3.18833 5.0702 3.30067 4.8902 3.45 4.7252L4.7 3.3527C4.88333 3.1427 5.11233 2.9813 5.387 2.8685C5.66167 2.7557 5.94933 2.6996 6.25 2.7002H17.75C18.05 2.7002 18.3377 2.7566 18.613 2.8694C18.8883 2.9822 19.1173 3.1433 19.3 3.3527L20.55 4.7252C20.7 4.8902 20.8127 5.0702 20.888 5.2652C20.9633 5.4602 21.0007 5.6627 21 5.8727V17.1002C21 17.5952 20.8043 18.0191 20.413 18.3719C20.0217 18.7247 19.5507 18.9008 19 18.9002H5ZM5.4 5.4002H18.6L17.75 4.5002H6.25L5.4 5.4002Z" fill="#001B69"/>
</svg>
