<svg width="20" height="21" viewBox="0 0 20 21" fill="none" xmlns="http://www.w3.org/2000/svg">
<g id="pajamas:assignee">
<path id="Vector" fill-rule="evenodd" clip-rule="evenodd" d="M5 8.90654C5.49728 8.90654 5.97419 8.70899 6.32583 8.35736C6.67746 8.00573 6.875 7.52882 6.875 7.03154C6.875 6.53425 6.67746 6.05734 6.32583 5.70571C5.97419 5.35408 5.49728 5.15654 5 5.15654C4.50272 5.15654 4.02581 5.35408 3.67417 5.70571C3.32254 6.05734 3.125 6.53425 3.125 7.03154C3.125 7.52882 3.32254 8.00573 3.67417 8.35736C4.02581 8.70899 4.50272 8.90654 5 8.90654ZM8.75 7.03154C8.75149 8.02121 8.3604 8.97108 7.6625 9.67279C8.37865 10.1229 8.9688 10.7475 9.37764 11.488C9.78648 12.2285 10.0006 13.0607 10 13.9065V15.7815C10 16.4446 9.73661 17.0805 9.26777 17.5493C8.79893 18.0181 8.16304 18.2815 7.5 18.2815H2.5C1.83696 18.2815 1.20107 18.0181 0.732233 17.5493C0.263392 17.0805 0 16.4446 0 15.7815V13.9065C0 12.1228 0.93375 10.5578 2.3375 9.67279C1.9037 9.23541 1.58432 8.6979 1.40761 8.10777C1.23089 7.51765 1.20228 6.89307 1.3243 6.28925C1.44631 5.68544 1.7152 5.12098 2.1072 4.64578C2.49919 4.17057 3.00222 3.79925 3.57181 3.56464C4.14141 3.33003 4.76003 3.23935 5.37299 3.30063C5.98596 3.3619 6.57439 3.57323 7.08628 3.91595C7.59816 4.25867 8.01773 4.72221 8.30791 5.26561C8.59808 5.809 8.74992 6.41552 8.75 7.03154ZM1.875 13.9065C1.875 13.0777 2.20424 12.2829 2.79029 11.6968C3.37634 11.1108 4.1712 10.7815 5 10.7815C5.8288 10.7815 6.62366 11.1108 7.20971 11.6968C7.79576 12.2829 8.125 13.0777 8.125 13.9065V15.7815C8.125 15.9473 8.05915 16.1063 7.94194 16.2235C7.82473 16.3407 7.66576 16.4065 7.5 16.4065H2.5C2.33424 16.4065 2.17527 16.3407 2.05806 16.2235C1.94085 16.1063 1.875 15.9473 1.875 15.7815V13.9065ZM16.25 13.2815C16.0014 13.2815 15.7629 13.1828 15.5871 13.0069C15.4113 12.8311 15.3125 12.5927 15.3125 12.344V10.469H13.4375C13.1889 10.469 12.9504 10.3703 12.7746 10.1944C12.5988 10.0186 12.5 9.78018 12.5 9.53154C12.5 9.28289 12.5988 9.04444 12.7746 8.86862C12.9504 8.69281 13.1889 8.59404 13.4375 8.59404H15.3125V6.71904C15.3125 6.47039 15.4113 6.23194 15.5871 6.05612C15.7629 5.88031 16.0014 5.78154 16.25 5.78154C16.4986 5.78154 16.7371 5.88031 16.9129 6.05612C17.0887 6.23194 17.1875 6.47039 17.1875 6.71904V8.59404H19.0625C19.3111 8.59404 19.5496 8.69281 19.7254 8.86862C19.9012 9.04444 20 9.28289 20 9.53154C20 9.78018 19.9012 10.0186 19.7254 10.1944C19.5496 10.3703 19.3111 10.469 19.0625 10.469H17.1875V12.344C17.1875 12.5927 17.0887 12.8311 16.9129 13.0069C16.7371 13.1828 16.4986 13.2815 16.25 13.2815Z" fill="#001B69"/>
</g>
</svg>
