<svg width="19" height="22" viewBox="0 0 19 22" fill="none" xmlns="http://www.w3.org/2000/svg">
<path d="M12.5 15.25L15.36 16.94L14.61 18.16L11 16V11H12.5V15.25ZM19 15C19 18.87 15.87 22 12 22C10.09 22 8.37 21.24 7.11 20H2C0.89 20 0 19.11 0 18V2C0 1.46957 0.210714 0.960859 0.585786 0.585786C0.960859 0.210714 1.46957 0 2 0H3V7L5.5 5.5L8 7V0H14C14.5304 0 15.0391 0.210714 15.4142 0.585786C15.7893 0.960859 16 1.46957 16 2V9.26C17.81 10.53 19 12.62 19 15ZM17 15C17 12.24 14.76 10 12 10C9.24 10 7 12.24 7 15C7 17.76 9.24 20 12 20C14.76 20 17 17.76 17 15Z" fill="#F8F8F8"/>
</svg>
