<svg width="13" height="13" viewBox="0 0 13 13" fill="none" xmlns="http://www.w3.org/2000/svg">
<g clip-path="url(#clip0_3690_6347)">
<path d="M9.72344 0H2.97656C1.33265 0 0 1.33265 0 2.97656V9.72344C0 11.3673 1.33265 12.7 2.97656 12.7H9.72344C11.3673 12.7 12.7 11.3673 12.7 9.72344V2.97656C12.7 1.33265 11.3673 0 9.72344 0Z" fill="#F4F2ED"/>
<path d="M5.25661 1.34064L7.36109 1.33945C7.83788 2.17899 8.23987 3.06377 8.58267 3.97157C8.71979 4.30882 8.85835 4.64611 8.96957 4.99397C9.13606 5.50351 9.34596 5.99628 9.50516 6.50874C9.81789 7.58735 10.0942 8.67732 10.372 9.76615C10.4756 10.1998 10.619 10.6214 10.7124 11.0576C10.5651 11.1075 10.4171 11.1558 10.2702 11.2072C10.1051 11.262 9.92981 11.2565 9.75876 11.2718C9.51389 11.2966 9.26797 11.3127 9.02275 11.3346L8.43225 10.9097C8.40532 10.7137 8.40953 10.5133 8.37416 10.318C8.2738 9.69203 8.11634 9.07737 7.93725 8.47109L4.65386 8.9467C4.62935 9.08431 4.60385 9.22228 4.57895 9.36024C4.46916 9.84934 4.49679 10.356 4.46737 10.8542L3.71738 11.3372C3.66911 11.3758 3.60616 11.3546 3.55119 11.3539C3.3658 11.3346 3.17937 11.3353 2.99467 11.312C2.80645 11.2875 2.60494 11.3225 2.42897 11.2335C2.28173 11.162 2.12988 11.1006 1.98438 11.0251C2.15196 10.1939 2.3748 9.37597 2.59199 8.55761C2.86033 7.53665 3.18145 6.53176 3.51205 5.53129C3.9752 4.08508 4.56362 2.68272 5.25661 1.34054V1.34064ZM6.16858 4.28729C5.89538 5.11442 5.57912 5.92474 5.28667 6.74459L7.03297 5.74079C6.86296 5.24619 6.69156 4.75232 6.51173 4.26174C6.4775 4.17889 6.44317 4.07193 6.34871 4.04857C6.23644 4.06246 6.20355 4.19422 6.16858 4.28729Z" fill="#BF2223"/>
</g>
<defs>
<clipPath id="clip0_3690_6347">
<rect width="12.7" height="12.7" fill="white"/>
</clipPath>
</defs>
</svg>
