<svg width="52" height="52" viewBox="0 0 52 52" fill="none" xmlns="http://www.w3.org/2000/svg">
<path fill-rule="evenodd" clip-rule="evenodd" d="M41.1667 21.6666C41.1667 12.8717 36.3168 6.76754 30.0417 4.935C29.8145 4.34707 29.4553 3.80051 28.9672 3.34189C27.2994 1.77487 24.7006 1.77487 23.0328 3.34189C22.5457 3.7995 22.1871 4.34467 21.9598 4.93113C15.6766 6.75568 10.8333 12.8465 10.8333 21.6666C10.8333 27.3734 9.68281 30.5711 7.55292 32.8885C7.19684 33.2759 6.23212 34.1634 5.57857 34.7646L5.57842 34.7648L5.57835 34.7648C5.26919 35.0492 5.02969 35.2695 4.95727 35.3425L4.33334 35.9752V43.3638H17.524C17.97 45.6649 19.2185 47.2044 21.4764 48.5823C24.254 50.2772 27.746 50.2772 30.5236 48.5823C32.5162 47.3663 33.8523 45.4975 34.3944 43.3638H47.6667V35.9752L47.0428 35.3425C46.9771 35.2759 46.7473 35.0639 46.4469 34.7868L46.4468 34.7868C45.7953 34.1857 44.8115 33.2783 44.45 32.8833C42.3187 30.5551 41.1667 27.3533 41.1667 21.6666ZM29.7629 43.3638H22.0537C22.3598 43.9333 22.8815 44.3633 23.7337 44.8833C25.1253 45.7325 26.8748 45.7325 28.2663 44.8833C28.9107 44.49 29.4142 43.9697 29.7629 43.3638ZM41.2537 35.8093C41.7097 36.3074 42.6868 37.2178 43.3333 37.8125V39.0305H8.66668V37.8134C9.30817 37.2257 10.2883 36.316 10.7434 35.8209C13.6375 32.672 15.1667 28.4219 15.1667 21.6666C15.1667 13.4764 20.221 8.69345 26 8.69345C31.7627 8.69345 36.8333 13.5011 36.8333 21.6666C36.8333 28.4002 38.363 32.6516 41.2537 35.8093Z" fill="#EEFAFF"/>
</svg>
