<svg width="16" height="16" viewBox="0 0 16 16" fill="none" xmlns="http://www.w3.org/2000/svg">
<g clip-path="url(#clip0_2951_40979)">
<path d="M13.3359 7.11719C13.7422 7.3099 14.1094 7.55208 14.4375 7.84375C14.7656 8.13542 15.0469 8.46615 15.2812 8.83594C15.5156 9.20573 15.6927 9.60156 15.8125 10.0234C15.9323 10.4453 15.9948 10.8828 16 11.3359C16 11.9766 15.8776 12.5807 15.6328 13.1484C15.388 13.7161 15.0547 14.2109 14.6328 14.6328C14.2109 15.0547 13.7161 15.388 13.1484 15.6328C12.5807 15.8776 11.9766 16 11.3359 16C10.8828 16 10.4453 15.9375 10.0234 15.8125C9.60156 15.6875 9.20833 15.5104 8.84375 15.2812C8.47917 15.0521 8.14844 14.7734 7.85156 14.4453C7.55469 14.1172 7.3099 13.7474 7.11719 13.3359H0V1.33594H2.66406V0H4V1.33594H9.33594V0H10.6641V1.33594H13.3359V7.11719ZM1.33594 4H12V2.66406H1.33594V4ZM6.71094 12C6.67969 11.7812 6.66406 11.5599 6.66406 11.3359C6.66406 10.6901 6.78646 10.0833 7.03125 9.51562C7.27604 8.94792 7.60938 8.45312 8.03125 8.03125C8.45312 7.60938 8.94792 7.27604 9.51562 7.03125C10.0833 6.78646 10.6901 6.66406 11.3359 6.66406C11.5599 6.66406 11.7812 6.67969 12 6.71094V5.33594H1.33594V12H6.71094ZM11.3359 14.6641C11.7943 14.6641 12.224 14.5781 12.625 14.4062C13.026 14.2344 13.3802 13.9948 13.6875 13.6875C13.9948 13.3802 14.2318 13.0286 14.3984 12.6328C14.5651 12.237 14.6536 11.8047 14.6641 11.3359C14.6641 10.8776 14.5781 10.4453 14.4062 10.0391C14.2344 9.63281 13.9974 9.27865 13.6953 8.97656C13.3932 8.67448 13.0391 8.4375 12.6328 8.26562C12.2266 8.09375 11.7943 8.00521 11.3359 8C10.8724 8 10.4401 8.08594 10.0391 8.25781C9.63802 8.42969 9.28385 8.66927 8.97656 8.97656C8.66927 9.28385 8.43229 9.63802 8.26562 10.0391C8.09896 10.4401 8.01042 10.8724 8 11.3359C8 11.7995 8.08594 12.2318 8.25781 12.6328C8.42969 13.0339 8.66927 13.3854 8.97656 13.6875C9.28385 13.9896 9.63802 14.2266 10.0391 14.3984C10.4401 14.5703 10.8724 14.6589 11.3359 14.6641ZM12 10.6641H13.3359V12H10.6641V9.33594H12V10.6641Z" fill="#0E9CD8"/>
</g>
<defs>
<clipPath id="clip0_2951_40979">
<rect width="16" height="16" fill="white"/>
</clipPath>
</defs>
</svg>
