<svg width="41" height="40" viewBox="0 0 41 40" fill="none" xmlns="http://www.w3.org/2000/svg">
<path fill-rule="evenodd" clip-rule="evenodd" d="M5.33398 37.642L36.2738 37.6403L32.9968 26.5975L8.96534 26.5386C8.20823 26.7348 5.52459 36.892 5.33398 37.642Z" fill="white"/>
<path fill-rule="evenodd" clip-rule="evenodd" d="M18.6225 7.31607C18.012 6.78498 17.8667 6.24551 17.5165 5.55218C17.3484 5.21942 17.2212 4.95572 17.064 4.66685C17.0005 4.55018 16.9093 4.37989 16.8171 4.24201C16.6476 3.98822 16.6425 3.99115 16.516 3.85687C14.2626 4.91007 12.4258 7.53949 11.97 10.8885L10.3057 11.0361L10.3057 14.282L31.3124 14.3188V11.0838L29.6543 10.9515C29.3854 9.07527 29.0072 7.99109 28.1778 6.66279C27.5077 5.5897 26.1895 4.27222 24.8685 3.80323C24.5705 4.81816 23.6571 6.8225 23.0224 7.46346L23.005 2.11035L18.6285 2.13829L18.6225 7.31607Z" fill="white"/>
<path fill-rule="evenodd" clip-rule="evenodd" d="M29.5578 16.619L12.0527 16.5449C13.6848 26.9147 28.1448 26.6752 29.5578 16.619Z" fill="white"/>
</svg>
