<svg width="32" height="32" viewBox="0 0 32 32" fill="none" xmlns="http://www.w3.org/2000/svg">
<path d="M29.0612 10.0626L13.0612 26.0626C12.9218 26.2024 12.7563 26.3134 12.5739 26.3891C12.3916 26.4648 12.1961 26.5038 11.9987 26.5038C11.8013 26.5038 11.6058 26.4648 11.4235 26.3891C11.2411 26.3134 11.0756 26.2024 10.9362 26.0626L3.9362 19.0626C3.79667 18.9231 3.68599 18.7574 3.61047 18.5751C3.53496 18.3928 3.49609 18.1974 3.49609 18.0001C3.49609 17.8028 3.53496 17.6074 3.61047 17.4251C3.68599 17.2428 3.79667 17.0771 3.9362 16.9376C4.07573 16.7981 4.24137 16.6874 4.42367 16.6119C4.60598 16.5364 4.80137 16.4975 4.9987 16.4975C5.19602 16.4975 5.39141 16.5364 5.57372 16.6119C5.75602 16.6874 5.92167 16.7981 6.0612 16.9376L11.9999 22.8764L26.9387 7.9401C27.2205 7.65831 27.6027 7.5 28.0012 7.5C28.3997 7.5 28.7819 7.65831 29.0637 7.9401C29.3455 8.22189 29.5038 8.60409 29.5038 9.0026C29.5038 9.40112 29.3455 9.78331 29.0637 10.0651L29.0612 10.0626Z" fill="#001B69"/>
</svg>
