<svg width="24" height="24" viewBox="0 0 24 24" fill="none" xmlns="http://www.w3.org/2000/svg">
<path d="M21.5 16.0522V7.94821C21.4995 7.39989 21.39 6.85715 21.1778 6.35155C20.9656 5.84596 20.655 5.38762 20.264 5.00321C19.4679 4.22019 18.3956 3.78195 17.279 3.78321H6.72C5.60337 3.78195 4.53109 4.22019 3.735 5.00321C3.34419 5.38771 3.03375 5.84608 2.82173 6.35167C2.6097 6.85726 2.50034 7.39996 2.5 7.94821V16.0522C2.5 17.1572 2.945 18.2162 3.736 18.9972C4.53209 19.7802 5.60437 20.2185 6.721 20.2172H17.28C18.4 20.2172 19.473 19.7772 20.265 18.9972C20.6559 18.6128 20.9665 18.1544 21.1787 17.6488C21.3909 17.1432 21.4995 16.6005 21.5 16.0522Z" stroke="black" stroke-width="1.5" stroke-linecap="round" stroke-linejoin="round"/>
<path d="M11.6327 15.9682C11.6327 15.1562 11.3087 14.3782 10.7307 13.8032C10.1516 13.2276 9.36823 12.9045 8.5517 12.9045C7.73518 12.9045 6.95183 13.2276 6.3727 13.8032C6.08701 14.0868 5.86024 14.4241 5.70543 14.7956C5.55063 15.1672 5.47085 15.5657 5.4707 15.9682M14.5677 8.91923H18.1617M14.5677 12.0002H16.1077M14.5677 15.0812H18.1617M8.5517 12.1402C9.09646 12.1402 9.6189 11.9238 10.0041 11.5386C10.3893 11.1534 10.6057 10.631 10.6057 10.0862C10.6057 9.54147 10.3893 9.01903 10.0041 8.63383C9.6189 8.24863 9.09646 8.03223 8.5517 8.03223C8.00695 8.03223 7.48451 8.24863 7.09931 8.63383C6.71411 9.01903 6.4977 9.54147 6.4977 10.0862C6.4977 10.631 6.71411 11.1534 7.09931 11.5386C7.48451 11.9238 8.00695 12.1402 8.5517 12.1402Z" stroke="black" stroke-width="1.5" stroke-linecap="round" stroke-linejoin="round"/>
</svg>
