<svg width="24" height="24" viewBox="0 0 24 24" fill="none" xmlns="http://www.w3.org/2000/svg">
<path d="M21.375 18.75C21.3748 19.3804 21.1477 19.9896 20.7353 20.4664C20.323 20.9432 19.7528 21.2556 19.129 21.3466C18.5052 21.4376 17.8695 21.3011 17.3381 20.9621C16.8067 20.623 16.415 20.104 16.2347 19.5H6.75C5.55653 19.5 4.41193 19.0259 3.56802 18.182C2.72411 17.3381 2.25 16.1935 2.25 15C2.25 13.8065 2.72411 12.6619 3.56802 11.818C4.41193 10.9741 5.55653 10.5 6.75 10.5H15.75C16.3467 10.5 16.919 10.2629 17.341 9.84099C17.7629 9.41903 18 8.84674 18 8.25C18 7.65326 17.7629 7.08097 17.341 6.65901C16.919 6.23705 16.3467 6 15.75 6H6.75C6.55109 6 6.36032 5.92098 6.21967 5.78033C6.07902 5.63968 6 5.44891 6 5.25C6 5.05109 6.07902 4.86032 6.21967 4.71967C6.36032 4.57902 6.55109 4.5 6.75 4.5H15.75C16.7446 4.5 17.6984 4.89509 18.4016 5.59835C19.1049 6.30161 19.5 7.25544 19.5 8.25C19.5 9.24456 19.1049 10.1984 18.4016 10.9017C17.6984 11.6049 16.7446 12 15.75 12H6.75C5.95435 12 5.19129 12.3161 4.62868 12.8787C4.06607 13.4413 3.75 14.2044 3.75 15C3.75 15.7957 4.06607 16.5587 4.62868 17.1213C5.19129 17.6839 5.95435 18 6.75 18H16.2347C16.415 17.396 16.8067 16.877 17.3381 16.5379C17.8695 16.1989 18.5052 16.0624 19.129 16.1534C19.7528 16.2444 20.323 16.5568 20.7353 17.0336C21.1477 17.5104 21.3748 18.1196 21.375 18.75Z" fill="#001B69"/>
</svg>
