<svg width="22" height="22" viewBox="0 0 22 22" fill="none" xmlns="http://www.w3.org/2000/svg">
<g id="heroicons-outline:paper-clip">
<path id="Vector" d="M14.05 6.93188L8.34216 12.6397C8.17661 12.7996 8.04456 12.9909 7.95372 13.2024C7.86288 13.4139 7.81506 13.6413 7.81306 13.8715C7.81106 14.1016 7.85492 14.3298 7.94207 14.5429C8.02922 14.7559 8.15793 14.9494 8.32068 15.1122C8.48342 15.2749 8.67695 15.4036 8.88997 15.4908C9.10299 15.5779 9.33124 15.6218 9.56139 15.6198C9.79154 15.6178 10.019 15.57 10.2305 15.4791C10.4419 15.3883 10.6332 15.2562 10.7931 15.0907L16.3519 9.38281C16.9834 8.72899 17.3328 7.85331 17.3249 6.94436C17.317 6.03541 16.9524 5.16592 16.3097 4.52318C15.6669 3.88043 14.7974 3.51584 13.8885 3.50794C12.9795 3.50005 12.1038 3.84947 11.45 4.48095L5.89036 10.1879C4.91509 11.1632 4.36719 12.486 4.36719 13.8652C4.36719 15.2445 4.91509 16.5672 5.89036 17.5425C6.86563 18.5178 8.18839 19.0657 9.56763 19.0657C10.9469 19.0657 12.2696 18.5178 13.2449 17.5425L18.6676 12.1319" stroke="black" stroke-width="1.3" stroke-linecap="round" stroke-linejoin="round"/>
</g>
</svg>
