<svg width="40" height="40" viewBox="0 0 40 40" fill="none" xmlns="http://www.w3.org/2000/svg">
<g clip-path="url(#clip0_4635_5523)">
<path d="M34.4443 8.88867H24.4443V36.6665H36.6666V11.1109C36.6666 10.5215 36.4324 9.95629 36.0157 9.53955C35.5989 9.1228 35.0337 8.88867 34.4443 8.88867ZM28.8888 27.7776H26.6666V25.5553H28.8888V27.7776ZM28.8888 22.222H26.6666V19.9998H28.8888V22.222ZM28.8888 16.6665H26.6666V14.4442H28.8888V16.6665ZM33.3332 27.7776H31.111V25.5553H33.3332V27.7776ZM33.3332 22.222H31.111V19.9998H33.3332V22.222ZM33.3332 16.6665H31.111V14.4442H33.3332V16.6665Z" fill="white"/>
<path d="M19.8666 3.33398H6.79989C6.17516 3.33398 5.57601 3.58216 5.13426 4.02391C4.69251 4.46566 4.44434 5.06481 4.44434 5.68954V36.6673H9.99989V33.334H16.6666V36.6673H22.2221V5.68954C22.2221 5.06481 21.9739 4.46566 21.5322 4.02391C21.0904 3.58216 20.4913 3.33398 19.8666 3.33398ZM9.99989 27.7784H7.77767V25.5562H9.99989V27.7784ZM9.99989 22.2229H7.77767V20.0007H9.99989V22.2229ZM9.99989 16.6673H7.77767V14.4451H9.99989V16.6673ZM9.99989 11.1118H7.77767V8.88954H9.99989V11.1118ZM14.4443 27.7784H12.2221V25.5562H14.4443V27.7784ZM14.4443 22.2229H12.2221V20.0007H14.4443V22.2229ZM14.4443 16.6673H12.2221V14.4451H14.4443V16.6673ZM14.4443 11.1118H12.2221V8.88954H14.4443V11.1118ZM18.8888 27.7784H16.6666V25.5562H18.8888V27.7784ZM18.8888 22.2229H16.6666V20.0007H18.8888V22.2229ZM18.8888 16.6673H16.6666V14.4451H18.8888V16.6673ZM18.8888 11.1118H16.6666V8.88954H18.8888V11.1118Z" fill="white"/>
</g>
<defs>
<clipPath id="clip0_4635_5523">
<rect width="40" height="40" fill="white"/>
</clipPath>
</defs>
</svg>
