<svg width="48" height="48" viewBox="0 0 48 48" fill="none" xmlns="http://www.w3.org/2000/svg">
<path fill-rule="evenodd" clip-rule="evenodd" d="M38.4218 43.2768L43.2257 38.473L41.5338 32.3264L42.2709 30.566L47.8334 27.4272V20.6339L42.2867 17.482L41.5619 15.7247L43.2751 9.57506L38.4678 4.77476L32.3207 6.46616L30.5642 5.72971L27.4252 0.166626H20.6319L17.48 5.71339L15.7231 6.43796L9.57438 4.72271L4.7746 9.52248L6.46629 15.6706L5.72983 17.427L0.166748 20.5661V27.3575L5.70851 30.5164L6.43388 32.2752L4.72101 38.4238L9.5226 43.2254L15.6707 41.5338L17.4274 42.2703L20.5665 47.8311H27.3581L30.5147 42.2892L32.2731 41.564L38.4218 43.2768ZM38.8475 27.5221L36.9586 32.0334L38.3785 37.1918L37.147 38.4234L31.9995 36.9894L27.4862 38.8508L24.8393 43.4978H23.0964L20.4715 38.8478L15.9651 36.9584L10.8039 38.3785L9.57447 37.149L11.0084 32.0016L9.14719 27.4886L4.50008 24.8397V23.0965L9.15213 20.4715L11.0417 15.965L9.62154 10.8038L10.8484 9.57691L15.9959 11.0129L20.5108 9.15082L23.1536 4.49996H24.8947L27.5197 9.15201L32.0263 11.0415L37.1885 9.62114L38.421 10.8519L36.9874 15.9984L38.8492 20.5128L43.5001 23.1556V24.8968L38.8475 27.5221ZM24.0001 32.6666C19.2136 32.6666 15.3334 28.7864 15.3334 24C15.3334 19.2135 19.2136 15.3333 24.0001 15.3333C28.7866 15.3333 32.6667 19.2135 32.6667 24C32.6667 28.7864 28.7866 32.6666 24.0001 32.6666ZM28.3334 24C28.3334 26.3932 26.3933 28.3333 24.0001 28.3333C21.6068 28.3333 19.6667 26.3932 19.6667 24C19.6667 21.6067 21.6068 19.6666 24.0001 19.6666C26.3933 19.6666 28.3334 21.6067 28.3334 24Z" fill="#013A55"/>
</svg>
