<svg width="24" height="25" viewBox="0 0 24 25" fill="none" xmlns="http://www.w3.org/2000/svg">
<g id="material-symbols:contract">
<path id="Vector" d="M6 22.8398C5.16667 22.8398 4.45833 22.5482 3.875 21.9648C3.29167 21.3815 3 20.6732 3 19.8398V16.8398H6V2.83984H21V19.8398C21 20.6732 20.7083 21.3815 20.125 21.9648C19.5417 22.5482 18.8333 22.8398 18 22.8398H6ZM18 20.8398C18.2833 20.8398 18.521 20.7438 18.713 20.5518C18.905 20.3598 19.0007 20.1225 19 19.8398V4.83984H8V16.8398H17V19.8398C17 20.1232 17.096 20.3608 17.288 20.5528C17.48 20.7448 17.7173 20.8405 18 20.8398ZM9 9.83984V7.83984H18V9.83984H9ZM9 12.8398V10.8398H18V12.8398H9Z" fill="black"/>
</g>
</svg>
