<svg width="20" height="16" viewBox="0 0 20 16" fill="none" xmlns="http://www.w3.org/2000/svg">
<g filter="url(#filter0_d_1591_81858)">
<path fill-rule="evenodd" clip-rule="evenodd" d="M15 3.5H8C7.86739 3.5 7.74021 3.55268 7.64645 3.64645C7.55268 3.74021 7.5 3.86739 7.5 4V11C7.5 11.1326 7.55268 11.2598 7.64645 11.3536C7.74021 11.4473 7.86739 11.5 8 11.5H15C15.1326 11.5 15.2598 11.4473 15.3536 11.3536C15.4473 11.2598 15.5 11.1326 15.5 11V4C15.5 3.86739 15.4473 3.74021 15.3536 3.64645C15.2598 3.55268 15.1326 3.5 15 3.5ZM8.5 10.5V4.5H14.5V10.5H8.5Z" fill="black"/>
<path d="M5.5 7.5H8.5V8.5H5C4.86739 8.5 4.74021 8.44732 4.64645 8.35355C4.55268 8.25979 4.5 8.13261 4.5 8V1C4.5 0.867392 4.55268 0.740215 4.64645 0.646447C4.74021 0.552679 4.86739 0.5 5 0.5H12C12.1326 0.5 12.2598 0.552679 12.3536 0.646447C12.4473 0.740215 12.5 0.867392 12.5 1V4.5H11.5V1.5H5.5V7.5Z" fill="black"/>
</g>
<defs>
<filter id="filter0_d_1591_81858" x="0.5" y="0.5" width="19" height="19" filterUnits="userSpaceOnUse" color-interpolation-filters="sRGB">
<feFlood flood-opacity="0" result="BackgroundImageFix"/>
<feColorMatrix in="SourceAlpha" type="matrix" values="0 0 0 0 0 0 0 0 0 0 0 0 0 0 0 0 0 0 127 0" result="hardAlpha"/>
<feOffset dy="4"/>
<feGaussianBlur stdDeviation="2"/>
<feComposite in2="hardAlpha" operator="out"/>
<feColorMatrix type="matrix" values="0 0 0 0 0 0 0 0 0 0 0 0 0 0 0 0 0 0 0.25 0"/>
<feBlend mode="normal" in2="BackgroundImageFix" result="effect1_dropShadow_1591_81858"/>
<feBlend mode="normal" in="SourceGraphic" in2="effect1_dropShadow_1591_81858" result="shape"/>
</filter>
</defs>
</svg>
