<svg width="24" height="24" viewBox="0 0 24 24" fill="none" xmlns="http://www.w3.org/2000/svg">
<path d="M9.63607 5.35053C9.28807 6.88653 10.2961 9.50253 12.0001 9.50253C13.6921 9.50253 14.7001 6.88653 14.3521 5.35053C14.0881 4.17453 13.0561 3.39453 12.0001 3.39453C10.9321 3.39453 9.91207 4.17453 9.63607 5.35053ZM4.68007 6.43053C4.38007 7.72653 5.24407 9.94653 6.68407 9.94653C8.12407 9.94653 8.98807 7.72653 8.68807 6.43053C8.46007 5.43453 7.58407 4.76253 6.68407 4.76253C5.78407 4.76253 4.90807 5.43453 4.68007 6.43053ZM15.3121 6.43053C15.0121 7.72653 15.8761 9.94653 17.3041 9.94653C18.7441 9.94653 19.6081 7.72653 19.3081 6.43053C19.0801 5.43453 18.2041 4.76253 17.3041 4.76253C16.4161 4.76253 15.5401 5.43453 15.3121 6.43053ZM14.6041 20.1465L16.1041 14.9865C17.0401 11.9985 15.2521 10.1625 12.0001 10.1625C8.73607 10.1625 6.94807 11.9985 7.87207 14.9865L9.38407 20.1465C9.66007 21.0105 10.8001 21.5985 12.0001 21.5985C13.1761 21.5985 14.3281 21.0105 14.6041 20.1465ZM7.28407 10.9905C6.69607 11.7945 6.13207 13.1865 6.78007 15.2985L8.12407 19.8465C7.71607 20.0865 7.20007 20.2185 6.68407 20.2185C5.66407 20.2185 4.70407 19.7265 4.46407 18.9825L3.18007 14.6025C2.40007 12.0705 3.91207 10.5225 6.68407 10.5225C7.00807 10.5225 7.33207 10.5465 7.63207 10.5945C7.51207 10.7145 7.39207 10.8585 7.28407 10.9905ZM17.3041 10.5225C20.0761 10.5225 21.6001 12.0705 20.8081 14.6025L19.5241 18.9825C19.2841 19.7265 18.3241 20.2185 17.3041 20.2185C16.7881 20.2185 16.2721 20.0865 15.8641 19.8465L17.1961 15.3225C17.8561 13.1865 17.2921 11.7945 16.6921 10.9905C16.5961 10.8585 16.4761 10.7145 16.3561 10.5945C16.6561 10.5465 16.9681 10.5225 17.3041 10.5225Z" fill="black"/>
</svg>
