<svg width="24" height="24" viewBox="0 0 24 24" fill="none" xmlns="http://www.w3.org/2000/svg">
<g id="material-symbols:date-range-outline">
<path id="Vector" d="M9.25 15.2C9.00917 15.2 8.80715 15.1184 8.64395 14.9552C8.48075 14.792 8.39943 14.5903 8.4 14.35C8.4 14.1092 8.4816 13.9071 8.6448 13.7439C8.808 13.5807 9.00973 13.4994 9.25 13.5C9.49083 13.5 9.69285 13.5816 9.85605 13.7448C10.0193 13.908 10.1006 14.1097 10.1 14.35C10.1 14.5908 10.0184 14.7928 9.8552 14.956C9.692 15.1192 9.49027 15.2006 9.25 15.2ZM12.65 15.2C12.4092 15.2 12.2072 15.1184 12.044 14.9552C11.8808 14.792 11.7994 14.5903 11.8 14.35C11.8 14.1092 11.8816 13.9071 12.0448 13.7439C12.208 13.5807 12.4097 13.4994 12.65 13.5C12.8908 13.5 13.0929 13.5816 13.2561 13.7448C13.4193 13.908 13.5006 14.1097 13.5 14.35C13.5 14.5908 13.4184 14.7928 13.2552 14.956C13.092 15.1192 12.8903 15.2006 12.65 15.2ZM16.05 15.2C15.8092 15.2 15.6072 15.1184 15.444 14.9552C15.2808 14.792 15.1994 14.5903 15.2 14.35C15.2 14.1092 15.2816 13.9071 15.4448 13.7439C15.608 13.5807 15.8097 13.4994 16.05 13.5C16.2908 13.5 16.4929 13.5816 16.6561 13.7448C16.8193 13.908 16.9006 14.1097 16.9 14.35C16.9 14.5908 16.8184 14.7928 16.6552 14.956C16.492 15.1192 16.2903 15.2006 16.05 15.2ZM6.7 22C6.2325 22 5.83215 21.8334 5.49895 21.5002C5.16575 21.167 4.99943 20.7669 5 20.3V8.4C5 7.9325 5.1666 7.53215 5.4998 7.19895C5.833 6.86575 6.23307 6.69943 6.7 6.7H7.55V5H9.25V6.7H16.05V5H17.75V6.7H18.6C19.0675 6.7 19.4679 6.8666 19.8011 7.1998C20.1343 7.533 20.3006 7.93307 20.3 8.4V20.3C20.3 20.7675 20.1334 21.1678 19.8002 21.501C19.467 21.8342 19.0669 22.0006 18.6 22H6.7ZM6.7 20.3H18.6V11.8H6.7V20.3ZM6.7 10.1H18.6V8.4H6.7V10.1Z" fill="black" fill-opacity="0.5"/>
</g>
</svg>
