<svg width="18" height="18" viewBox="0 0 18 18" fill="none" xmlns="http://www.w3.org/2000/svg">
<path d="M11.8125 16.875C10.9225 16.875 10.0525 16.6111 9.31244 16.1166C8.57242 15.6221 7.99564 14.9193 7.65504 14.0971C7.31445 13.2748 7.22533 12.37 7.39897 11.4971C7.5726 10.6242 8.00118 9.82236 8.63052 9.19302C9.25986 8.56368 10.0617 8.1351 10.9346 7.96147C11.8075 7.78783 12.7123 7.87695 13.5346 8.21754C14.3568 8.55814 15.0596 9.13492 15.5541 9.87494C16.0486 10.615 16.3125 11.485 16.3125 12.375C16.3125 13.5685 15.8384 14.7131 14.9945 15.557C14.1506 16.4009 13.006 16.875 11.8125 16.875ZM11.8125 9C11.145 9 10.4925 9.19794 9.93745 9.56879C9.38244 9.93964 8.94985 10.4667 8.69441 11.0834C8.43896 11.7001 8.37213 12.3787 8.50235 13.0334C8.63258 13.6881 8.95401 14.2895 9.42602 14.7615C9.89802 15.2335 10.4994 15.5549 11.1541 15.6852C11.8088 15.8154 12.4874 15.7485 13.1041 15.4931C13.7208 15.2377 14.2479 14.8051 14.6187 14.2501C14.9896 13.695 15.1875 13.0425 15.1875 12.375C15.1875 11.4799 14.8319 10.6215 14.199 9.98852C13.5661 9.35558 12.7076 9 11.8125 9Z" fill="#001B69"/>
<path d="M12.7069 14.0625L11.25 12.6056V10.125H12.375V12.1444L13.5 13.2694L12.7069 14.0625Z" fill="#001B69"/>
<path d="M15.75 3.375C15.75 3.07663 15.6315 2.79048 15.4205 2.5795C15.2095 2.36853 14.9234 2.25 14.625 2.25H12.375V1.125H11.25V2.25H6.75V1.125H5.625V2.25H3.375C3.07663 2.25 2.79048 2.36853 2.5795 2.5795C2.36853 2.79048 2.25 3.07663 2.25 3.375V14.625C2.25 14.9234 2.36853 15.2095 2.5795 15.4205C2.79048 15.6315 3.07663 15.75 3.375 15.75H5.625V14.625H3.375V3.375H5.625V4.5H6.75V3.375H11.25V4.5H12.375V3.375H14.625V6.75H15.75V3.375Z" fill="#001B69"/>
</svg>
