<svg width="22" height="22" viewBox="0 0 22 22" fill="none" xmlns="http://www.w3.org/2000/svg">
<path d="M3.86016 3.6333C3.31812 3.6333 2.79828 3.84862 2.41501 4.2319C2.03173 4.61518 1.81641 5.13501 1.81641 5.67705V15.6687C1.81641 15.9967 1.88102 16.3216 2.00655 16.6246C2.13208 16.9277 2.31608 17.2031 2.54803 17.435C2.77998 17.667 3.05535 17.851 3.35841 17.9765C3.66147 18.102 3.98629 18.1666 4.31432 18.1666H8.40182C8.72985 18.1666 9.05467 18.102 9.35773 17.9765C9.6608 17.851 9.93616 17.667 10.1681 17.435C10.4001 17.2031 10.5841 16.9277 10.7096 16.6246C10.8351 16.3216 10.8997 15.9967 10.8997 15.6687V8.62913H18.6206V17.4854C18.6206 17.6661 18.6923 17.8393 18.8201 17.9671C18.9479 18.0949 19.1211 18.1666 19.3018 18.1666C19.4825 18.1666 19.6558 18.0949 19.7835 17.9671C19.9113 17.8393 19.9831 17.6661 19.9831 17.4854V5.67705C19.9831 5.13501 19.7677 4.61518 19.3845 4.2319C19.0012 3.84862 18.4814 3.6333 17.9393 3.6333H3.86016ZM3.17891 8.62913H9.53724V15.6687C9.53724 16.2955 9.02857 16.8041 8.40182 16.8041H4.31432C3.68757 16.8041 3.17891 16.2955 3.17891 15.6687V8.62913ZM3.17891 7.26663V5.67705C3.17891 5.49637 3.25068 5.32309 3.37844 5.19533C3.5062 5.06757 3.67948 4.9958 3.86016 4.9958H17.9393C18.12 4.9958 18.2933 5.06757 18.421 5.19533C18.5488 5.32309 18.6206 5.49637 18.6206 5.67705V7.26663H3.17891ZM5.22266 10.4458C5.04198 10.4458 4.8687 10.5176 4.74094 10.6453C4.61318 10.7731 4.54141 10.9464 4.54141 11.1271C4.54141 11.3077 4.61318 11.481 4.74094 11.6088C4.8687 11.7365 5.04198 11.8083 5.22266 11.8083H7.49349C7.67417 11.8083 7.84745 11.7365 7.97521 11.6088C8.10296 11.481 8.17474 11.3077 8.17474 11.1271C8.17474 10.9464 8.10296 10.7731 7.97521 10.6453C7.84745 10.5176 7.67417 10.4458 7.49349 10.4458H5.22266Z" fill="black"/>
</svg>
