<svg width="22" height="22" viewBox="0 0 22 22" fill="none" xmlns="http://www.w3.org/2000/svg">
<path d="M3.86016 3.6333C3.31812 3.6333 2.79828 3.84862 2.41501 4.2319C2.03173 4.61518 1.81641 5.13501 1.81641 5.67705V7.26663H18.6206V17.4854C18.6206 17.6661 18.6923 17.8393 18.8201 17.9671C18.9479 18.0949 19.1211 18.1666 19.3018 18.1666C19.4825 18.1666 19.6558 18.0949 19.7835 17.9671C19.9113 17.8393 19.9831 17.6661 19.9831 17.4854V5.67705C19.9831 5.13501 19.7677 4.61518 19.3845 4.2319C19.0012 3.84862 18.4814 3.6333 17.9393 3.6333H3.86016ZM10.8997 8.62913H1.81641V15.6687C1.81641 15.9967 1.88102 16.3216 2.00655 16.6246C2.13208 16.9277 2.31608 17.2031 2.54803 17.435C2.77998 17.667 3.05535 17.851 3.35841 17.9765C3.66147 18.102 3.98629 18.1666 4.31432 18.1666H8.40182C8.72985 18.1666 9.05467 18.102 9.35773 17.9765C9.6608 17.851 9.93616 17.667 10.1681 17.435C10.4001 17.2031 10.5841 16.9277 10.7096 16.6246C10.8351 16.3216 10.8997 15.9967 10.8997 15.6687V8.62913ZM4.54141 11.5812C4.54141 11.4005 4.61318 11.2273 4.74094 11.0995C4.8687 10.9717 5.04198 10.9 5.22266 10.9H7.49349C7.67417 10.9 7.84745 10.9717 7.97521 11.0995C8.10296 11.2273 8.17474 11.4005 8.17474 11.5812C8.17474 11.7619 8.10296 11.9352 7.97521 12.0629C7.84745 12.1907 7.67417 12.2625 7.49349 12.2625H5.22266C5.04198 12.2625 4.8687 12.1907 4.74094 12.0629C4.61318 11.9352 4.54141 11.7619 4.54141 11.5812Z" fill="#001B69"/>
</svg>
