<svg width="40" height="40" viewBox="0 0 40 40" fill="none" xmlns="http://www.w3.org/2000/svg">
<g id="material-symbols:engineering">
<path id="Vector" d="M1.75 35V30.3333C1.75 29.4167 1.98611 28.5556 2.45833 27.75C2.93056 26.9444 3.58333 26.3333 4.41667 25.9167C5.83333 25.1944 7.43056 24.5833 9.20833 24.0833C10.9861 23.5833 12.9444 23.3333 15.0833 23.3333C17.2222 23.3333 19.1806 23.5833 20.9583 24.0833C22.7361 24.5833 24.3333 25.1944 25.75 25.9167C26.5833 26.3333 27.2361 26.9444 27.7083 27.75C28.1806 28.5556 28.4167 29.4167 28.4167 30.3333V35H1.75ZM15.0833 21.6667C13.25 21.6667 11.6806 21.0139 10.375 19.7083C9.06945 18.4028 8.41667 16.8333 8.41667 15H8C7.75 15 7.54889 14.9233 7.39667 14.77C7.24445 14.6167 7.16778 14.4156 7.16667 14.1667C7.16667 13.9167 7.24333 13.715 7.39667 13.5617C7.55 13.4083 7.75111 13.3322 8 13.3333H8.41667C8.41667 12.0833 8.72222 10.9583 9.33333 9.95833C9.94445 8.95833 10.75 8.16667 11.75 7.58333V9.16667C11.75 9.41667 11.8267 9.61833 11.98 9.77167C12.1333 9.925 12.3344 10.0011 12.5833 10C12.8333 10 13.035 9.92333 13.1883 9.77C13.3417 9.61667 13.4178 9.41556 13.4167 9.16667V6.91667C13.6667 6.83333 13.9306 6.77056 14.2083 6.72833C14.4861 6.68611 14.7778 6.66556 15.0833 6.66667C15.3889 6.66667 15.6806 6.68778 15.9583 6.73C16.2361 6.77222 16.5 6.83444 16.75 6.91667V9.16667C16.75 9.41667 16.8267 9.61833 16.98 9.77167C17.1333 9.925 17.3344 10.0011 17.5833 10C17.8333 10 18.035 9.92333 18.1883 9.77C18.3417 9.61667 18.4178 9.41556 18.4167 9.16667V7.58333C19.4167 8.16667 20.2222 8.95833 20.8333 9.95833C21.4444 10.9583 21.75 12.0833 21.75 13.3333H22.1667C22.4167 13.3333 22.6183 13.41 22.7717 13.5633C22.925 13.7167 23.0011 13.9178 23 14.1667C23 14.4167 22.9233 14.6183 22.77 14.7717C22.6167 14.925 22.4156 15.0011 22.1667 15H21.75C21.75 16.8333 21.0972 18.4028 19.7917 19.7083C18.4861 21.0139 16.9167 21.6667 15.0833 21.6667ZM15.0833 18.3333C16 18.3333 16.785 18.0067 17.4383 17.3533C18.0917 16.7 18.4178 15.9156 18.4167 15H11.75C11.75 15.9167 12.0767 16.7017 12.73 17.355C13.3833 18.0083 14.1678 18.3344 15.0833 18.3333ZM27.5833 25L27.3333 23.75C27.1667 23.6944 27.0072 23.6317 26.855 23.5617C26.7028 23.4917 26.5567 23.3878 26.4167 23.25L25.25 23.6667L24.4167 22.1667L25.3333 21.3333V20.3333L24.4167 19.5L25.25 18L26.4167 18.4167C26.5278 18.3056 26.6667 18.2083 26.8333 18.125C27 18.0417 27.1667 17.9722 27.3333 17.9167L27.5833 16.6667H29.25L29.5 17.9167C29.6667 17.9722 29.8333 18.0417 30 18.125C30.1667 18.2083 30.3056 18.3056 30.4167 18.4167L31.5833 18L32.4167 19.5L31.5 20.3333V21.3333L32.4167 22.1667L31.5833 23.6667L30.4167 23.25C30.2778 23.3889 30.1317 23.4933 29.9783 23.5633C29.825 23.6333 29.6656 23.6956 29.5 23.75L29.25 25H27.5833ZM28.4167 22.0833C28.75 22.0833 29.0417 21.9583 29.2917 21.7083C29.5417 21.4583 29.6667 21.1667 29.6667 20.8333C29.6667 20.5 29.5417 20.2083 29.2917 19.9583C29.0417 19.7083 28.75 19.5833 28.4167 19.5833C28.0833 19.5833 27.7917 19.7083 27.5417 19.9583C27.2917 20.2083 27.1667 20.5 27.1667 20.8333C27.1667 21.1667 27.2917 21.4583 27.5417 21.7083C27.7917 21.9583 28.0833 22.0833 28.4167 22.0833ZM31.4167 16.6667L31.0833 14.9167C30.8333 14.8333 30.6044 14.7289 30.3967 14.6033C30.1889 14.4778 30.0011 14.3322 29.8333 14.1667L28.0833 14.75L26.9167 12.75L28.3333 11.5C28.2778 11.3611 28.25 11.25 28.25 11.1667V10.5C28.25 10.4167 28.2778 10.3056 28.3333 10.1667L26.9167 8.91667L28.0833 6.91667L29.8333 7.5C30 7.33333 30.1878 7.18722 30.3967 7.06167C30.6056 6.93611 30.8344 6.83222 31.0833 6.75L31.4167 5H33.75L34.0833 6.75C34.3333 6.83333 34.5628 6.93778 34.7717 7.06333C34.9806 7.18889 35.1678 7.33444 35.3333 7.5L37.0833 6.91667L38.25 8.91667L36.8333 10.1667C36.8889 10.3056 36.9167 10.4167 36.9167 10.5V11.1667C36.9167 11.25 36.8889 11.3611 36.8333 11.5L38.25 12.75L37.0833 14.75L35.3333 14.1667C35.1667 14.3333 34.9794 14.4794 34.7717 14.605C34.5639 14.7306 34.3344 14.8344 34.0833 14.9167L33.75 16.6667H31.4167ZM32.5833 12.9167C33.1667 12.9167 33.66 12.715 34.0633 12.3117C34.4667 11.9083 34.6678 11.4156 34.6667 10.8333C34.6667 10.25 34.465 9.75667 34.0617 9.35333C33.6583 8.95 33.1656 8.74889 32.5833 8.75C32 8.75 31.5067 8.95167 31.1033 9.355C30.7 9.75833 30.4989 10.2511 30.5 10.8333C30.5 11.4167 30.7017 11.91 31.105 12.3133C31.5083 12.7167 32.0011 12.9178 32.5833 12.9167Z" fill="#0E9CD8"/>
</g>
</svg>
