<svg width="21" height="21" viewBox="0 0 21 21" fill="none" xmlns="http://www.w3.org/2000/svg">
<path d="M18.4553 6.85386C18.2209 6.61952 17.903 6.48788 17.5716 6.48788C17.2401 6.48788 16.9222 6.61952 16.6878 6.85386L10.5003 13.0414L4.31281 6.85386C4.07705 6.62616 3.7613 6.50017 3.43355 6.50302C3.10581 6.50587 2.79229 6.63733 2.56053 6.86909C2.32877 7.10085 2.19731 7.41436 2.19446 7.74211C2.19162 8.06986 2.31761 8.38561 2.54531 8.62136L9.61656 15.6926C9.85097 15.9269 10.1689 16.0586 10.5003 16.0586C10.8318 16.0586 11.1496 15.9269 11.3841 15.6926L18.4553 8.62136C18.6896 8.38695 18.8213 8.06907 18.8213 7.73761C18.8213 7.40616 18.6896 7.08827 18.4553 6.85386Z" fill="black"/>
</svg>
