<svg width="39" height="37" viewBox="0 0 39 37" fill="none" xmlns="http://www.w3.org/2000/svg">
<path d="M19.5 10.586C25.0989 10.586 30.092 13.6509 32.5295 18.4999C30.092 23.349 25.1136 26.4138 19.5 26.4138C13.8864 26.4138 8.90795 23.349 6.47045 18.4999C8.90795 13.6509 13.9011 10.586 19.5 10.586ZM19.5 7.70825C12.1136 7.70825 5.80568 12.1832 3.25 18.4999C5.80568 24.8166 12.1136 29.2916 19.5 29.2916C26.8864 29.2916 33.1943 24.8166 35.75 18.4999C33.1943 12.1832 26.8864 7.70825 19.5 7.70825ZM19.5 14.9027C21.5386 14.9027 23.1932 16.5143 23.1932 18.4999C23.1932 20.4856 21.5386 22.0971 19.5 22.0971C17.4614 22.0971 15.8068 20.4856 15.8068 18.4999C15.8068 16.5143 17.4614 14.9027 19.5 14.9027ZM19.5 12.0249C15.8364 12.0249 12.8523 14.9315 12.8523 18.4999C12.8523 22.0684 15.8364 24.9749 19.5 24.9749C23.1636 24.9749 26.1477 22.0684 26.1477 18.4999C26.1477 14.9315 23.1636 12.0249 19.5 12.0249Z" fill="#AAAAAA"/>
<rect x="0.5" y="0.5" width="38" height="36" stroke="white"/>
</svg>
