<svg xmlns="http://www.w3.org/2000/svg" width="15" height="16" viewBox="0 0 15 16" fill="none">
  <g clip-path="url(#clip0_11448_23707)">
    <path d="M7.60156 11.658C10.9154 11.658 13.6016 8.05801 13.6016 8.05801C13.6016 8.05801 10.9154 4.45801 7.60156 4.45801C4.28776 4.45801 1.60156 8.05801 1.60156 8.05801C1.60156 8.05801 4.28776 11.658 7.60156 11.658Z" stroke="#0E9CD8" stroke-width="1.08" stroke-linejoin="round"/>
    <path d="M7.60156 9.55762C7.99939 9.55762 8.38092 9.39958 8.66222 9.11828C8.94353 8.83697 9.10156 8.45544 9.10156 8.05762C9.10156 7.65979 8.94353 7.27826 8.66222 6.99696C8.38092 6.71565 7.99939 6.55762 7.60156 6.55762C7.20374 6.55762 6.82221 6.71565 6.5409 6.99696C6.2596 7.27826 6.10156 7.65979 6.10156 8.05762C6.10156 8.45544 6.2596 8.83697 6.5409 9.11828C6.82221 9.39958 7.20374 9.55762 7.60156 9.55762Z" stroke="#0E9CD8" stroke-width="1.08" stroke-linejoin="round"/>
  </g>
  <defs>
    <clipPath id="clip0_11448_23707">
      <rect width="14.4" height="14.4" fill="white" transform="translate(0.400391 0.858398)"/>
    </clipPath>
  </defs>
</svg>