<svg width="13" height="13" viewBox="0 0 13 13" fill="none" xmlns="http://www.w3.org/2000/svg">
<g id="vscode-icons:file-type-excel">
<path id="Vector" d="M7.95479 6.23604L3.45801 5.44385V11.2975C3.45806 11.3611 3.47064 11.4241 3.49502 11.4828C3.51941 11.5415 3.55512 11.5949 3.60013 11.6398C3.64513 11.6847 3.69855 11.7204 3.75732 11.7446C3.81609 11.7689 3.87907 11.7814 3.94266 11.7813H11.702C11.7657 11.7815 11.8288 11.7691 11.8876 11.7449C11.9465 11.7206 12 11.685 12.0451 11.6401C12.0902 11.5951 12.126 11.5418 12.1504 11.483C12.1748 11.4242 12.1875 11.3612 12.1875 11.2975V9.14072L7.95479 6.23604Z" fill="#185C37"/>
<path id="Vector_2" d="M7.95479 1.21875H3.94266C3.87907 1.2187 3.81609 1.23117 3.75732 1.25546C3.69855 1.27974 3.64513 1.31537 3.60013 1.3603C3.55512 1.40523 3.51941 1.45858 3.49502 1.51731C3.47064 1.57604 3.45806 1.639 3.45801 1.70259V3.85938L7.95479 6.5L10.3358 7.29219L12.1875 6.5V3.85938L7.95479 1.21875Z" fill="#21A366"/>
<path id="Vector_3" d="M3.45801 3.85938H7.95479V6.5H3.45801V3.85938Z" fill="#107C41"/>
<path id="Vector_4" opacity="0.1" d="M6.67632 3.3313H3.45801V9.93286H6.67632C6.80456 9.93222 6.92738 9.88108 7.01818 9.79052C7.10897 9.69995 7.16042 9.57726 7.16138 9.44902V3.81514C7.16042 3.68691 7.10897 3.56421 7.01818 3.47364C6.92738 3.38308 6.80456 3.33194 6.67632 3.3313Z" fill="black"/>
<path id="Vector_5" opacity="0.2" d="M6.41185 3.59521H3.45801V10.1968H6.41185C6.54009 10.1961 6.66291 10.145 6.75371 10.0544C6.8445 9.96386 6.89595 9.84117 6.89691 9.71293V4.07906C6.89595 3.95082 6.8445 3.82813 6.75371 3.73756C6.66291 3.647 6.54009 3.59585 6.41185 3.59521Z" fill="black"/>
<path id="Vector_6" opacity="0.2" d="M6.41185 3.59521H3.45801V9.66865H6.41185C6.54009 9.66801 6.66291 9.61687 6.75371 9.52631C6.8445 9.43574 6.89595 9.31305 6.89691 9.18481V4.07906C6.89595 3.95082 6.8445 3.82813 6.75371 3.73756C6.66291 3.647 6.54009 3.59585 6.41185 3.59521Z" fill="black"/>
<path id="Vector_7" opacity="0.2" d="M6.14738 3.59521H3.45801V9.66865H6.14738C6.27562 9.66801 6.39845 9.61687 6.48924 9.52631C6.58003 9.43574 6.63149 9.31305 6.63245 9.18481V4.07906C6.63149 3.95082 6.58003 3.82813 6.48924 3.73756C6.39845 3.647 6.27562 3.59585 6.14738 3.59521Z" fill="black"/>
<path id="Vector_8" d="M1.29756 3.59522H6.14737C6.27584 3.59511 6.3991 3.64601 6.49005 3.73674C6.58101 3.82746 6.63222 3.95059 6.63244 4.07906V8.92075C6.63222 9.04921 6.58101 9.17234 6.49005 9.26307C6.3991 9.3538 6.27584 9.4047 6.14737 9.40459H1.29756C1.23394 9.4047 1.17091 9.39226 1.11209 9.368C1.05327 9.34374 0.999812 9.30812 0.954764 9.26319C0.909717 9.21825 0.873966 9.16488 0.849556 9.10612C0.825145 9.04737 0.812553 8.98437 0.8125 8.92075V4.07906C0.812553 4.01543 0.825145 3.95244 0.849556 3.89368C0.873966 3.83492 0.909717 3.78155 0.954764 3.73662C0.999812 3.69168 1.05327 3.65607 1.11209 3.6318C1.17091 3.60754 1.23394 3.59511 1.29756 3.59522Z" fill="url(#paint0_linear_3373_5697)"/>
<path id="Vector_9" d="M2.31543 8.07333L3.33552 6.49545L2.40115 4.92651H3.15149L3.66134 5.93117C3.70846 6.02623 3.74259 6.09692 3.75802 6.14404H3.76493C3.79824 6.06767 3.83359 5.99414 3.87055 5.92223L4.41574 4.92814H5.10637L4.14802 6.48814L5.13074 8.07454H4.39584L3.80677 6.9732C3.77942 6.92585 3.75618 6.87624 3.7373 6.82492H3.72755C3.71038 6.87492 3.68748 6.92277 3.6593 6.96751L3.05277 8.07333H2.31543Z" fill="white"/>
<path id="Vector_10" d="M11.7022 1.21875H7.95459V3.85938H12.1873V1.70259C12.1873 1.63897 12.1747 1.57597 12.1503 1.51722C12.1258 1.45846 12.0901 1.40509 12.045 1.36015C12 1.31522 11.9465 1.2796 11.8877 1.25534C11.8289 1.23108 11.7659 1.21864 11.7022 1.21875Z" fill="#33C481"/>
<path id="Vector_11" d="M7.95459 6.5H12.1873V9.14062H7.95459V6.5Z" fill="#107C41"/>
</g>
<defs>
<linearGradient id="paint0_linear_3373_5697" x1="1.82569" y1="3.21497" x2="5.61925" y2="9.78484" gradientUnits="userSpaceOnUse">
<stop stop-color="#18884F"/>
<stop offset="0.5" stop-color="#117E43"/>
<stop offset="1" stop-color="#0B6631"/>
</linearGradient>
</defs>
</svg>
