<svg width="20" height="20" viewBox="0 0 20 20" fill="none" xmlns="http://www.w3.org/2000/svg">
<path fill-rule="evenodd" clip-rule="evenodd" d="M0.0699999 3.258C-6.70552e-08 3.626 0 4.068 0 4.95V12C0 15.771 -1.19209e-07 17.657 1.172 18.828C2.343 20 4.229 20 8 20H12C15.771 20 17.657 20 18.828 18.828C20 17.657 20 15.771 20 12V9.798C20 7.166 20 5.849 19.23 4.994C19.1594 4.91508 19.0846 4.83997 19.006 4.769C18.151 4 16.834 4 14.202 4H13.828C12.675 4 12.098 4 11.56 3.847C11.2648 3.7626 10.9802 3.64449 10.712 3.495C10.224 3.224 9.816 2.815 9 2L8.45 1.45C8.176 1.176 8.04 1.04 7.896 0.92C7.27667 0.40664 6.51694 0.0919439 5.716 0.017C5.53 -4.09782e-08 5.336 0 4.95 0C4.067 0 3.626 -6.70552e-08 3.258 0.0699999C2.46784 0.219224 1.741 0.603137 1.17231 1.17165C0.603613 1.74017 0.219472 2.46789 0.0699999 3.258ZM10.25 8C10.25 7.80109 10.329 7.61032 10.4697 7.46967C10.6103 7.32902 10.8011 7.25 11 7.25H16C16.1989 7.25 16.3897 7.32902 16.5303 7.46967C16.671 7.61032 16.75 7.80109 16.75 8C16.75 8.19891 16.671 8.38968 16.5303 8.53033C16.3897 8.67098 16.1989 8.75 16 8.75H11C10.8011 8.75 10.6103 8.67098 10.4697 8.53033C10.329 8.38968 10.25 8.19891 10.25 8Z" fill="#001B69"/>
</svg>
