<svg width="41" height="40" viewBox="0 0 41 40" fill="none" xmlns="http://www.w3.org/2000/svg">
<g id="material-symbols:folder-managed">
<path id="Vector" d="M28.833 36.666L28.333 34.166C27.9997 34.0271 27.6875 33.8816 27.3963 33.7293C27.1052 33.5771 26.8063 33.3893 26.4997 33.166L24.083 33.916L22.4163 31.0827L24.333 29.416C24.2775 29.0827 24.2497 28.7216 24.2497 28.3327C24.2497 27.9438 24.2775 27.5827 24.333 27.2493L22.4163 25.5827L24.083 22.7493L26.4997 23.4993C26.8052 23.2771 27.1041 23.0899 27.3963 22.9377C27.6886 22.7855 28.0008 22.6393 28.333 22.4993L28.833 19.9993H32.1663L32.6663 22.4993C32.9997 22.6382 33.3125 22.7843 33.6047 22.9377C33.8969 23.091 34.1952 23.2782 34.4997 23.4993L36.9163 22.7493L38.583 25.5827L36.6663 27.2493C36.7219 27.5827 36.7497 27.9438 36.7497 28.3327C36.7497 28.7216 36.7219 29.0827 36.6663 29.416L38.583 31.0827L36.9163 33.916L34.4997 33.166C34.1941 33.3882 33.8958 33.576 33.6047 33.7293C33.3136 33.8827 33.0008 34.0282 32.6663 34.166L32.1663 36.666H28.833ZM30.4997 31.666C31.4163 31.666 32.2013 31.3399 32.8547 30.6877C33.508 30.0355 33.8341 29.2505 33.833 28.3327C33.833 27.416 33.5069 26.6316 32.8547 25.9793C32.2025 25.3271 31.4175 25.0005 30.4997 24.9993C29.583 24.9993 28.7986 25.326 28.1463 25.9793C27.4941 26.6327 27.1675 27.4171 27.1663 28.3327C27.1663 29.2493 27.493 30.0343 28.1463 30.6877C28.7997 31.341 29.5841 31.6671 30.4997 31.666ZM7.16634 33.3327C6.24967 33.3327 5.46523 33.0066 4.81301 32.3543C4.16079 31.7021 3.83412 30.9171 3.83301 29.9993V9.99935C3.83301 9.08268 4.15967 8.29824 4.81301 7.64602C5.46634 6.99379 6.25079 6.66713 7.16634 6.66602H17.1663L20.4997 9.99935H33.833C34.7497 9.99935 35.5347 10.326 36.188 10.9793C36.8413 11.6327 37.1674 12.4171 37.1663 13.3327V18.791C36.1941 18.0966 35.1386 17.5688 33.9997 17.2077C32.8608 16.8466 31.6802 16.666 30.458 16.666C27.1802 16.666 24.4236 17.8121 22.188 20.1043C19.9525 22.3966 18.8341 25.1255 18.833 28.291C18.833 29.1799 18.9302 30.041 19.1247 30.8743C19.3191 31.7077 19.6108 32.5271 19.9997 33.3327H7.16634Z" fill="white"/>
</g>
</svg>
