<svg width="35" height="34" viewBox="0 0 35 34" fill="none" xmlns="http://www.w3.org/2000/svg">
<path d="M17.4999 0.332031C8.29992 0.332031 0.833252 7.7987 0.833252 16.9987C0.833252 26.1987 8.29992 33.6654 17.4999 33.6654C26.6999 33.6654 34.1666 26.1987 34.1666 16.9987C34.1666 7.7987 26.6999 0.332031 17.4999 0.332031ZM10.8333 26.1654C9.72818 26.1654 8.66838 25.7264 7.88697 24.945C7.10557 24.1636 6.66658 23.1038 6.66658 21.9987C6.66658 20.8936 7.10557 19.8338 7.88697 19.0524C8.66838 18.271 9.72818 17.832 10.8333 17.832C11.9383 17.832 12.9981 18.271 13.7795 19.0524C14.5609 19.8338 14.9999 20.8936 14.9999 21.9987C14.9999 23.1038 14.5609 24.1636 13.7795 24.945C12.9981 25.7264 11.9383 26.1654 10.8333 26.1654ZM13.3333 10.332C13.3333 9.22696 13.7722 8.16715 14.5536 7.38575C15.335 6.60435 16.3948 6.16536 17.4999 6.16536C18.605 6.16536 19.6648 6.60435 20.4462 7.38575C21.2276 8.16715 21.6666 9.22696 21.6666 10.332C21.6666 11.4371 21.2276 12.4969 20.4462 13.2783C19.6648 14.0597 18.605 14.4987 17.4999 14.4987C16.3948 14.4987 15.335 14.0597 14.5536 13.2783C13.7722 12.4969 13.3333 11.4371 13.3333 10.332ZM24.1666 26.1654C23.0615 26.1654 22.0017 25.7264 21.2203 24.945C20.4389 24.1636 19.9999 23.1038 19.9999 21.9987C19.9999 20.8936 20.4389 19.8338 21.2203 19.0524C22.0017 18.271 23.0615 17.832 24.1666 17.832C25.2717 17.832 26.3315 18.271 27.1129 19.0524C27.8943 19.8338 28.3333 20.8936 28.3333 21.9987C28.3333 23.1038 27.8943 24.1636 27.1129 24.945C26.3315 25.7264 25.2717 26.1654 24.1666 26.1654Z" fill="white"/>
</svg>
