<svg width="25" height="24" viewBox="0 0 25 24" fill="none" xmlns="http://www.w3.org/2000/svg">
<g id="Group">
<path id="Vector" d="M18.7416 14.03C18.8691 14.0618 18.989 14.1184 19.0946 14.1966C19.2002 14.2748 19.2893 14.373 19.3569 14.4857C19.4246 14.5983 19.4693 14.7232 19.4886 14.8531C19.508 14.9831 19.5015 15.1156 19.4696 15.243L18.7796 18H19.4996V17C19.4996 16.7348 19.605 16.4804 19.7925 16.2929C19.98 16.1054 20.2344 16 20.4996 16C20.7648 16 21.0192 16.1054 21.2067 16.2929C21.3943 16.4804 21.4996 16.7348 21.4996 17V18C21.7648 18 22.0192 18.1054 22.2067 18.2929C22.3943 18.4804 22.4996 18.7348 22.4996 19C22.4996 19.2652 22.3943 19.5196 22.2067 19.7071C22.0192 19.8946 21.7648 20 21.4996 20V21C21.4996 21.2652 21.3943 21.5196 21.2067 21.7071C21.0192 21.8946 20.7648 22 20.4996 22C20.2344 22 19.98 21.8946 19.7925 21.7071C19.605 21.5196 19.4996 21.2652 19.4996 21V20H17.4996C17.3477 20 17.1978 19.9653 17.0613 19.8987C16.9248 19.8321 16.8053 19.7352 16.7118 19.6155C16.6183 19.4958 16.5533 19.3564 16.5217 19.2078C16.4901 19.0592 16.4928 18.9054 16.5296 18.758L17.5296 14.758C17.5939 14.5008 17.7576 14.2796 17.9849 14.1431C18.2122 14.0066 18.4844 13.9659 18.7416 14.03ZM13.9996 14C14.6343 13.9999 15.2453 14.2412 15.7087 14.675C16.172 15.1088 16.453 15.7026 16.4946 16.336L16.4996 16.5V16.825C16.4996 17.425 16.3096 18.006 15.9586 18.488L15.8186 18.663L14.6746 20H15.4996C15.7545 20.0003 15.9996 20.0979 16.185 20.2728C16.3703 20.4478 16.4818 20.687 16.4968 20.9414C16.5117 21.1958 16.4289 21.4464 16.2653 21.6418C16.1018 21.8373 15.8697 21.9629 15.6166 21.993L15.4996 22H12.4996C12.3192 22.0001 12.1422 21.9514 11.9873 21.8591C11.8323 21.7668 11.7052 21.6343 11.6194 21.4756C11.5337 21.317 11.4924 21.1381 11.5 20.9579C11.5076 20.7777 11.5638 20.6029 11.6626 20.452L11.7406 20.349L14.3006 17.362C14.4026 17.2429 14.4685 17.0972 14.4906 16.942L14.4996 16.825V16.5C14.4996 16.3674 14.4469 16.2402 14.3532 16.1464C14.2594 16.0527 14.1322 16 13.9996 16C13.867 16 13.7398 16.0527 13.6461 16.1464C13.5523 16.2402 13.4996 16.3674 13.4996 16.5C13.4996 16.7652 13.3942 17.0196 13.2067 17.2071C13.0192 17.3946 12.7648 17.5 12.4996 17.5C12.2344 17.5 11.98 17.3946 11.7925 17.2071C11.605 17.0196 11.4996 16.7652 11.4996 16.5C11.4996 15.837 11.763 15.2011 12.2318 14.7322C12.7007 14.2634 13.3366 14 13.9996 14ZM12.4996 3C16.6946 3 20.2166 5.87 21.2156 9.75C21.2819 10.0069 21.2435 10.2795 21.1087 10.5081C20.974 10.7366 20.754 10.9022 20.4971 10.9685C20.2402 11.0348 19.9676 10.9964 19.739 10.8616C19.5105 10.7269 19.3449 10.5069 19.2786 10.25C18.9897 9.13314 18.4292 8.10498 17.6471 7.257C16.8649 6.40902 15.8853 5.76749 14.7954 5.38947C13.7054 5.01146 12.539 4.90868 11.3997 5.09029C10.2605 5.27189 9.1838 5.73224 8.26541 6.43039C7.34702 7.12854 6.61541 8.04284 6.13567 9.09198C5.65592 10.1411 5.4429 11.2926 5.51556 12.4439C5.58822 13.5952 5.94431 14.7108 6.55215 15.6913C7.15999 16.6718 8.00073 17.4868 8.99961 18.064C9.21727 18.2024 9.37306 18.4195 9.43442 18.67C9.49578 18.9205 9.45798 19.1851 9.3289 19.4084C9.19982 19.6317 8.98946 19.7965 8.74175 19.8683C8.49404 19.9402 8.22815 19.9136 7.99961 19.794C6.28394 18.8033 4.94309 17.2743 4.18499 15.4439C3.4269 13.6136 3.29392 11.5842 3.80668 9.6706C4.31944 7.75697 5.44929 6.066 7.02101 4.85993C8.59272 3.65386 10.5185 3.00009 12.4996 3ZM12.4996 7C12.7445 7.00003 12.9809 7.08996 13.164 7.25272C13.347 7.41547 13.464 7.63975 13.4926 7.883L13.4996 8V12C13.4996 12.2449 13.4097 12.4813 13.2469 12.6644C13.0841 12.8474 12.8599 12.9643 12.6166 12.993L12.4996 13H10.4996C10.2447 12.9997 9.99957 12.9021 9.81424 12.7272C9.6289 12.5522 9.51737 12.313 9.50243 12.0586C9.4875 11.8042 9.57028 11.5536 9.73387 11.3582C9.89746 11.1627 10.1295 11.0371 10.3826 11.007L10.4996 11H11.4996V8C11.4996 7.73478 11.605 7.48043 11.7925 7.29289C11.98 7.10536 12.2344 7 12.4996 7Z" fill="black" fill-opacity="0.5"/>
</g>
</svg>
