<svg width="31" height="32" viewBox="0 0 31 32" fill="none" xmlns="http://www.w3.org/2000/svg">
<path d="M20.0208 18.5833H19.0004L18.6387 18.2346C19.9483 16.7156 20.6681 14.7764 20.6667 12.7708C20.6667 11.1103 20.1743 9.48705 19.2517 8.10636C18.3292 6.72567 17.0179 5.64956 15.4838 5.0141C13.9496 4.37864 12.2615 4.21237 10.6329 4.53633C9.00425 4.86028 7.50826 5.65991 6.33408 6.83409C5.1599 8.00826 4.36027 9.50426 4.03632 11.1329C3.71236 12.7615 3.87863 14.4496 4.51409 15.9838C5.14955 17.5179 6.22567 18.8292 7.60635 19.7517C8.98704 20.6743 10.6103 21.1667 12.2708 21.1667C14.3504 21.1667 16.2621 20.4046 17.7346 19.1388L18.0833 19.5004V20.5208L24.5417 26.9663L26.4662 25.0417L20.0208 18.5833ZM12.2708 18.5833C9.05458 18.5833 6.45833 15.9871 6.45833 12.7708C6.45833 9.55459 9.05458 6.95834 12.2708 6.95834C15.4871 6.95834 18.0833 9.55459 18.0833 12.7708C18.0833 15.9871 15.4871 18.5833 12.2708 18.5833Z" fill="#252525"/>
</svg>
