<svg width="30" height="29" viewBox="0 0 30 29" fill="none" xmlns="http://www.w3.org/2000/svg">
<g id="material-symbols:save-outline">
<path id="Vector" d="M26.25 8.45834V22.9583C26.25 23.6229 26.005 24.192 25.515 24.6657C25.025 25.1394 24.4367 25.3758 23.75 25.375H6.25C5.5625 25.375 4.97375 25.1382 4.48375 24.6645C3.99375 24.1908 3.74917 23.6221 3.75 22.9583V6.04167C3.75 5.37709 3.995 4.80796 4.485 4.33429C4.975 3.86063 5.56334 3.6242 6.25 3.625H21.25L26.25 8.45834ZM23.75 9.48542L20.1875 6.04167H6.25V22.9583H23.75V9.48542ZM15 21.75C16.0417 21.75 16.9271 21.3976 17.6563 20.6927C18.3854 19.9878 18.75 19.1319 18.75 18.125C18.75 17.1181 18.3854 16.2622 17.6563 15.5573C16.9271 14.8524 16.0417 14.5 15 14.5C13.9583 14.5 13.0729 14.8524 12.3438 15.5573C11.6146 16.2622 11.25 17.1181 11.25 18.125C11.25 19.1319 11.6146 19.9878 12.3438 20.6927C13.0729 21.3976 13.9583 21.75 15 21.75ZM7.5 12.0833H18.75V7.25H7.5V12.0833ZM6.25 9.48542V22.9583V6.04167V9.48542Z" fill="#001B69"/>
</g>
</svg>
