<svg width="17" height="22" viewBox="0 0 17 22" fill="none" xmlns="http://www.w3.org/2000/svg">
<path fill-rule="evenodd" clip-rule="evenodd" d="M2.77889 1.85028C3.43409 1.85028 3.88633 2.52456 3.79842 3.17383C3.76538 3.41793 3.74883 3.66483 3.74915 3.91264C3.74915 4.45961 3.95359 4.98418 4.31751 5.37095C4.68143 5.75771 5.175 5.975 5.68966 5.975H11.5112C12.0259 5.975 12.5194 5.75771 12.8833 5.37095C13.2473 4.98418 13.4517 4.45961 13.4517 3.91264C13.4517 3.66182 13.4349 3.41511 13.4024 3.17379C13.3149 2.52483 13.7671 1.85028 14.422 1.85028V1.85028C14.9366 1.85028 15.4302 2.06756 15.7941 2.45433C16.158 2.8411 16.3625 3.36566 16.3625 3.91264V19.3803C16.3625 19.9273 16.158 20.4519 15.7941 20.8387C15.4302 21.2254 14.9366 21.4427 14.422 21.4427H2.77889C2.26424 21.4427 1.77066 21.2254 1.40674 20.8387C1.04283 20.4519 0.838379 19.9273 0.838379 19.3803V3.91264C0.838379 3.36566 1.04283 2.8411 1.40674 2.45433C1.77066 2.06756 2.26424 1.85028 2.77889 1.85028V1.85028ZM8.60043 13.1933H5.68966C5.43233 13.1933 5.18554 13.3019 5.00359 13.4953C4.82163 13.6887 4.7194 13.951 4.7194 14.2244C4.7194 14.4979 4.82163 14.7602 5.00359 14.9536C5.18554 15.147 5.43233 15.2556 5.68966 15.2556H8.60043C8.85776 15.2556 9.10454 15.147 9.2865 14.9536C9.46846 14.7602 9.57068 14.4979 9.57068 14.2244C9.57068 13.951 9.46846 13.6887 9.2865 13.4953C9.10454 13.3019 8.85776 13.1933 8.60043 13.1933ZM11.5112 9.06854H5.68966C5.44236 9.06883 5.2045 9.16947 5.02468 9.3499C4.84485 9.53032 4.73664 9.77691 4.72215 10.0393C4.70765 10.3017 4.78798 10.56 4.9467 10.7616C5.10542 10.9631 5.33057 11.0926 5.57614 11.1237L5.68966 11.1309H11.5112C11.7685 11.1309 12.0153 11.0223 12.1973 10.8289C12.3792 10.6355 12.4815 10.3732 12.4815 10.0997C12.4815 9.82623 12.3792 9.56395 12.1973 9.37057C12.0153 9.17718 11.7685 9.06854 11.5112 9.06854ZM8.60043 0.819095C9.01005 0.818454 9.41516 0.910012 9.78909 1.08774C10.163 1.26548 10.4973 1.52536 10.7699 1.85028C11.1852 2.34318 11.453 2.97736 11.5025 3.67753V3.67753C11.5072 3.80594 11.4044 3.91264 11.2759 3.91264H7.80465C6.63657 3.91264 5.63735 2.86732 6.35429 1.94514V1.94514L6.43094 1.85028C6.96458 1.21713 7.73884 0.819095 8.60043 0.819095Z" fill="white"/>
</svg>
