<svg width="48" height="48" viewBox="0 0 48 48" fill="none" xmlns="http://www.w3.org/2000/svg">
<path fill-rule="evenodd" clip-rule="evenodd" d="M38.4217 43.2768L43.2256 38.473L41.5337 32.3264L42.2708 30.566L47.8334 27.4272V20.6339L42.2866 17.482L41.5619 15.7247L43.275 9.57506L38.4677 4.77476L32.3206 6.46616L30.5642 5.72971L27.4251 0.166626H20.6318L17.4799 5.71339L15.723 6.43796L9.57432 4.72271L4.77454 9.52248L6.46622 15.6706L5.72977 17.427L0.166687 20.5661V27.3575L5.70845 30.5164L6.43382 32.2752L4.72095 38.4238L9.52254 43.2254L15.6706 41.5338L17.4273 42.2703L20.5664 47.8311H27.358L30.5146 42.2892L32.273 41.564L38.4217 43.2768ZM38.8474 27.5221L36.9585 32.0334L38.3785 37.1918L37.1469 38.4234L31.9994 36.9894L27.4861 38.8508L24.8393 43.4978H23.0963L20.4714 38.8478L15.9651 36.9584L10.8039 38.3785L9.57441 37.149L11.0084 32.0016L9.14713 27.4886L4.50002 24.8397V23.0965L9.15207 20.4715L11.0416 15.965L9.62148 10.8038L10.8484 9.57691L15.9958 11.0129L20.5107 9.15082L23.1535 4.49996H24.8947L27.5197 9.15201L32.0262 11.0415L37.1884 9.62114L38.421 10.8519L36.9873 15.9984L38.8492 20.5128L43.5 23.1556V24.8968L38.8474 27.5221ZM24 32.6666C19.2136 32.6666 15.3334 28.7864 15.3334 24C15.3334 19.2135 19.2136 15.3333 24 15.3333C28.7865 15.3333 32.6667 19.2135 32.6667 24C32.6667 28.7864 28.7865 32.6666 24 32.6666ZM28.3334 24C28.3334 26.3932 26.3933 28.3333 24 28.3333C21.6068 28.3333 19.6667 26.3932 19.6667 24C19.6667 21.6067 21.6068 19.6666 24 19.6666C26.3933 19.6666 28.3334 21.6067 28.3334 24Z" fill="#EEFAFF"/>
</svg>
