<svg xmlns="http://www.w3.org/2000/svg" width="22" height="22" viewBox="0 0 22 22" fill="#203881">
  <path
    d="M4.49995 18.9002C4.00495 18.9002 3.58105 18.7238 3.22825 18.371C2.87545 18.0182 2.69935 17.5946 2.69995 17.1002V4.5002C2.69995 4.0052 2.87635 3.5813 3.22915 3.2285C3.58195 2.8757 4.00555 2.6996 4.49995 2.7002H17.1C17.595 2.7002 18.0189 2.8766 18.3717 3.2294C18.7245 3.5822 18.9006 4.0058 18.9 4.5002V17.1002C18.9 17.5952 18.7236 18.0191 18.3708 18.3719C18.018 18.7247 17.5944 18.9008 17.1 18.9002H4.49995ZM10.8 14.4002C11.37 14.4002 11.8875 14.2352 12.3525 13.9052C12.8175 13.5752 13.14 13.1402 13.32 12.6002H17.1V4.5002H4.49995V12.6002H8.27995C8.45995 13.1402 8.78245 13.5752 9.24745 13.9052C9.71245 14.2352 10.23 14.4002 10.8 14.4002Z"
    fill="#001B69" />
</svg>