<svg width="24" height="24" viewBox="0 0 24 24" fill="none" xmlns="http://www.w3.org/2000/svg">
<path d="M5 21C4.45 21 3.979 20.804 3.587 20.412C3.195 20.02 2.99934 19.5493 3 19V5C3 4.45 3.196 3.979 3.588 3.587C3.98 3.195 4.45067 2.99934 5 3H19C19.55 3 20.021 3.196 20.413 3.588C20.805 3.98 21.0007 4.45067 21 5V19C21 19.55 20.804 20.021 20.412 20.413C20.02 20.805 19.5493 21.0007 19 21H5ZM5 19H19V16H16C15.5 16.6333 14.904 17.125 14.212 17.475C13.52 17.825 12.7827 18 12 18C11.2167 18 10.4793 17.825 9.788 17.475C9.09667 17.125 8.50067 16.6333 8 16H5V19ZM12 16C12.6333 16 13.2083 15.8167 13.725 15.45C14.2417 15.0833 14.6 14.6 14.8 14H19V5H5V14H9.2C9.4 14.6 9.75834 15.0833 10.275 15.45C10.7917 15.8167 11.3667 16 12 16Z" fill="black"/>
</svg>
