<svg width="19" height="20" viewBox="0 0 19 20" fill="none" xmlns="http://www.w3.org/2000/svg">
<rect width="19" height="20" rx="3" fill="#868FA0"/>
<path fill-rule="evenodd" clip-rule="evenodd" d="M15.75 4.5H7.5V5.5H15.75V4.5ZM2.58706 6.11114C2.3673 5.78224 2.25 5.39556 2.25 5C2.2506 4.46975 2.4615 3.96139 2.83644 3.58644C3.21139 3.2115 3.71975 3.0006 4.25 3C4.64556 3 5.03224 3.1173 5.36114 3.33706C5.69004 3.55682 5.94638 3.86918 6.09776 4.23463C6.24913 4.60009 6.28874 5.00222 6.21157 5.39018C6.1344 5.77814 5.94392 6.13451 5.66421 6.41421C5.38451 6.69392 5.02814 6.8844 4.64018 6.96157C4.25222 7.03874 3.85009 6.99913 3.48463 6.84776C3.11918 6.69638 2.80682 6.44004 2.58706 6.11114ZM4.80557 4.16853C4.64112 4.05865 4.44778 4 4.25 4C3.98487 4.0003 3.73069 4.10575 3.54322 4.29322C3.35575 4.48069 3.2503 4.73487 3.25 5C3.25 5.19778 3.30865 5.39112 3.41853 5.55557C3.52841 5.72002 3.68459 5.84819 3.86732 5.92388C4.05004 5.99957 4.25111 6.01937 4.44509 5.98079C4.63907 5.9422 4.81725 5.84696 4.95711 5.70711C5.09696 5.56725 5.1922 5.38907 5.23079 5.19509C5.26937 5.00111 5.24957 4.80004 5.17388 4.61732C5.09819 4.43459 4.97002 4.27841 4.80557 4.16853ZM11.4364 9.5H7.5V10.5H10.1458C10.51 10.0932 10.947 9.753 11.4364 9.5ZM15.5636 9.5C15.6266 9.53258 15.6888 9.5666 15.75 9.60202V9.5H15.5636ZM9.11151 14.5C9.19108 14.8506 9.31159 15.1857 9.46776 15.5H7.5V14.5H9.11151ZM5.36114 11.6629C5.03224 11.8827 4.64556 12 4.25 12C3.71975 11.9994 3.21139 11.7885 2.83644 11.4136C2.4615 11.0386 2.2506 10.5303 2.25 10C2.25 9.60444 2.3673 9.21776 2.58706 8.88886C2.80682 8.55996 3.11918 8.30362 3.48463 8.15224C3.85009 8.00087 4.25222 7.96126 4.64018 8.03843C5.02814 8.1156 5.38451 8.30608 5.66421 8.58579C5.94392 8.86549 6.1344 9.22186 6.21157 9.60982C6.28874 9.99778 6.24913 10.3999 6.09776 10.7654C5.94638 11.1308 5.69004 11.4432 5.36114 11.6629ZM4.80557 9.16853C4.64112 9.05865 4.44778 9 4.25 9C3.98487 9.0003 3.73069 9.10575 3.54322 9.29322C3.35575 9.48069 3.2503 9.73487 3.25 10C3.25 10.1978 3.30865 10.3911 3.41853 10.5556C3.52841 10.72 3.68459 10.8482 3.86732 10.9239C4.05004 10.9996 4.25111 11.0194 4.44509 10.9808C4.63907 10.9422 4.81725 10.847 4.95711 10.7071C5.09696 10.5673 5.1922 10.3891 5.23079 10.1951C5.26937 10.0011 5.24957 9.80004 5.17388 9.61732C5.09819 9.43459 4.97002 9.27841 4.80557 9.16853ZM5.36114 16.6629C5.03224 16.8827 4.64556 17 4.25 17C3.71975 16.9994 3.21139 16.7885 2.83644 16.4136C2.4615 16.0386 2.2506 15.5303 2.25 15C2.25 14.6044 2.3673 14.2178 2.58706 13.8889C2.80682 13.56 3.11918 13.3036 3.48463 13.1522C3.85009 13.0009 4.25222 12.9613 4.64018 13.0384C5.02814 13.1156 5.38451 13.3061 5.66421 13.5858C5.94392 13.8655 6.1344 14.2219 6.21157 14.6098C6.28874 14.9978 6.24913 15.3999 6.09776 15.7654C5.94638 16.1308 5.69004 16.4432 5.36114 16.6629ZM4.80557 14.1685C4.64112 14.0586 4.44778 14 4.25 14C3.98487 14.0003 3.73069 14.1058 3.54322 14.2932C3.35575 14.4807 3.2503 14.7349 3.25 15C3.25 15.1978 3.30865 15.3911 3.41853 15.5556C3.52841 15.72 3.68459 15.8482 3.86732 15.9239C4.05004 15.9996 4.25111 16.0194 4.44509 15.9808C4.63907 15.9422 4.81725 15.847 4.95711 15.7071C5.09696 15.5673 5.1922 15.3891 5.23079 15.1951C5.26937 15.0011 5.24957 14.8 5.17388 14.6173C5.09819 14.4346 4.97002 14.2784 4.80557 14.1685Z" fill="white"/>
<g clip-path="url(#clip0_4206_6038)">
<path fill-rule="evenodd" clip-rule="evenodd" d="M17.6566 15.2221C17.8827 14.6761 17.9991 14.0909 17.9991 13.5C17.9991 12.3065 17.525 11.1619 16.6811 10.318C15.8372 9.47411 14.6926 9 13.4991 9C12.3057 9 11.1611 9.47411 10.3172 10.318C9.47325 11.1619 8.99915 12.3065 8.99915 13.5C8.99915 14.0909 9.11554 14.6761 9.34169 15.2221C9.56783 15.768 9.8993 16.2641 10.3172 16.682C10.735 17.0998 11.2311 17.4313 11.7771 17.6575C12.323 17.8836 12.9082 18 13.4991 18C14.0901 18 14.6753 17.8836 15.2212 17.6575C15.7672 17.4313 16.2633 17.0998 16.6811 16.682C17.099 16.2641 17.4305 15.768 17.6566 15.2221ZM13.1481 15.856L13.1451 15.853V15.854L11.1451 13.854C11.0513 13.7601 10.9985 13.6328 10.9985 13.5C10.9985 13.3672 11.0513 13.2399 11.1451 13.146C11.239 13.0521 11.3664 12.9994 11.4991 12.9994C11.6319 12.9994 11.7593 13.0521 11.8531 13.146L12.9991 14.293V11.5C12.9991 11.3674 13.0518 11.2402 13.1456 11.1464C13.2394 11.0527 13.3665 11 13.4991 11C13.6318 11 13.7589 11.0527 13.8527 11.1464C13.9465 11.2402 13.9991 11.3674 13.9991 11.5V14.293L15.1451 13.146C15.239 13.0522 15.3663 12.9996 15.499 12.9997C15.6317 12.9998 15.7589 13.0526 15.8526 13.1465C15.9464 13.2404 15.999 13.3677 15.9989 13.5004C15.9988 13.633 15.946 13.7602 15.8521 13.854L13.8521 15.854C13.7592 15.9467 13.6335 15.9992 13.5021 16H13.4961C13.3658 15.9993 13.2409 15.9476 13.1481 15.856Z" fill="white"/>
</g>
<defs>
<clipPath id="clip0_4206_6038">
<rect width="9" height="9" fill="white" transform="translate(9 9)"/>
</clipPath>
</defs>
</svg>
