<svg width="19" height="18" viewBox="0 0 19 18" fill="none" xmlns="http://www.w3.org/2000/svg">
<g clip-path="url(#clip0_4095_4882)">
<path d="M8.40039 3.75H3.15039C2.95148 3.75 2.76071 3.82902 2.62006 3.96967C2.47941 4.11032 2.40039 4.30109 2.40039 4.5V14.25C2.40039 14.4489 2.47941 14.6397 2.62006 14.7803C2.76071 14.921 2.95148 15 3.15039 15H16.6504C16.8493 15 17.0401 14.921 17.1807 14.7803C17.3214 14.6397 17.4004 14.4489 17.4004 14.25V13.3125" stroke="#0E9CD8" stroke-width="1.5" stroke-linecap="round" stroke-linejoin="round"/>
<path d="M4.65039 8.625H7.65039M4.65039 11.625H13.6504" stroke="#0E9CD8" stroke-width="1.5" stroke-linecap="round"/>
<path d="M13.6504 8.25C14.893 8.25 15.9004 7.24264 15.9004 6C15.9004 4.75736 14.893 3.75 13.6504 3.75C12.4077 3.75 11.4004 4.75736 11.4004 6C11.4004 7.24264 12.4077 8.25 13.6504 8.25Z" stroke="#0E9CD8" stroke-width="1.5" stroke-linecap="round" stroke-linejoin="round"/>
<path d="M17.4006 10.6571C16.6682 9.22575 15.1506 8.25 13.6506 8.25C12.1506 8.25 11.4032 8.67488 10.6318 9.375" stroke="#0E9CD8" stroke-width="1.5" stroke-linecap="round" stroke-linejoin="round"/>
</g>
<defs>
<clipPath id="clip0_4095_4882">
<rect width="18" height="18" fill="white" transform="translate(0.900391)"/>
</clipPath>
</defs>
</svg>
