<svg width="249" height="146" viewBox="0 0 249 146" fill="none" xmlns="http://www.w3.org/2000/svg">
<path d="M137 25C137 22.8783 137.843 20.8434 139.343 19.3432C140.843 17.8429 142.878 17 145 17H241C243.122 17 245.157 17.8429 246.657 19.3432C248.157 20.8434 249 22.8783 249 25C249 27.1217 248.157 29.1566 246.657 30.6569C245.157 32.1572 243.122 33 241 33H145C142.878 33 140.843 32.1572 139.343 30.6569C137.843 29.1566 137 27.1217 137 25ZM241 65H145C142.878 65 140.843 65.8429 139.343 67.3432C137.843 68.8434 137 70.8783 137 73C137 75.1217 137.843 77.1566 139.343 78.6569C140.843 80.1572 142.878 81 145 81H241C243.122 81 245.157 80.1572 246.657 78.6569C248.157 77.1566 249 75.1217 249 73C249 70.8783 248.157 68.8434 246.657 67.3432C245.157 65.8429 243.122 65 241 65ZM241 113H169C166.878 113 164.843 113.843 163.343 115.343C161.843 116.843 161 118.878 161 121C161 123.122 161.843 125.157 163.343 126.657C164.843 128.157 166.878 129 169 129H241C243.122 129 245.157 128.157 246.657 126.657C248.157 125.157 249 123.122 249 121C249 118.878 248.157 116.843 246.657 115.343C245.157 113.843 243.122 113 241 113ZM144.75 135C145.012 136.018 145.07 137.077 144.922 138.117C144.774 139.158 144.423 140.159 143.888 141.063C143.353 141.968 142.645 142.758 141.805 143.389C140.964 144.02 140.008 144.479 138.99 144.74C138.338 144.916 137.665 145.003 136.99 145C135.216 145.001 133.492 144.412 132.089 143.326C130.686 142.24 129.684 140.718 129.24 139C123.08 115.06 98.9 97 72.99 97C47.08 97 22.9 115.05 16.74 139C16.2096 141.055 14.8844 142.816 13.0559 143.894C11.2274 144.973 9.04544 145.28 6.99001 144.75C4.93458 144.22 3.17405 142.894 2.09572 141.066C1.01739 139.237 0.709579 137.055 1.24001 135C6.83001 113.29 23.08 95.71 43.7 87C35.7603 80.8846 29.9339 72.4375 27.0378 62.8432C24.1418 53.249 24.3214 42.9889 27.5515 33.5019C30.7815 24.0149 36.9 15.7768 45.0489 9.94305C53.1977 4.10929 62.9682 0.972443 72.99 0.972443C83.0118 0.972443 92.7823 4.10929 100.931 9.94305C109.08 15.7768 115.199 24.0149 118.429 33.5019C121.659 42.9889 121.838 53.249 118.942 62.8432C116.046 72.4375 110.22 80.8846 102.28 87C122.91 95.71 139.16 113.29 144.75 135ZM73 81C79.329 81 85.5159 79.1232 90.7783 75.607C96.0406 72.0908 100.142 67.0931 102.564 61.2459C104.986 55.3986 105.62 48.9645 104.385 42.7571C103.15 36.5497 100.103 30.8479 95.6274 26.3726C91.1522 21.8973 85.4503 18.8496 79.2429 17.6149C73.0355 16.3802 66.6014 17.0139 60.7541 19.4359C54.9069 21.8579 49.9092 25.9594 46.393 31.2218C42.8768 36.4841 41 42.671 41 49C41 57.4869 44.3714 65.6263 50.3726 71.6274C56.3738 77.6286 64.5131 81 73 81Z" fill="white"/>
</svg>
