<svg width="41" height="40" viewBox="0 0 41 40" fill="none" xmlns="http://www.w3.org/2000/svg">
<g id="mdi:users">
<path id="Vector" d="M27.1666 28.3337V31.6671H3.83325V28.3337C3.83325 28.3337 3.83325 21.6671 15.4999 21.6671C27.1666 21.6671 27.1666 28.3337 27.1666 28.3337ZM21.3333 12.5004C21.3333 11.3467 20.9911 10.2189 20.3502 9.25959C19.7092 8.3003 18.7981 7.55263 17.7322 7.11112C16.6663 6.6696 15.4934 6.55409 14.3619 6.77917C13.2303 7.00425 12.1909 7.55982 11.3751 8.37562C10.5593 9.19143 10.0038 10.2308 9.77867 11.3624C9.55359 12.4939 9.66911 13.6668 10.1106 14.7327C10.5521 15.7986 11.2998 16.7097 12.2591 17.3507C13.2184 17.9916 14.3462 18.3337 15.4999 18.3337C17.047 18.3337 18.5307 17.7192 19.6247 16.6252C20.7187 15.5312 21.3333 14.0475 21.3333 12.5004ZM27.0666 21.6671C28.0912 22.46 28.9295 23.4678 29.5227 24.6196C30.1159 25.7714 30.4494 27.0392 30.4999 28.3337V31.6671H37.1666V28.3337C37.1666 28.3337 37.1666 22.2837 27.0666 21.6671ZM25.4999 6.66708C24.3527 6.66069 23.2308 7.00367 22.2833 7.65041C23.2957 9.06497 23.84 10.7609 23.84 12.5004C23.84 14.2399 23.2957 15.9359 22.2833 17.3504C23.2308 17.9972 24.3527 18.3401 25.4999 18.3337C27.047 18.3337 28.5307 17.7192 29.6247 16.6252C30.7187 15.5312 31.3333 14.0475 31.3333 12.5004C31.3333 10.9533 30.7187 9.46959 29.6247 8.37562C28.5307 7.28166 27.047 6.66708 25.4999 6.66708Z" fill="white"/>
</g>
</svg>
