<svg width="19" height="19" viewBox="0 0 19 19" fill="none" xmlns="http://www.w3.org/2000/svg">
<path d="M11.4685 8.67529L10.7935 9.36529C10.2535 9.90529 9.91602 10.3628 9.91602 11.4878H8.41602V11.1128C8.41602 10.2803 8.75352 9.53029 9.29352 8.99029L10.2235 8.04529C10.501 7.77529 10.666 7.40029 10.666 6.98779C10.666 6.58997 10.508 6.20844 10.2267 5.92713C9.94537 5.64583 9.56384 5.48779 9.16602 5.48779C8.76819 5.48779 8.38666 5.64583 8.10536 5.92713C7.82405 6.20844 7.66602 6.58997 7.66602 6.98779H6.16602C6.16602 6.19214 6.48209 5.42908 7.04469 4.86647C7.6073 4.30386 8.37037 3.98779 9.16602 3.98779C9.96167 3.98779 10.7247 4.30386 11.2873 4.86647C11.8499 5.42908 12.166 6.19214 12.166 6.98779C12.1649 7.62022 11.9143 8.22666 11.4685 8.67529ZM9.91602 14.4878H8.41602V12.9878H9.91602M9.16602 1.73779C8.1811 1.73779 7.20583 1.93179 6.29589 2.3087C5.38595 2.68561 4.55915 3.23805 3.86271 3.93449C2.45619 5.34101 1.66602 7.24867 1.66602 9.23779C1.66602 11.2269 2.45619 13.1346 3.86271 14.5411C4.55915 15.2375 5.38595 15.79 6.29589 16.1669C7.20583 16.5438 8.1811 16.7378 9.16602 16.7378C11.1551 16.7378 13.0628 15.9476 14.4693 14.5411C15.8758 13.1346 16.666 11.2269 16.666 9.23779C16.666 5.09029 13.291 1.73779 9.16602 1.73779Z" fill="black"/>
</svg>
