<svg width="20" height="20" viewBox="0 0 20 20" fill="none" xmlns="http://www.w3.org/2000/svg">
<path fill-rule="evenodd" clip-rule="evenodd" d="M3.16847 0C2.20704 0 1.42847 0.778571 1.42847 1.74V8.26857C1.42847 9.23143 2.20704 10.0114 3.16847 10.0114H16.8313C17.7928 10.0114 18.5713 9.23143 18.5713 8.26857V1.74C18.5713 0.778571 17.7928 0 16.8313 0H3.16847ZM7.02989 13.4871C7.02989 14.0333 6.81294 14.5571 6.42674 14.9433C6.04055 15.3295 5.51677 15.5464 4.97061 15.5464C4.42445 15.5464 3.90067 15.3295 3.51447 14.9433C3.12828 14.5571 2.91132 14.0333 2.91132 13.4871C2.91132 12.941 3.12828 12.4172 3.51447 12.031C3.90067 11.6448 4.42445 11.4279 4.97061 11.4279C5.51677 11.4279 6.04055 11.6448 6.42674 12.031C6.81294 12.4172 7.02989 12.941 7.02989 13.4871ZM15.0356 15.5471C15.5818 15.5471 16.1056 15.3302 16.4917 14.944C16.8779 14.5578 17.0949 14.034 17.0949 13.4879C17.0949 12.9417 16.8779 12.4179 16.4917 12.0317C16.1056 11.6455 15.5818 11.4286 15.0356 11.4286C14.4895 11.4286 13.9657 11.6455 13.5795 12.0317C13.1933 12.4179 12.9763 12.9417 12.9763 13.4879C12.9763 14.034 13.1933 14.5578 13.5795 14.944C13.9657 15.3302 14.4895 15.5471 15.0356 15.5471ZM4.9699 16.6586C4.18127 16.6587 3.41818 16.9381 2.81593 17.4473C2.21369 17.9564 1.81122 18.6624 1.6799 19.44C1.6299 19.7429 1.88418 19.9943 2.19132 19.9943H7.7499C8.05704 19.9943 8.31132 19.7429 8.26132 19.44C8.12996 18.6621 7.72728 17.956 7.12474 17.4468C6.5222 16.9376 5.75876 16.6584 4.9699 16.6586ZM11.7456 19.44C11.8767 18.6621 12.2792 17.9558 12.8816 17.4464C13.4841 16.9371 14.2474 16.6576 15.0363 16.6576C15.8252 16.6576 16.5886 16.9371 17.191 17.4464C17.7934 17.9558 18.1959 18.6621 18.327 19.44C18.377 19.7429 18.1228 19.9943 17.8156 19.9943H12.257C11.9513 19.9943 11.6956 19.7429 11.7456 19.44ZM11.6042 3.03C11.6042 3.45548 11.4352 3.86354 11.1343 4.1644C10.8334 4.46526 10.4254 4.63429 9.9999 4.63429C9.57441 4.63429 9.16636 4.46526 8.86549 4.1644C8.56463 3.86354 8.39561 3.45548 8.39561 3.03C8.39561 2.60452 8.56463 2.19646 8.86549 1.8956C9.16636 1.59474 9.57441 1.42571 9.9999 1.42571C10.4254 1.42571 10.8334 1.59474 11.1343 1.8956C11.4352 2.19646 11.6042 2.60452 11.6042 3.03ZM7.17847 8.08143C7.29114 7.41464 7.63633 6.80931 8.1528 6.37279C8.66927 5.93627 9.32366 5.69677 9.9999 5.69677C10.6761 5.69677 11.3305 5.93627 11.847 6.37279C12.3635 6.80931 12.7086 7.41464 12.8213 8.08143C12.8642 8.34143 12.647 8.55571 12.3842 8.55571H7.61418C7.35132 8.55571 7.13561 8.34143 7.17847 8.08143Z" fill="#203881"/>
</svg>
