<svg width="31" height="32" viewBox="0 0 31 32" fill="none" xmlns="http://www.w3.org/2000/svg">
<path d="M26.8971 24C27.9852 24 29.0288 24.4214 29.7983 25.1716C30.5677 25.9217 31 26.9391 31 28C31 29.0609 30.5677 30.0783 29.7983 30.8284C29.0288 31.5786 27.9852 32 26.8971 32C25.8089 32 24.7653 31.5786 23.9959 30.8284C23.2264 30.0783 22.7941 29.0609 22.7941 28C22.7941 26.9391 23.2264 25.9217 23.9959 25.1716C24.7653 24.4214 25.8089 24 26.8971 24ZM26.8971 12C27.9852 12 29.0288 12.4214 29.7983 13.1716C30.5677 13.9217 31 14.9391 31 16C31 17.0609 30.5677 18.0783 29.7983 18.8284C29.0288 19.5786 27.9852 20 26.8971 20C25.8089 20 24.7653 19.5786 23.9959 18.8284C23.2264 18.0783 22.7941 17.0609 22.7941 16C22.7941 14.9391 23.2264 13.9217 23.9959 13.1716C24.7653 12.4214 25.8089 12 26.8971 12ZM26.8971 0C27.9852 0 29.0288 0.421427 29.7983 1.17157C30.5677 1.92172 31 2.93913 31 4C31 5.06087 30.5677 6.07828 29.7983 6.82843C29.0288 7.57857 27.9852 8 26.8971 8C25.8089 8 24.7653 7.57857 23.9959 6.82843C23.2264 6.07828 22.7941 5.06087 22.7941 4C22.7941 2.93913 23.2264 1.92172 23.9959 1.17157C24.7653 0.421427 25.8089 0 26.8971 0Z" fill="#DADADA"/>
<path d="M4.10294 24C5.19111 24 6.23471 24.4214 7.00416 25.1716C7.77361 25.9217 8.20588 26.9391 8.20588 28C8.20588 29.0609 7.77361 30.0783 7.00416 30.8284C6.23471 31.5786 5.19111 32 4.10294 32C3.01477 32 1.97118 31.5786 1.20172 30.8284C0.432274 30.0783 0 29.0609 0 28C0 26.9391 0.432274 25.9217 1.20172 25.1716C1.97118 24.4214 3.01477 24 4.10294 24ZM4.10294 12C5.19111 12 6.23471 12.4214 7.00416 13.1716C7.77361 13.9217 8.20588 14.9391 8.20588 16C8.20588 17.0609 7.77361 18.0783 7.00416 18.8284C6.23471 19.5786 5.19111 20 4.10294 20C3.01477 20 1.97118 19.5786 1.20172 18.8284C0.432274 18.0783 0 17.0609 0 16C0 14.9391 0.432274 13.9217 1.20172 13.1716C1.97118 12.4214 3.01477 12 4.10294 12ZM4.10294 0C5.19111 0 6.23471 0.421427 7.00416 1.17157C7.77361 1.92172 8.20588 2.93913 8.20588 4C8.20588 5.06087 7.77361 6.07828 7.00416 6.82843C6.23471 7.57857 5.19111 8 4.10294 8C3.01477 8 1.97118 7.57857 1.20172 6.82843C0.432274 6.07828 0 5.06087 0 4C0 2.93913 0.432274 1.92172 1.20172 1.17157C1.97118 0.421427 3.01477 0 4.10294 0Z" fill="#DADADA"/>
<path d="M15.0441 24C16.1323 24 17.1759 24.4214 17.9453 25.1716C18.7148 25.9217 19.147 26.9391 19.147 28C19.147 29.0609 18.7148 30.0783 17.9453 30.8284C17.1759 31.5786 16.1323 32 15.0441 32C13.9559 32 12.9123 31.5786 12.1429 30.8284C11.3734 30.0783 10.9412 29.0609 10.9412 28C10.9412 26.9391 11.3734 25.9217 12.1429 25.1716C12.9123 24.4214 13.9559 24 15.0441 24ZM15.0441 12C16.1323 12 17.1759 12.4214 17.9453 13.1716C18.7148 13.9217 19.147 14.9391 19.147 16C19.147 17.0609 18.7148 18.0783 17.9453 18.8284C17.1759 19.5786 16.1323 20 15.0441 20C13.9559 20 12.9123 19.5786 12.1429 18.8284C11.3734 18.0783 10.9412 17.0609 10.9412 16C10.9412 14.9391 11.3734 13.9217 12.1429 13.1716C12.9123 12.4214 13.9559 12 15.0441 12ZM15.0441 0C16.1323 0 17.1759 0.421427 17.9453 1.17157C18.7148 1.92172 19.147 2.93913 19.147 4C19.147 5.06087 18.7148 6.07828 17.9453 6.82843C17.1759 7.57857 16.1323 8 15.0441 8C13.9559 8 12.9123 7.57857 12.1429 6.82843C11.3734 6.07828 10.9412 5.06087 10.9412 4C10.9412 2.93913 11.3734 1.92172 12.1429 1.17157C12.9123 0.421427 13.9559 0 15.0441 0Z" fill="#DADADA"/>
</svg>
