<svg width="9" height="32" viewBox="0 0 9 32" fill="none" xmlns="http://www.w3.org/2000/svg">
<path d="M4.10297 24C5.19114 24 6.23475 24.4214 7.0042 25.1716C7.77366 25.9217 8.20593 26.9391 8.20593 28C8.20593 29.0609 7.77366 30.0783 7.0042 30.8284C6.23475 31.5786 5.19114 32 4.10297 32C3.01479 32 1.97119 31.5786 1.20173 30.8284C0.432276 30.0783 0 29.0609 0 28C0 26.9391 0.432276 25.9217 1.20173 25.1716C1.97119 24.4214 3.01479 24 4.10297 24ZM4.10297 12C5.19114 12 6.23475 12.4214 7.0042 13.1716C7.77366 13.9217 8.20593 14.9391 8.20593 16C8.20593 17.0609 7.77366 18.0783 7.0042 18.8284C6.23475 19.5786 5.19114 20 4.10297 20C3.01479 20 1.97119 19.5786 1.20173 18.8284C0.432276 18.0783 0 17.0609 0 16C0 14.9391 0.432276 13.9217 1.20173 13.1716C1.97119 12.4214 3.01479 12 4.10297 12ZM4.10297 0C5.19114 0 6.23475 0.421427 7.0042 1.17157C7.77366 1.92172 8.20593 2.93913 8.20593 4C8.20593 5.06087 7.77366 6.07828 7.0042 6.82843C6.23475 7.57857 5.19114 8 4.10297 8C3.01479 8 1.97119 7.57857 1.20173 6.82843C0.432276 6.07828 0 5.06087 0 4C0 2.93913 0.432276 1.92172 1.20173 1.17157C1.97119 0.421427 3.01479 0 4.10297 0Z" fill="#DADADA"/>
</svg>
