<svg width="18" height="15" viewBox="0 0 18 15" fill="none" xmlns="http://www.w3.org/2000/svg">
<path id="Vector" d="M17.64 7.66691C17.64 7.97125 17.5285 8.26312 17.33 8.47832C17.1315 8.69352 16.8623 8.81441 16.5816 8.81441H1.0584C0.777695 8.81441 0.508487 8.69352 0.309998 8.47832C0.11151 8.26312 0 7.97125 0 7.66691C0 7.36258 0.11151 7.07071 0.309998 6.85551C0.508487 6.64031 0.777695 6.51941 1.0584 6.51941H16.5816C16.8623 6.51941 17.1315 6.64031 17.33 6.85551C17.5285 7.07071 17.64 7.36258 17.64 7.66691ZM1.0584 2.69441H16.5816C16.8623 2.69441 17.1315 2.57352 17.33 2.35832C17.5285 2.14312 17.64 1.85125 17.64 1.54691C17.64 1.24258 17.5285 0.950707 17.33 0.735509C17.1315 0.520311 16.8623 0.399414 16.5816 0.399414H1.0584C0.777695 0.399414 0.508487 0.520311 0.309998 0.735509C0.11151 0.950707 0 1.24258 0 1.54691C0 1.85125 0.11151 2.14312 0.309998 2.35832C0.508487 2.57352 0.777695 2.69441 1.0584 2.69441ZM16.5816 12.6394H1.0584C0.777695 12.6394 0.508487 12.7603 0.309998 12.9755C0.11151 13.1907 0 13.4826 0 13.7869C0 14.0913 0.11151 14.3831 0.309998 14.5983C0.508487 14.8135 0.777695 14.9344 1.0584 14.9344H16.5816C16.8623 14.9344 17.1315 14.8135 17.33 14.5983C17.5285 14.3831 17.64 14.0913 17.64 13.7869C17.64 13.4826 17.5285 13.1907 17.33 12.9755C17.1315 12.7603 16.8623 12.6394 16.5816 12.6394Z" fill="white"/>
</svg>
