<svg width="21" height="20" viewBox="0 0 21 20" fill="none" xmlns="http://www.w3.org/2000/svg">
<g id="Group">
<path id="Vector" d="M1.5 10C1.5 11.1819 1.73279 12.3522 2.18508 13.4442C2.63738 14.5361 3.30031 15.5282 4.13604 16.364C4.97177 17.1997 5.96392 17.8626 7.05585 18.3149C8.14778 18.7672 9.3181 19 10.5 19C11.6819 19 12.8522 18.7672 13.9442 18.3149C15.0361 17.8626 16.0282 17.1997 16.864 16.364C17.6997 15.5282 18.3626 14.5361 18.8149 13.4442C19.2672 12.3522 19.5 11.1819 19.5 10C19.5 8.8181 19.2672 7.64778 18.8149 6.55585C18.3626 5.46392 17.6997 4.47177 16.864 3.63604C16.0282 2.80031 15.0361 2.13738 13.9442 1.68508C12.8522 1.23279 11.6819 1 10.5 1C9.3181 1 8.14778 1.23279 7.05585 1.68508C5.96392 2.13738 4.97177 2.80031 4.13604 3.63604C3.30031 4.47177 2.63738 5.46392 2.18508 6.55585C1.73279 7.64778 1.5 8.8181 1.5 10Z" stroke="black" stroke-opacity="0.5" stroke-width="2" stroke-linecap="round" stroke-linejoin="round"/>
<path id="Vector_2" d="M8.5 13C8.5 13.2652 8.60536 13.5196 8.79289 13.7071C8.98043 13.8946 9.23478 14 9.5 14H11.5C11.7652 14 12.0196 13.8946 12.2071 13.7071C12.3946 13.5196 12.5 13.2652 12.5 13V11C12.5 10.7348 12.3946 10.4804 12.2071 10.2929C12.0196 10.1054 11.7652 10 11.5 10H9.5C9.23478 10 8.98043 9.89464 8.79289 9.70711C8.60536 9.51957 8.5 9.26522 8.5 9V7C8.5 6.73478 8.60536 6.48043 8.79289 6.29289C8.98043 6.10536 9.23478 6 9.5 6H11.5C11.7652 6 12.0196 6.10536 12.2071 6.29289C12.3946 6.48043 12.5 6.73478 12.5 7" stroke="black" stroke-opacity="0.5" stroke-width="2" stroke-linecap="round" stroke-linejoin="round"/>
</g>
</svg>
