<svg width="31" height="31" viewBox="0 0 31 31" fill="none" xmlns="http://www.w3.org/2000/svg">
<g id="Capa_1">
<g id="Group">
<path id="Vector" d="M26.3002 30.5H4.7002C3.6002 30.5 2.7002 29.6 2.7002 28.5V6.90002C2.7002 5.80002 3.6002 4.90002 4.7002 4.90002H26.3002C27.4002 4.90002 28.3002 5.80002 28.3002 6.90002V28.5C28.3002 29.6 27.4002 30.5 26.3002 30.5ZM4.7002 6.30002C4.4002 6.30002 4.1002 6.60002 4.1002 6.90002V28.5C4.1002 28.8 4.4002 29.1 4.7002 29.1H26.3002C26.6002 29.1 26.9002 28.8 26.9002 28.5V6.90002C26.9002 6.60002 26.6002 6.30002 26.3002 6.30002H4.7002Z" fill="#001B69"/>
<path id="Vector_2" d="M4.1002 28.5H2.7002V6.9C2.7002 5.9 3.3002 5 4.3002 4.7L21.4002 0.6C21.8002 0.5 22.3002 0.6 22.6002 0.9C23.0002 1.3 23.2002 1.8 23.2002 2.4V5.7H21.9002V2.3C21.9002 2.2 21.9002 2 21.8002 1.9C21.8002 1.9 21.8002 1.9 21.7002 1.9L4.6002 6C4.3002 6.2 4.0002 6.5 4.1002 6.9V28.5Z" fill="#001B69"/>
<path id="Vector_3" d="M10.1002 11.4H13.8002C14.3002 11.4 14.7002 11.8 14.7002 12.3V16C14.7002 16.5 14.3002 16.9 13.8002 16.9H10.1002C9.6002 16.9 9.2002 16.5 9.2002 16V12.3C9.2002 11.8 9.6002 11.4 10.1002 11.4Z" fill="#001B69"/>
<path id="Vector_4" d="M17.1002 11.4H20.8002C21.3002 11.4 21.7002 11.8 21.7002 12.3V16C21.7002 16.5 21.3002 16.9 20.8002 16.9H17.1002C16.6002 16.9 16.2002 16.5 16.2002 16V12.3C16.2002 11.8 16.6002 11.4 17.1002 11.4Z" fill="#001B69"/>
<path id="Vector_5" d="M10.1002 18.4H13.8002C14.3002 18.4 14.7002 18.8 14.7002 19.3V23C14.7002 23.5 14.3002 23.9 13.8002 23.9H10.1002C9.6002 23.9 9.2002 23.5 9.2002 23V19.3C9.2002 18.8 9.6002 18.4 10.1002 18.4Z" fill="#001B69"/>
<path id="Vector_6" d="M17.1002 18.4H20.8002C21.3002 18.4 21.7002 18.8 21.7002 19.3V23C21.7002 23.5 21.3002 23.9 20.8002 23.9H17.1002C16.6002 23.9 16.2002 23.5 16.2002 23V19.3C16.2002 18.8 16.6002 18.4 17.1002 18.4Z" fill="#001B69"/>
</g>
</g>
</svg>
