<svg width="12" height="16" viewBox="0 0 12 16" fill="none" xmlns="http://www.w3.org/2000/svg">
<path d="M9.33333 1.6V6.4L8 4.8L6.66667 6.4V1.6H4V14.4H10.6667V1.6H9.33333ZM0 4V2.4H1.33333V1.6C1.33333 1.17565 1.47381 0.768687 1.72386 0.468629C1.97391 0.168571 2.31304 0 2.66667 0H10.6667C11.3667 0 12 0.76 12 1.6V14.4C12 15.24 11.3667 16 10.6667 16H2.66667C1.96667 16 1.33333 15.24 1.33333 14.4V13.6H0V12H1.33333V8.8H0V7.2H1.33333V4H0ZM1.33333 2.4V4H2.66667V2.4H1.33333ZM1.33333 13.6H2.66667V12H1.33333V13.6ZM1.33333 8.8H2.66667V7.2H1.33333V8.8Z" fill="black"/>
</svg>
