<svg width="12" height="16" viewBox="0 0 12 16" fill="none" xmlns="http://www.w3.org/2000/svg">
<path d="M0 4V2.4H1.33333V1.6C1.33333 1.17565 1.47381 0.768687 1.72386 0.468629C1.97391 0.168571 2.31304 0 2.66667 0H6.66667V5.6L8.33333 4.4L10 5.6V0H10.6667C11.3667 0 12 0.76 12 1.6V14.4C12 15.24 11.3667 16 10.6667 16H2.66667C1.96667 16 1.33333 15.24 1.33333 14.4V13.6H0V12H1.33333V8.8H0V7.2H1.33333V4H0ZM2.66667 7.2H1.33333V8.8H2.66667V7.2ZM2.66667 4V2.4H1.33333V4H2.66667ZM2.66667 13.6V12H1.33333V13.6H2.66667Z" fill="#001B69"/>
</svg>
