<svg width="17" height="17" viewBox="0 0 17 17" fill="none" xmlns="http://www.w3.org/2000/svg">
<g clip-path="url(#clip0_11314_30214)">
<path d="M15.9175 13.1758H14.9175V6.17578C15.0501 6.17578 15.1773 6.1231 15.271 6.02933C15.3648 5.93557 15.4175 5.80839 15.4175 5.67578C15.4175 5.54317 15.3648 5.416 15.271 5.32223C15.1773 5.22846 15.0501 5.17578 14.9175 5.17578H11.9175V3.17578C12.0501 3.17578 12.1773 3.1231 12.271 3.02933C12.3648 2.93557 12.4175 2.80839 12.4175 2.67578C12.4175 2.54317 12.3648 2.416 12.271 2.32223C12.1773 2.22846 12.0501 2.17578 11.9175 2.17578H2.91748C2.78487 2.17578 2.6577 2.22846 2.56393 2.32223C2.47016 2.416 2.41748 2.54317 2.41748 2.67578C2.41748 2.80839 2.47016 2.93557 2.56393 3.02933C2.6577 3.1231 2.78487 3.17578 2.91748 3.17578V13.1758H1.91748C1.78487 13.1758 1.6577 13.2285 1.56393 13.3222C1.47016 13.416 1.41748 13.5432 1.41748 13.6758C1.41748 13.8084 1.47016 13.9356 1.56393 14.0293C1.6577 14.1231 1.78487 14.1758 1.91748 14.1758H15.9175C16.0501 14.1758 16.1773 14.1231 16.271 14.0293C16.3648 13.9356 16.4175 13.8084 16.4175 13.6758C16.4175 13.5432 16.3648 13.416 16.271 13.3222C16.1773 13.2285 16.0501 13.1758 15.9175 13.1758ZM5.41748 4.67578H6.41748C6.55009 4.67578 6.67727 4.72846 6.77103 4.82223C6.8648 4.916 6.91748 5.04317 6.91748 5.17578C6.91748 5.30839 6.8648 5.43557 6.77103 5.52933C6.67727 5.6231 6.55009 5.67578 6.41748 5.67578H5.41748C5.28487 5.67578 5.1577 5.6231 5.06393 5.52933C4.97016 5.43557 4.91748 5.30839 4.91748 5.17578C4.91748 5.04317 4.97016 4.916 5.06393 4.82223C5.1577 4.72846 5.28487 4.67578 5.41748 4.67578ZM4.91748 7.67578C4.91748 7.54317 4.97016 7.416 5.06393 7.32223C5.1577 7.22846 5.28487 7.17578 5.41748 7.17578H6.41748C6.55009 7.17578 6.67727 7.22846 6.77103 7.32223C6.8648 7.416 6.91748 7.54317 6.91748 7.67578C6.91748 7.80839 6.8648 7.93557 6.77103 8.02933C6.67727 8.1231 6.55009 8.17578 6.41748 8.17578H5.41748C5.28487 8.17578 5.1577 8.1231 5.06393 8.02933C4.97016 7.93557 4.91748 7.80839 4.91748 7.67578ZM8.91748 13.1758H5.91748V10.1758H8.91748V13.1758ZM9.41748 8.17578H8.41748C8.28487 8.17578 8.1577 8.1231 8.06393 8.02933C7.97016 7.93557 7.91748 7.80839 7.91748 7.67578C7.91748 7.54317 7.97016 7.416 8.06393 7.32223C8.1577 7.22846 8.28487 7.17578 8.41748 7.17578H9.41748C9.55009 7.17578 9.67727 7.22846 9.77103 7.32223C9.8648 7.416 9.91748 7.54317 9.91748 7.67578C9.91748 7.80839 9.8648 7.93557 9.77103 8.02933C9.67727 8.1231 9.55009 8.17578 9.41748 8.17578ZM9.41748 5.67578H8.41748C8.28487 5.67578 8.1577 5.6231 8.06393 5.52933C7.97016 5.43557 7.91748 5.30839 7.91748 5.17578C7.91748 5.04317 7.97016 4.916 8.06393 4.82223C8.1577 4.72846 8.28487 4.67578 8.41748 4.67578H9.41748C9.55009 4.67578 9.67727 4.72846 9.77103 4.82223C9.8648 4.916 9.91748 5.04317 9.91748 5.17578C9.91748 5.30839 9.8648 5.43557 9.77103 5.52933C9.67727 5.6231 9.55009 5.67578 9.41748 5.67578ZM13.9175 13.1758H11.9175V6.17578H13.9175V13.1758Z" fill="#669DC1"/>
</g>
<defs>
<clipPath id="clip0_11314_30214">
<rect width="16" height="16" fill="white" transform="translate(0.41748 0.175781)"/>
</clipPath>
</defs>
</svg>
