<svg width="20" height="20" viewBox="0 0 20 20" fill="none" xmlns="http://www.w3.org/2000/svg">
<g id="heroicons:paper-clip">
<path id="Vector" d="M15.3125 10.6158L8.90169 17.0267C8.19842 17.7299 7.24459 18.125 6.25002 18.125C5.25546 18.125 4.30162 17.7299 3.59836 17.0267C2.89509 16.3234 2.5 15.3696 2.5 14.375C2.5 13.3804 2.89509 12.4266 3.59836 11.7233L12.715 2.60666C12.9472 2.37455 13.2229 2.19045 13.5263 2.06488C13.8296 1.9393 14.1548 1.87471 14.4831 1.87479C14.8114 1.87486 15.1365 1.93961 15.4399 2.06533C15.7432 2.19105 16.0187 2.37528 16.2509 2.6075C16.483 2.83972 16.6671 3.11538 16.7926 3.41875C16.9182 3.72212 16.9828 4.04725 16.9827 4.37559C16.9827 4.70392 16.9179 5.02902 16.7922 5.33233C16.6665 5.63564 16.4822 5.91122 16.25 6.14333L7.12669 15.2667M7.12669 15.2667L7.13419 15.2583M7.12669 15.2667C6.89001 15.4936 6.57366 15.6176 6.24581 15.6134C5.91797 15.6092 5.60488 15.4764 5.37402 15.2436C5.14317 15.0108 5.01303 14.6966 5.01166 14.3687C5.01029 14.0409 5.13779 13.7256 5.36669 13.4908L11.875 6.9825" stroke="#001B69" stroke-width="1.5" stroke-linecap="round" stroke-linejoin="round"/>
</g>
</svg>
