<svg width="19" height="19" viewBox="0 0 19 19" fill="none" xmlns="http://www.w3.org/2000/svg">
<path d="M1.54199 4.52539V14.2362H5.92316V4.52539H1.54199ZM4.72539 13.4255C4.6489 13.4255 4.57414 13.4029 4.51054 13.3604C4.44695 13.3179 4.39738 13.2575 4.36811 13.1868C4.33884 13.1162 4.33118 13.0384 4.3461 12.9634C4.36102 12.8884 4.39786 12.8195 4.45194 12.7654C4.50602 12.7113 4.57493 12.6745 4.64995 12.6595C4.72496 12.6446 4.80272 12.6523 4.87338 12.6815C4.94405 12.7108 5.00444 12.7604 5.04694 12.824C5.08943 12.8876 5.11211 12.9623 5.11211 13.0388C5.11211 13.1414 5.07137 13.2398 4.99884 13.3123C4.92632 13.3848 4.82795 13.4255 4.72539 13.4255ZM5.3582 6.77539H2.10133V6.21289H5.35785V6.77539H5.3582ZM5.3582 5.65039H2.10133V5.08789H5.35785V5.65039H5.3582ZM10.7371 12.2777H13.307V13.6737H14.7745V14.2362H9.27039V13.6737H10.7378V12.2777H10.7371ZM6.58867 4.52539V11.7152H17.4572V4.52539H6.58832H6.58867ZM16.8947 11.1527H7.15082V5.08789H16.8947V11.1527Z" fill="#171C26"/>
</svg>
