<svg width="16" height="17" viewBox="0 0 16 17" fill="none" xmlns="http://www.w3.org/2000/svg">
<g id="octicon:feed-person-16" clip-path="url(#clip0_3782_2611)">
<path id="Vector" d="M8 16.4988C5.87827 16.4988 3.84344 15.6559 2.34315 14.1556C0.842855 12.6553 0 10.6205 0 8.49878C0 6.37705 0.842855 4.34222 2.34315 2.84193C3.84344 1.34163 5.87827 0.498779 8 0.498779C10.1217 0.498779 12.1566 1.34163 13.6569 2.84193C15.1571 4.34222 16 6.37705 16 8.49878C16 10.6205 15.1571 12.6553 13.6569 14.1556C12.1566 15.6559 10.1217 16.4988 8 16.4988ZM8.847 8.35378C9.40125 8.15438 9.86737 7.76582 10.1633 7.25654C10.4592 6.74725 10.566 6.14988 10.4648 5.56961C10.3636 4.98935 10.0609 4.46339 9.61003 4.08436C9.15917 3.70532 8.58902 3.49751 8 3.49751C7.41097 3.49751 6.84084 3.70532 6.38997 4.08436C5.9391 4.46339 5.63642 4.98935 5.53521 5.56961C5.434 6.14988 5.54076 6.74725 5.8367 7.25654C6.13263 7.76582 6.59875 8.15438 7.153 8.35378C5.471 8.75978 4 10.2738 4 11.4988C4 11.8938 4.145 12.4938 5 12.4938H11C11.855 12.4938 12 11.8938 12 11.4988C12 10.2748 10.53 8.75878 8.847 8.35378Z" fill="#203881"/>
</g>
<defs>
<clipPath id="clip0_3782_2611">
<rect width="16" height="16" fill="white" transform="translate(0 0.498779)"/>
</clipPath>
</defs>
</svg>
