<svg width="16" height="17" viewBox="0 0 16 17" fill="none" xmlns="http://www.w3.org/2000/svg">
<g id="octicon:feed-person-16" clip-path="url(#clip0_2474_7944)">
<path id="Vector" d="M8 16.7815C5.87827 16.7815 3.84344 15.9387 2.34315 14.4384C0.842855 12.9381 0 10.9033 0 8.78154C0 6.65981 0.842855 4.62498 2.34315 3.12469C3.84344 1.62439 5.87827 0.78154 8 0.78154C10.1217 0.78154 12.1566 1.62439 13.6569 3.12469C15.1571 4.62498 16 6.65981 16 8.78154C16 10.9033 15.1571 12.9381 13.6569 14.4384C12.1566 15.9387 10.1217 16.7815 8 16.7815ZM8.847 8.63654C9.40125 8.43714 9.86737 8.04858 10.1633 7.5393C10.4592 7.03001 10.566 6.43264 10.4648 5.85238C10.3636 5.27211 10.0609 4.74616 9.61003 4.36712C9.15917 3.98808 8.58902 3.78027 8 3.78027C7.41097 3.78027 6.84084 3.98808 6.38997 4.36712C5.9391 4.74616 5.63642 5.27211 5.53521 5.85238C5.434 6.43264 5.54076 7.03001 5.8367 7.5393C6.13263 8.04858 6.59875 8.43714 7.153 8.63654C5.471 9.04254 4 10.5565 4 11.7815C4 12.1765 4.145 12.7765 5 12.7765H11C11.855 12.7765 12 12.1765 12 11.7815C12 10.5575 10.53 9.04154 8.847 8.63654Z" fill="#0E9CD8"/>
</g>
<defs>
<clipPath id="clip0_2474_7944">
<rect width="16" height="16" fill="white" transform="translate(0 0.78154)"/>
</clipPath>
</defs>
</svg>
