<svg width="24" height="24" viewBox="0 0 24 24" fill="none" xmlns="http://www.w3.org/2000/svg">
<g clip-path="url(#clip0_2648_44399)">
<path d="M16.5393 11.7379L16.5278 11.7682C16.5314 11.759 16.5343 11.7497 16.5379 11.7406L16.5393 11.7379ZM15.3237 17.605L14.9918 18.0154C15.4406 18.0696 15.875 18.1332 16.2818 18.2102L14.9668 18.5998L16.7219 19.0666L18.0302 18.654C18.8337 18.9235 19.9463 19.253 20.315 19.6277H17.6918L17.9524 20.3899H20.6745C20.6663 20.8195 19.8983 21.1685 19.1649 21.4512L17.3047 21.049L15.5519 21.677L17.4239 22.1042C16.331 22.4018 14.4959 22.5828 12.9767 22.6661L12.9129 21.7925H11.0875L11.0234 22.6661C9.50417 22.5828 7.66937 22.4021 6.57617 22.1045L8.44841 21.677L6.69569 21.049L4.83521 21.4512C4.11233 21.2316 3.33401 20.8195 3.32585 20.3899H6.04817L6.30881 19.6277H3.68561C4.05425 19.253 5.16689 18.9235 5.97041 18.654L7.27865 19.0666L9.03377 18.5998L7.71881 18.2102C8.14347 18.1317 8.57058 18.0671 8.99945 18.0166L8.67233 17.6054C5.12393 17.9743 2.17481 18.7598 1.40153 20.0004C0.168173 21.9775 4.71809 23.9664 11.849 23.9974C11.9551 24.0026 12.0597 23.9988 12.1586 23.9974C19.2854 23.9647 23.8312 21.9766 22.5988 20.0004C21.8251 18.7594 18.8743 17.9736 15.3237 17.605Z" fill="black" fill-opacity="0.5"/>
<path d="M11.9653 -9.63006e-07C11.303 0.0091459 10.6709 0.278678 10.2058 0.750282C9.74073 1.22189 9.48001 1.85764 9.48008 2.52C9.48008 3.18834 9.74557 3.82932 10.2182 4.30191C10.6908 4.7745 11.3317 5.04 12.0001 5.04C12.6684 5.04 13.3094 4.7745 13.782 4.30191C14.2546 3.82932 14.5201 3.18834 14.5201 2.52C14.5201 1.85165 14.2546 1.21068 13.782 0.73809C13.3094 0.265498 12.6684 -9.63013e-07 12.0001 -9.63013e-07C11.9885 -8.10592e-05 11.9769 -8.10592e-05 11.9653 -9.63006e-07ZM11.9516 5.66208C10.0714 5.66256 8.20856 6.4704 8.4044 8.08512L8.8844 11.5951C8.96864 12.2126 9.38599 13.2 10.0093 13.2H10.0537L10.5642 19.0874C10.5862 19.3526 10.7782 19.5674 11.0442 19.5674H12.9642C13.2301 19.5674 13.4221 19.3526 13.4442 19.0874L13.9546 13.2002H13.9993C14.6226 13.2002 15.0397 12.2126 15.1242 11.5951L15.6042 8.08512C15.7299 6.46896 13.832 5.66184 11.9516 5.66208ZM-38.2199 14.8361L-38.2314 14.8663C-38.2276 14.8572 -38.225 14.8481 -38.2211 14.8387C-38.2211 14.8378 -38.2202 14.837 -38.2197 14.8363L-38.2199 14.8361Z" fill="black" fill-opacity="0.5"/>
</g>
<defs>
<clipPath id="clip0_2648_44399">
<rect width="24" height="24" fill="white"/>
</clipPath>
</defs>
</svg>
