<svg width="22" height="25" viewBox="0 0 22 25" fill="none" xmlns="http://www.w3.org/2000/svg">
<g id="preview 1" clip-path="url(#clip0_5642_9781)">
<g id="Layer 1">
<g id="Group">
<path id="Vector" d="M0 24.5996C0 16.5996 0 8.59961 0 0.599609C7.26829 0.599609 14.5366 0.599609 21.8049 0.599609C21.8049 8.59961 21.8049 16.5996 21.8049 24.5996C14.5366 24.5996 7.26829 24.5996 0 24.5996ZM2.10927 12.0747C2.10927 14.5957 2.10927 17.1167 2.10927 19.6377C2.10927 20.2894 2.45659 20.6289 3.11024 20.6289C5.11415 20.6289 7.12 20.6386 9.1239 20.6211C9.47512 20.6172 9.71707 20.6796 9.80488 21.0464C9.80878 21.064 9.82049 21.0796 9.83024 21.0952C10.7941 22.9118 12.8546 24.0318 15.0283 23.7352C17.8654 23.3469 19.9024 20.4981 19.2663 17.7001C18.8117 15.704 17.5746 14.4142 15.6156 13.8211C15.3151 13.7294 15.3385 13.8133 15.3385 13.4445C15.3385 11.384 15.3424 9.32351 15.3366 7.26302C15.3366 7.16156 15.2937 7.03083 15.2234 6.96058C14.1327 5.85815 13.0341 4.76351 11.9415 3.66302C11.8302 3.54985 11.7151 3.50888 11.5571 3.50888C9.09854 3.51278 6.64 3.51083 4.17951 3.51083C3.82244 3.51083 3.46537 3.50693 3.10829 3.51278C2.8839 3.51668 2.66146 3.5401 2.4722 3.68644C2.20683 3.89327 2.10341 4.16449 2.10537 4.49424C2.10927 7.02107 2.10537 9.5479 2.10537 12.0747H2.10927Z" fill="#F7F7F7"/>
<path id="Vector_2" d="M2.10938 12.0746C2.10938 9.54781 2.10938 7.02098 2.10938 4.49415C2.10938 4.16245 2.21084 3.89123 2.4762 3.68635C2.66547 3.54001 2.88791 3.51659 3.1123 3.51269C3.46937 3.50684 3.82645 3.51074 4.18352 3.51074C6.64206 3.51074 9.10059 3.51074 11.5611 3.50879C11.7172 3.50879 11.8323 3.54976 11.9455 3.66294C13.0382 4.76342 14.1386 5.85611 15.2274 6.9605C15.2977 7.03074 15.3406 7.16147 15.3406 7.26294C15.3464 9.32342 15.3425 11.3839 15.3425 13.4444C15.3425 13.8112 15.3191 13.7293 15.6196 13.821C17.5786 14.4142 18.8157 15.7039 19.2704 17.7C19.9065 20.4981 17.8713 23.3468 15.0323 23.7351C12.8586 24.0317 10.7982 22.9117 9.83425 21.0951C9.82645 21.0795 9.81474 21.0639 9.80889 21.0464C9.72108 20.6795 9.47913 20.619 9.12791 20.621C7.12401 20.6385 5.11816 20.6288 3.11425 20.6288C2.45864 20.6288 2.11328 20.2893 2.11328 19.6376C2.11328 17.1166 2.11328 14.5956 2.11328 12.0746H2.10938ZM14.8216 7.43269C14.7455 7.43269 14.6811 7.43269 14.6147 7.43269C13.8752 7.43269 13.1377 7.43855 12.3982 7.43269C11.7933 7.42684 11.4284 7.07757 11.4245 6.49611C11.4186 5.73903 11.4206 4.98196 11.4343 4.22294C11.4362 4.05708 11.3874 4.01806 11.2313 4.01806C8.51913 4.02196 5.80498 4.02196 3.09279 4.02196C2.74157 4.02196 2.61474 4.15659 2.61474 4.50781C2.61474 9.54977 2.61474 14.5917 2.61474 19.6337C2.61474 19.9985 2.73377 20.1273 3.1045 20.1273C5.14547 20.1273 7.18645 20.1273 9.22742 20.1273C9.28986 20.1273 9.3523 20.1176 9.43816 20.1098C9.09084 18.861 9.21181 17.6707 9.75425 16.4863C9.65084 16.4863 9.5923 16.4863 9.53377 16.4863C8.12303 16.4863 6.7123 16.4863 5.30157 16.4863C5.10255 16.4863 4.90157 16.4942 4.70255 16.4785C4.24206 16.4434 3.92986 16.1039 3.92791 15.6532C3.92791 15.2142 4.23816 14.8844 4.69669 14.8473C4.83523 14.8356 4.97572 14.8395 5.11425 14.8395C7.0284 14.8395 8.94059 14.8434 10.8547 14.8395C10.964 14.8395 11.0947 14.7946 11.1806 14.7283C11.6157 14.3907 12.086 14.1254 12.605 13.942C13.3211 13.6903 14.0567 13.5927 14.8235 13.6707V7.43269H14.8216ZM18.8645 18.7361C18.8977 16.2405 16.7864 14.0512 14.1055 14.1527C11.8986 14.2366 9.72303 16.1156 9.74255 18.7927C9.76011 21.2454 11.8538 23.2981 14.3552 23.2824C16.8274 23.2649 18.8704 21.2064 18.8645 18.7361ZM10.4957 15.3605C10.404 15.3566 10.3474 15.3507 10.2889 15.3507C8.5523 15.3507 6.81572 15.3507 5.07718 15.3507C4.95035 15.3507 4.82352 15.3507 4.69669 15.3585C4.53084 15.3703 4.45084 15.4717 4.43328 15.6298C4.41572 15.7839 4.48401 15.8893 4.62645 15.942C4.69279 15.9673 4.76889 15.9751 4.83913 15.9771C6.52694 15.979 8.21669 15.981 9.9045 15.9771C9.97279 15.9771 10.0606 15.9381 10.1055 15.8873C10.2382 15.7312 10.3513 15.5615 10.4977 15.3644L10.4957 15.3605ZM11.9357 4.43562C11.9357 4.57025 11.9357 4.68342 11.9357 4.79855C11.9357 5.33708 11.9299 5.87757 11.9318 6.41611C11.9318 6.79464 12.0606 6.92147 12.4313 6.92147C13.0499 6.92147 13.6664 6.92147 14.285 6.92147C14.3299 6.92147 14.3728 6.91367 14.3708 6.91367C13.5708 6.10001 12.7611 5.27464 11.9377 4.43562H11.9357Z" fill="black"/>
<path id="Vector_3" d="M14.8221 7.43319V13.6712C14.0572 13.5912 13.3196 13.6907 12.6035 13.9425C12.0845 14.1239 11.6143 14.3912 11.1791 14.7288C11.0933 14.7951 10.9626 14.84 10.8533 14.84C8.93914 14.8459 7.02694 14.842 5.11279 14.84C4.97426 14.84 4.83377 14.8361 4.69523 14.8478C4.2367 14.8849 3.9245 15.2147 3.92645 15.6537C3.92645 16.1044 4.2406 16.4439 4.70109 16.479C4.90011 16.4947 5.10109 16.4849 5.30011 16.4868C6.71084 16.4868 8.12157 16.4868 9.53231 16.4868C9.59084 16.4868 9.64938 16.4868 9.75279 16.4868C9.21035 17.6712 9.08938 18.8615 9.4367 20.1103C9.35084 20.1181 9.2884 20.1278 9.22596 20.1278C7.18499 20.1278 5.14401 20.1278 3.10304 20.1278C2.73426 20.1278 2.61328 20.001 2.61328 19.6342C2.61328 14.5922 2.61328 9.55026 2.61328 4.50831C2.61328 4.15709 2.74206 4.02246 3.09133 4.02246C5.80353 4.02246 8.51767 4.02246 11.2299 4.01855C11.386 4.01855 11.4347 4.05758 11.4328 4.22343C11.4211 4.98051 11.4172 5.73758 11.423 6.4966C11.4289 7.07807 11.7918 7.42538 12.3967 7.43319C13.1362 7.44099 13.8738 7.43319 14.6133 7.43319C14.6777 7.43319 14.744 7.43319 14.8201 7.43319H14.8221ZM8.72255 10.7327C10.0065 10.7347 11.2904 10.7386 12.5743 10.7307C12.744 10.7307 12.9294 10.7015 13.0816 10.6312C13.4367 10.4654 13.5986 10.0849 13.505 9.72002C13.4016 9.31221 13.0874 9.08782 12.625 9.08782C10.0396 9.08782 7.45426 9.08782 4.86889 9.08782C4.79084 9.08782 4.71084 9.09173 4.63279 9.10148C4.06694 9.17563 3.74889 9.79416 4.02011 10.2956C4.18987 10.6117 4.46889 10.7347 4.81816 10.7347C6.11962 10.7347 7.42109 10.7347 8.7245 10.7347L8.72255 10.7327ZM8.74011 11.9698C8.74011 11.9698 8.74011 11.9737 8.74011 11.9756C7.63767 11.9756 6.53523 11.9756 5.43474 11.9756C5.17523 11.9756 4.91377 11.962 4.65426 11.9795C4.16255 12.0107 3.82304 12.5025 3.94596 12.9805C4.04938 13.3747 4.36548 13.6088 4.81231 13.6088C5.8484 13.6088 6.88255 13.6088 7.91865 13.6088C9.48743 13.6088 11.0543 13.6088 12.623 13.6088C13.0367 13.6088 13.3508 13.4137 13.4777 13.082C13.6845 12.5415 13.2904 11.9737 12.7011 11.9717C11.3801 11.9678 10.0611 11.9717 8.74011 11.9717V11.9698Z" fill="#F7F7F7"/>
<path id="Vector_4" d="M18.8623 18.7383C18.8682 21.2085 16.8252 23.269 14.353 23.2846C11.8535 23.3022 9.75793 21.2495 9.74036 18.7949C9.72085 16.1178 11.8965 14.2388 14.1033 14.1549C16.7843 14.0515 18.8955 16.2407 18.8623 18.7383ZM14.4428 20.6173C14.6243 20.5959 14.9462 20.5803 15.2604 20.5217C16.2867 20.3266 17.1687 19.8466 17.9004 19.0993C18.1326 18.8612 18.1287 18.5861 17.9082 18.3383C17.8711 18.2973 17.8321 18.2603 17.793 18.2212C15.8301 16.3305 12.6984 16.3578 10.7648 18.2837C10.4604 18.5861 10.4565 18.8651 10.7706 19.1578C11.7638 20.0905 12.9345 20.5959 14.4448 20.6173H14.4428Z" fill="#F7F7F7"/>
<path id="Vector_5" d="M10.4928 15.3623C10.3465 15.5594 10.2333 15.7311 10.1006 15.8852C10.0577 15.9359 9.96795 15.975 9.89965 15.975C8.21185 15.9789 6.52209 15.9789 4.83429 15.975C4.76209 15.975 4.68795 15.9652 4.6216 15.9399C4.48112 15.8872 4.41087 15.7818 4.42843 15.6277C4.44599 15.4696 4.52795 15.3681 4.69185 15.3564C4.81868 15.3486 4.94551 15.3486 5.07234 15.3486C6.80892 15.3486 8.54551 15.3486 10.284 15.3486C10.3426 15.3486 10.4011 15.3545 10.4909 15.3584L10.4928 15.3623Z" fill="#F7F7F7"/>
<path id="Vector_6" d="M11.9336 4.43555C12.757 5.27457 13.5687 6.09994 14.3668 6.9136C14.3707 6.9136 14.3258 6.9214 14.2809 6.9214C13.6624 6.9214 13.0458 6.9253 12.4272 6.9214C12.0565 6.9214 11.9277 6.79262 11.9277 6.41603C11.9277 5.8775 11.9297 5.33701 11.9316 4.79847C11.9316 4.68335 11.9316 4.57018 11.9316 4.43555H11.9336Z" fill="#F7F7F7"/>
<path id="Vector_7" d="M8.72285 10.7347C7.42139 10.7347 6.11993 10.7347 4.81651 10.7347C4.46919 10.7347 4.19017 10.6118 4.01846 10.2957C3.74724 9.79228 4.06334 9.1757 4.63114 9.10155C4.70919 9.09179 4.78724 9.08789 4.86724 9.08789C7.45261 9.08789 10.038 9.08789 12.6233 9.08789C13.0858 9.08789 13.3999 9.31228 13.5033 9.72009C13.597 10.085 13.435 10.4674 13.0799 10.6313C12.9277 10.7015 12.7424 10.7308 12.5726 10.7308C11.2887 10.7386 10.0048 10.7347 8.7209 10.7347H8.72285ZM8.73846 9.59326C7.61261 9.59326 6.48675 9.59326 5.3609 9.59326C5.15017 9.59326 4.93749 9.59326 4.72675 9.60691C4.54724 9.61862 4.42822 9.74935 4.42432 9.90935C4.42041 10.0694 4.53553 10.1962 4.71505 10.2255C4.76773 10.2333 4.82432 10.2352 4.877 10.2352C7.42529 10.2352 9.97358 10.2352 12.5199 10.2352C12.6038 10.2352 12.6897 10.2313 12.7716 10.2157C12.9336 10.1884 13.0116 10.0713 13.0175 9.92106C13.0233 9.76692 12.9336 9.65765 12.7833 9.61472C12.7092 9.59326 12.6272 9.59521 12.5492 9.59326C11.2789 9.59326 10.0068 9.59326 8.73651 9.59326H8.73846Z" fill="black"/>
<path id="Vector_8" d="M8.74192 11.9717C10.0629 11.9717 11.3819 11.9697 12.7029 11.9717C13.2922 11.9717 13.6863 12.5414 13.4795 13.0819C13.3526 13.4156 13.0405 13.6088 12.6248 13.6088C11.0561 13.6088 9.48923 13.6088 7.92045 13.6088C6.88436 13.6088 5.85021 13.6107 4.81411 13.6088C4.36728 13.6088 4.05119 13.3746 3.94777 12.9805C3.82289 12.5024 4.16436 12.0107 4.65606 11.9795C4.91558 11.9639 5.17704 11.9756 5.43655 11.9756C6.53899 11.9756 7.64143 11.9756 8.74192 11.9756C8.74192 11.9756 8.74192 11.9717 8.74192 11.9697V11.9717ZM8.72241 12.4731C8.72241 12.4731 8.72241 12.4731 8.72241 12.4712C7.49899 12.4712 6.27558 12.4712 5.05411 12.4712C4.92728 12.4712 4.80045 12.4712 4.67362 12.4848C4.50582 12.5044 4.43948 12.6273 4.42972 12.7775C4.41997 12.9356 4.49606 13.0488 4.65997 13.0761C4.76143 13.0936 4.86484 13.1014 4.96631 13.1014C7.50875 13.1034 10.0531 13.1034 12.5956 13.1014C12.6678 13.1014 12.7419 13.0956 12.8102 13.0741C13.019 13.0058 13.1029 12.7483 12.9487 12.5961C12.8707 12.52 12.7263 12.477 12.6112 12.477C11.3156 12.4692 10.02 12.4712 8.72436 12.4712L8.72241 12.4731Z" fill="black"/>
<path id="Vector_9" d="M14.4447 20.6169C12.9364 20.5954 11.7656 20.0881 10.7705 19.1573C10.4583 18.8627 10.4622 18.5856 10.7647 18.2832C12.6983 16.3593 15.832 16.33 17.793 18.2208C17.832 18.2578 17.871 18.2969 17.9081 18.3378C18.1286 18.5856 18.1325 18.8608 17.9003 19.0988C17.1686 19.8481 16.2886 20.3261 15.2603 20.5213C14.9461 20.5817 14.6261 20.5973 14.4427 20.6169H14.4447ZM14.2983 17.3271C13.5432 17.3271 12.9169 17.9515 12.9227 18.7008C12.9266 19.4832 13.5491 20.0998 14.3354 20.1017C15.0437 20.1017 15.6935 19.45 15.6974 18.7378C15.6993 17.9515 15.0808 17.3271 14.2983 17.3271ZM15.8847 17.6256C16.3198 18.3613 16.3061 19.0852 15.8398 19.8403C16.5208 19.5925 17.0613 19.2198 17.5666 18.7281C17.1003 18.2149 16.5383 17.8559 15.8847 17.6237V17.6256ZM12.7198 19.813C12.2886 19.0754 12.3295 18.3574 12.7413 17.612C12.1227 17.8637 11.6154 18.1817 11.1647 18.5954C11.073 18.6793 11.0495 18.7476 11.1588 18.8276C11.4749 19.0598 11.7832 19.3037 12.111 19.5183C12.2983 19.6413 12.5149 19.7154 12.7198 19.813Z" fill="black"/>
<path id="Vector_10" d="M8.738 9.59277C10.0082 9.59277 11.2804 9.59277 12.5507 9.59277C12.6287 9.59277 12.7107 9.59277 12.7848 9.61424C12.9351 9.65521 13.0248 9.76643 13.019 9.92058C13.0151 10.0708 12.937 10.1879 12.7731 10.2152C12.6892 10.2289 12.6053 10.2347 12.5214 10.2347C9.97312 10.2347 7.42483 10.2347 4.87849 10.2347C4.82385 10.2347 4.76922 10.2347 4.71654 10.225C4.53703 10.1957 4.42385 10.0689 4.42581 9.90887C4.42971 9.75082 4.54873 9.61814 4.72824 9.60643C4.93898 9.59277 5.15166 9.59277 5.36239 9.59277C6.48825 9.59277 7.6141 9.59277 8.73995 9.59277H8.738Z" fill="#F7F7F7"/>
<path id="Vector_11" d="M8.72291 12.4725C10.0185 12.4725 11.3141 12.4685 12.6097 12.4783C12.7249 12.4783 12.8693 12.5212 12.9473 12.5973C13.1014 12.7495 13.0175 13.0071 12.8088 13.0754C12.7424 13.0968 12.6663 13.1027 12.5941 13.1027C10.0517 13.1027 7.5073 13.1027 4.96486 13.1027C4.8634 13.1027 4.75803 13.0949 4.65852 13.0773C4.49657 13.0481 4.42047 12.9368 4.42828 12.7788C4.43608 12.6285 4.50243 12.5056 4.67218 12.4861C4.79706 12.4725 4.92584 12.4725 5.05267 12.4725C6.27608 12.4725 7.4995 12.4725 8.72096 12.4725C8.72096 12.4725 8.72096 12.4725 8.72096 12.4744L8.72291 12.4725Z" fill="#F7F7F7"/>
<path id="Vector_12" d="M14.2975 17.3271C15.0799 17.3271 15.6985 17.9496 15.6965 18.7379C15.6946 19.452 15.0448 20.1037 14.3346 20.1018C13.5463 20.1018 12.9258 19.4852 12.9219 18.7008C12.918 17.9515 13.5443 17.3271 14.2975 17.3271ZM13.2965 18.7164C13.2985 19.2706 13.7512 19.7252 14.2995 19.7252C14.8595 19.7252 15.3297 19.2589 15.3238 18.7125C15.318 18.1467 14.8653 17.694 14.3053 17.694C13.7453 17.694 13.2946 18.1506 13.2985 18.7164H13.2965Z" fill="#F7F7F7"/>
<path id="Vector_13" d="M15.8828 17.626C16.5364 17.8582 17.0984 18.2172 17.5647 18.7304C17.0594 19.2201 16.5208 19.5928 15.8379 19.8426C16.3042 19.0874 16.3179 18.3635 15.8828 17.6279V17.626Z" fill="#F7F7F7"/>
<path id="Vector_14" d="M12.7171 19.8133C12.5142 19.7177 12.2957 19.6416 12.1083 19.5186C11.7805 19.304 11.4722 19.0601 11.1561 18.8279C11.0469 18.7479 11.0722 18.6796 11.162 18.5957C11.6108 18.1821 12.12 17.8621 12.7386 17.6123C12.3269 18.3577 12.2859 19.0757 12.7171 19.8133Z" fill="#F7F7F7"/>
<path id="Vector_15" d="M13.2969 18.7168C13.2949 18.1509 13.7457 17.6943 14.3037 17.6943C14.8637 17.6943 15.3164 18.147 15.3222 18.7129C15.3281 19.2592 14.8578 19.7256 14.2978 19.7256C13.7496 19.7256 13.2969 19.2709 13.2949 18.7168H13.2969ZM14.3037 19.2163C14.5769 19.2202 14.8169 18.9841 14.8188 18.7129C14.8208 18.4397 14.573 18.2017 14.29 18.2017C14.0422 18.2017 13.8022 18.4378 13.7944 18.6895C13.7866 18.9704 14.0208 19.2143 14.3037 19.2182V19.2163Z" fill="black"/>
<path id="Vector_16" d="M14.3044 19.2158C14.0215 19.2119 13.7873 18.97 13.7951 18.687C13.8029 18.4373 14.0429 18.2012 14.2907 18.1992C14.5756 18.1992 14.8234 18.4392 14.8195 18.7104C14.8176 18.9817 14.5756 19.2178 14.3044 19.2139V19.2158Z" fill="#F7F7F7"/>
</g>
</g>
</g>
<defs>
<clipPath id="clip0_5642_9781">
<rect width="21.8049" height="24" fill="white" transform="translate(0 0.599609)"/>
</clipPath>
</defs>
</svg>
