<svg width="33" height="33" viewBox="0 0 33 33" fill="none" xmlns="http://www.w3.org/2000/svg">
<g clip-path="url(#clip0_20_234)">
<path d="M30.3586 12.9293V22.9293C30.3586 23.1945 30.2533 23.4489 30.0658 23.6364C29.8782 23.824 29.6239 23.9293 29.3586 23.9293H25.3586V27.9293C25.3586 28.1945 25.2533 28.4489 25.0658 28.6364C24.8782 28.824 24.6239 28.9293 24.3586 28.9293H8.35864C8.09343 28.9293 7.83907 28.824 7.65154 28.6364C7.464 28.4489 7.35864 28.1945 7.35864 27.9293V23.9293H3.35864C3.09343 23.9293 2.83907 23.824 2.65154 23.6364C2.464 23.4489 2.35864 23.1945 2.35864 22.9293V12.9293C2.35864 11.2756 3.77864 9.92932 5.52489 9.92932H7.35864V5.92932C7.35864 5.6641 7.464 5.40975 7.65154 5.22221C7.83907 5.03468 8.09343 4.92932 8.35864 4.92932H24.3586C24.6239 4.92932 24.8782 5.03468 25.0658 5.22221C25.2533 5.40975 25.3586 5.6641 25.3586 5.92932V9.92932H27.1924C28.9386 9.92932 30.3586 11.2756 30.3586 12.9293ZM9.35864 9.92932H23.3586V6.92932H9.35864V9.92932ZM23.3586 20.9293H9.35864V26.9293H23.3586V20.9293ZM25.3586 15.4293C25.3586 15.1326 25.2707 14.8426 25.1058 14.596C24.941 14.3493 24.7068 14.157 24.4327 14.0435C24.1586 13.93 23.857 13.9003 23.566 13.9581C23.275 14.016 23.0078 14.1589 22.798 14.3687C22.5882 14.5784 22.4453 14.8457 22.3875 15.1367C22.3296 15.4277 22.3593 15.7293 22.4728 16.0033C22.5864 16.2774 22.7786 16.5117 23.0253 16.6765C23.272 16.8413 23.562 16.9293 23.8586 16.9293C24.2565 16.9293 24.638 16.7713 24.9193 16.49C25.2006 16.2087 25.3586 15.8271 25.3586 15.4293Z" fill="white"/>
</g>
<defs>
<clipPath id="clip0_20_234">
<rect width="32" height="32" fill="white" transform="translate(0.358643 0.929321)"/>
</clipPath>
</defs>
</svg>
