<svg width="117" height="124" viewBox="0 0 117 124" fill="none" xmlns="http://www.w3.org/2000/svg">
<path d="M11.6527 20.5372V112.955H104.874V123.223H11.6527C5.2437 123.223 0 118.603 0 112.955V20.5372H11.6527ZM75.7424 35.9402H107.787L75.7424 7.70147V35.9402ZM34.958 0H81.5687L116.527 30.8059V92.4176C116.527 98.1167 111.341 102.686 104.874 102.686H34.958C31.8675 102.686 28.9036 101.604 26.7183 99.6786C24.533 97.7529 23.3053 95.141 23.3053 92.4176V10.2686C23.3053 4.56954 28.4908 0 34.958 0ZM87.395 82.149V71.8804H34.958V82.149H87.395ZM104.874 61.6117V51.3431H34.958V61.6117H104.874Z" fill="#203881"/>
</svg>
