<svg width="52" height="52" viewBox="0 0 52 52" fill="none" xmlns="http://www.w3.org/2000/svg">
<path fill-rule="evenodd" clip-rule="evenodd" d="M2.16669 26C2.16669 39.1627 12.8372 49.8333 26 49.8333C39.1628 49.8333 49.8334 39.1627 49.8334 26C49.8334 12.8372 39.1628 2.16663 26 2.16663C12.8372 2.16663 2.16669 12.8372 2.16669 26ZM45.5 26C45.5 36.7695 36.7696 45.5 26 45.5C15.2305 45.5 6.50002 36.7695 6.50002 26C6.50002 15.2304 15.2305 6.49996 26 6.49996C36.7696 6.49996 45.5 15.2304 45.5 26ZM26.0007 36.8297C27.1977 36.8297 28.1681 35.8597 28.1681 34.663C28.1681 33.4664 27.1977 32.4964 26.0007 32.4964C24.8037 32.4964 23.8334 33.4664 23.8334 34.663C23.8334 35.8597 24.8037 36.8297 26.0007 36.8297ZM23.8334 30.3333H28.1667C28.1667 28.6035 28.4384 28.2865 30.219 27.3962C33.3134 25.849 34.6667 24.2702 34.6667 20.5833C34.6667 15.8613 30.9494 13 26 13C21.2136 13 17.3334 16.8802 17.3334 21.6666H21.6667C21.6667 19.2734 23.6068 17.3333 26 17.3333C28.7672 17.3333 30.3334 18.5388 30.3334 20.5833C30.3334 22.3131 30.0616 22.6301 28.2811 23.5204C25.1866 25.0676 23.8334 26.6464 23.8334 30.3333Z" fill="#EEFAFF"/>
</svg>
