<svg xmlns="http://www.w3.org/2000/svg" width="16" height="15" viewBox="0 0 16 15" fill="none">
  <path d="M12.8242 5L9.07422 1.25H4.07422C3.7427 1.25 3.42476 1.3817 3.19034 1.61612C2.95591 1.85054 2.82422 2.16848 2.82422 2.5V12.5C2.82422 12.8315 2.95591 13.1495 3.19034 13.3839C3.42476 13.6183 3.7427 13.75 4.07422 13.75H11.5742C11.9057 13.75 12.2237 13.6183 12.4581 13.3839C12.6925 13.1495 12.8242 12.8315 12.8242 12.5V5ZM5.94922 11.875H4.69922V6.25H5.94922V11.875ZM8.44922 11.875H7.19922V8.125H8.44922V11.875ZM10.9492 11.875H9.69922V10H10.9492V11.875ZM9.07422 5.625H8.44922V2.5L11.5742 5.625H9.07422Z" fill="#001B69"/>
</svg>