<svg width="25" height="25" viewBox="0 0 25 25" fill="none" xmlns="http://www.w3.org/2000/svg">
<g id="FilePdf">
<path id="Vector" d="M19.5312 16.0156V16.7969H20.7031C21.0139 16.7969 21.312 16.9203 21.5318 17.1401C21.7515 17.3599 21.875 17.6579 21.875 17.9688C21.875 18.2796 21.7515 18.5776 21.5318 18.7974C21.312 19.0172 21.0139 19.1406 20.7031 19.1406H19.5312V20.3125C19.5312 20.6233 19.4078 20.9214 19.188 21.1411C18.9682 21.3609 18.6702 21.4844 18.3594 21.4844C18.0486 21.4844 17.7505 21.3609 17.5307 21.1411C17.311 20.9214 17.1875 20.6233 17.1875 20.3125V14.8438C17.1875 14.5329 17.311 14.2349 17.5307 14.0151C17.7505 13.7953 18.0486 13.6719 18.3594 13.6719H21.4844C21.7952 13.6719 22.0932 13.7953 22.313 14.0151C22.5328 14.2349 22.6562 14.5329 22.6562 14.8438C22.6562 15.1546 22.5328 15.4526 22.313 15.6724C22.0932 15.8922 21.7952 16.0156 21.4844 16.0156H19.5312ZM8.98438 16.7969C8.98438 17.6257 8.65514 18.4205 8.06908 19.0066C7.48303 19.5926 6.68818 19.9219 5.85938 19.9219H5.46875V20.3125C5.46875 20.6233 5.34529 20.9214 5.12552 21.1411C4.90575 21.3609 4.60768 21.4844 4.29688 21.4844C3.98607 21.4844 3.688 21.3609 3.46823 21.1411C3.24846 20.9214 3.125 20.6233 3.125 20.3125V14.8438C3.125 14.5329 3.24846 14.2349 3.46823 14.0151C3.688 13.7953 3.98607 13.6719 4.29688 13.6719H5.85938C6.68818 13.6719 7.48303 14.0011 8.06908 14.5872C8.65514 15.1732 8.98438 15.9681 8.98438 16.7969ZM6.64062 16.7969C6.64062 16.5897 6.55831 16.391 6.4118 16.2444C6.26529 16.0979 6.06658 16.0156 5.85938 16.0156H5.46875V17.5781H5.85938C6.06658 17.5781 6.26529 17.4958 6.4118 17.3493C6.55831 17.2028 6.64062 17.0041 6.64062 16.7969ZM16.4062 17.5781C16.4062 18.6141 15.9947 19.6077 15.2621 20.3403C14.5296 21.0728 13.536 21.4844 12.5 21.4844H10.9375C10.6267 21.4844 10.3286 21.3609 10.1089 21.1411C9.88909 20.9214 9.76562 20.6233 9.76562 20.3125V14.8438C9.76562 14.5329 9.88909 14.2349 10.1089 14.0151C10.3286 13.7953 10.6267 13.6719 10.9375 13.6719H12.5C13.536 13.6719 14.5296 14.0834 15.2621 14.816C15.9947 15.5486 16.4062 16.5421 16.4062 17.5781ZM14.0625 17.5781C14.0625 17.1637 13.8979 16.7663 13.6049 16.4733C13.3118 16.1802 12.9144 16.0156 12.5 16.0156H12.1094V19.1406H12.5C12.9144 19.1406 13.3118 18.976 13.6049 18.683C13.8979 18.39 14.0625 17.9925 14.0625 17.5781ZM3.51562 10.5469V3.90625C3.51562 3.38825 3.7214 2.89146 4.08768 2.52518C4.45396 2.1589 4.95075 1.95313 5.46875 1.95312H14.8438C14.9978 1.95313 15.1503 1.9835 15.2925 2.04248C15.4348 2.10146 15.564 2.18791 15.6729 2.29688L21.1416 7.76562C21.3611 7.98534 21.4844 8.28319 21.4844 8.59375V10.5469C21.4844 10.8577 21.3609 11.1557 21.1411 11.3755C20.9214 11.5953 20.6233 11.7188 20.3125 11.7188C20.0017 11.7188 19.7036 11.5953 19.4839 11.3755C19.2641 11.1557 19.1406 10.8577 19.1406 10.5469V10.1562H14.4531C14.1423 10.1562 13.8443 10.0328 13.6245 9.81302C13.4047 9.59325 13.2812 9.29518 13.2812 8.98438V4.29688H5.85938V10.5469C5.85938 10.8577 5.73591 11.1557 5.51614 11.3755C5.29637 11.5953 4.9983 11.7188 4.6875 11.7188C4.3767 11.7188 4.07863 11.5953 3.85886 11.3755C3.63909 11.1557 3.51562 10.8577 3.51562 10.5469ZM15.625 5.56641V7.8125H17.8711L15.625 5.56641Z" fill="#001B69"/>
</g>
</svg>
