<svg width="26" height="25" viewBox="0 0 26 25" fill="none" xmlns="http://www.w3.org/2000/svg">
<g id="MicrosoftExcelLogo">
<path id="Vector" d="M20.0312 1.95312H7.53125C7.01325 1.95312 6.51646 2.1589 6.15018 2.52518C5.7839 2.89146 5.57812 3.38825 5.57812 3.90625V5.46875H4.01562C3.49762 5.46875 3.00084 5.67453 2.63456 6.04081C2.26828 6.40709 2.0625 6.90387 2.0625 7.42188V17.5781C2.0625 18.0961 2.26828 18.5929 2.63456 18.9592C3.00084 19.3255 3.49762 19.5312 4.01562 19.5312H5.57812V21.0938C5.57812 21.6118 5.7839 22.1085 6.15018 22.4748C6.51646 22.8411 7.01325 23.0469 7.53125 23.0469H20.0312C20.5493 23.0469 21.046 22.8411 21.4123 22.4748C21.7786 22.1085 21.9844 21.6118 21.9844 21.0938V3.90625C21.9844 3.38825 21.7786 2.89146 21.4123 2.52518C21.046 2.1589 20.5493 1.95312 20.0312 1.95312ZM16.9062 10.5469H19.6406V14.4531H16.9062V10.5469ZM19.6406 8.20312H16.9062V7.42188C16.9062 6.90387 16.7005 6.40709 16.3342 6.04081C15.9679 5.67453 15.4711 5.46875 14.9531 5.46875V4.29688H19.6406V8.20312ZM7.92188 4.29688H12.6094V5.46875H7.92188V4.29688ZM4.40625 7.8125H14.5625V17.1875H4.40625V7.8125ZM7.92188 19.5312H12.6094V20.7031H7.92188V19.5312ZM14.9531 20.7031V19.5312C15.4711 19.5312 15.9679 19.3255 16.3342 18.9592C16.7005 18.5929 16.9062 18.0961 16.9062 17.5781V16.7969H19.6406V20.7031H14.9531ZM6.78125 15.7441C6.54246 15.5452 6.39247 15.2596 6.36426 14.9501C6.33606 14.6406 6.43196 14.3326 6.63086 14.0938L7.95898 12.5L6.63086 10.9062C6.53091 10.7882 6.45533 10.6515 6.40846 10.5041C6.3616 10.3567 6.34438 10.2015 6.3578 10.0474C6.37122 9.89327 6.41502 9.74336 6.48666 9.60627C6.55831 9.46918 6.65638 9.34763 6.77523 9.24863C6.89408 9.14963 7.03136 9.07514 7.17914 9.02946C7.32692 8.98377 7.48228 8.96779 7.63626 8.98245C7.79025 8.9971 7.93981 9.04209 8.07632 9.11483C8.21283 9.18757 8.33359 9.28661 8.43164 9.40625L9.48438 10.6689L10.5371 9.40625C10.7369 9.17028 11.0218 9.02282 11.3298 8.99599C11.6378 8.96917 11.944 9.06515 12.1815 9.26303C12.4191 9.46091 12.5688 9.74465 12.5981 10.0524C12.6274 10.3602 12.5339 10.6671 12.3379 10.9062L11.0098 12.5L12.3379 14.0938C12.4378 14.2118 12.5134 14.3485 12.5603 14.4959C12.6072 14.6433 12.6244 14.7985 12.611 14.9526C12.5975 15.1067 12.5537 15.2566 12.4821 15.3937C12.4104 15.5308 12.3124 15.6524 12.1935 15.7514C12.0747 15.8504 11.9374 15.9249 11.7896 15.9705C11.6418 16.0162 11.4865 16.0322 11.3325 16.0176C11.1785 16.0029 11.0289 15.9579 10.8924 15.8852C10.7559 15.8124 10.6352 15.7134 10.5371 15.5937L9.48438 14.3311L8.43164 15.5937C8.23272 15.8325 7.9471 15.9825 7.63759 16.0107C7.32809 16.0389 7.02005 15.943 6.78125 15.7441Z" fill="#001B69"/>
</g>
</svg>
