<svg width="41" height="40" viewBox="0 0 41 40" fill="none" xmlns="http://www.w3.org/2000/svg">
<path d="M33.8337 13.3335L23.8337 3.3335H10.5003C9.61627 3.3335 8.76842 3.68469 8.1433 4.30981C7.51818 4.93493 7.16699 5.78277 7.16699 6.66683V33.3335C7.16699 34.2176 7.51818 35.0654 8.1433 35.6905C8.76842 36.3156 9.61627 36.6668 10.5003 36.6668H30.5003C31.3844 36.6668 32.2322 36.3156 32.8573 35.6905C33.4825 35.0654 33.8337 34.2176 33.8337 33.3335V13.3335ZM15.5003 31.6668H12.167V16.6668H15.5003V31.6668ZM22.167 31.6668H18.8337V21.6668H22.167V31.6668ZM28.8337 31.6668H25.5003V26.6668H28.8337V31.6668ZM23.8337 15.0002H22.167V6.66683L30.5003 15.0002H23.8337Z" fill="white"/>
</svg>
