<svg width="81" height="82" viewBox="0 0 81 82" fill="none" xmlns="http://www.w3.org/2000/svg">
<path d="M47.25 41C47.25 36.4422 54.5535 33.3262 58.5 27.3333C63 20.5 63 4.55556 63 4.55556H18C18 4.55556 18 20.5 22.5 27.3333C26.4465 33.3262 33.75 36.4422 33.75 41C33.75 45.5578 26.4465 48.6738 22.5 54.6667C18 61.5 18 77.4444 18 77.4444H63C63 77.4444 63 61.5 58.5 54.6667C54.5535 48.6738 47.25 45.5578 47.25 41Z" fill="#FFE8B6"/>
<path d="M40.5 4.55556H22.5C22.5 4.55556 22.5 13.6667 24.75 20.5C27.684 29.4107 38.25 31.8866 38.25 41C38.25 50.1134 38.25 70.6111 40.5 70.6111C42.75 70.6111 42.75 50.1111 42.75 41C42.75 31.8889 53.3183 29.4107 56.25 20.5C58.5 13.6667 58.5 4.55556 58.5 4.55556H40.5Z" fill="#FFAC33"/>
<path d="M67.5 77.4444C67.5 78.6526 67.0259 79.8114 66.182 80.6657C65.3381 81.52 64.1935 82 63 82H18C16.8065 82 15.6619 81.52 14.818 80.6657C13.9741 79.8114 13.5 78.6526 13.5 77.4444C13.5 76.2362 13.9741 75.0775 14.818 74.2232C15.6619 73.3688 16.8065 72.8889 18 72.8889H63C64.1935 72.8889 65.3381 73.3688 66.182 74.2232C67.0259 75.0775 67.5 76.2362 67.5 77.4444ZM67.5 4.55556C67.5 5.76376 67.0259 6.92249 66.182 7.77682C65.3381 8.63115 64.1935 9.11111 63 9.11111H18C16.8065 9.11111 15.6619 8.63115 14.818 7.77682C13.9741 6.92249 13.5 5.76376 13.5 4.55556C13.5 3.34735 13.9741 2.18862 14.818 1.33429C15.6619 0.479959 16.8065 0 18 0L63 0C64.1935 0 65.3381 0.479959 66.182 1.33429C67.0259 2.18862 67.5 3.34735 67.5 4.55556Z" fill="#3B88C3"/>
</svg>
