<svg width="24" height="25" viewBox="0 0 24 25" fill="none" xmlns="http://www.w3.org/2000/svg">
<g id="icon-park-outline:seal">
<g id="Group">
<path id="Vector" d="M2.5 19C2.5 18.7348 2.60536 18.4804 2.79289 18.2929C2.98043 18.1054 3.23478 18 3.5 18H20.5C20.7652 18 21.0196 18.1054 21.2071 18.2929C21.3946 18.4804 21.5 18.7348 21.5 19V21.5C21.5 21.7652 21.3946 22.0196 21.2071 22.2071C21.0196 22.3946 20.7652 22.5 20.5 22.5H3.5C3.23478 22.5 2.98043 22.3946 2.79289 22.2071C2.60536 22.0196 2.5 21.7652 2.5 21.5V19Z" stroke="#0E9CD8" stroke-width="2"/>
<path id="Vector_2" d="M2.5 16C2.5 15.7348 2.60536 15.4804 2.79289 15.2929C2.98043 15.1054 3.23478 15 3.5 15H20.5C20.7652 15 21.0196 15.1054 21.2071 15.2929C21.3946 15.4804 21.5 15.7348 21.5 16V21.5C21.5 21.7652 21.3946 22.0196 21.2071 22.2071C21.0196 22.3946 20.7652 22.5 20.5 22.5H3.5C3.23478 22.5 2.98043 22.3946 2.79289 22.2071C2.60536 22.0196 2.5 21.7652 2.5 21.5V16Z" stroke="#0E9CD8" stroke-width="2"/>
<path id="Vector_3" d="M9.3815 8.332C9.41616 8.23483 9.48004 8.15076 9.56436 8.09132C9.64869 8.03189 9.74933 7.99999 9.8525 8H14.1475C14.2507 7.99999 14.3513 8.03189 14.4356 8.09132C14.52 8.15076 14.5838 8.23483 14.6185 8.332L17 15H7L9.3815 8.332Z" stroke="#0E9CD8" stroke-width="2" stroke-linecap="round" stroke-linejoin="round"/>
<path id="Vector_4" d="M13.8 2.5H10.2C8.70883 2.5 7.5 3.70883 7.5 5.2C7.5 6.69117 8.70883 7.9 10.2 7.9H13.8C15.2912 7.9 16.5 6.69117 16.5 5.2C16.5 3.70883 15.2912 2.5 13.8 2.5Z" stroke="#0E9CD8" stroke-width="2"/>
</g>
</g>
</svg>
