<svg width="18" height="19" viewBox="0 0 18 19" fill="none" xmlns="http://www.w3.org/2000/svg">
<path d="M3.31431 8.01888L0.856099 9.7776C0.834174 9.7933 0.816304 9.814 0.803968 9.83798C0.791631 9.86196 0.785183 9.88853 0.785156 9.9155V9.9159C0.785213 9.94297 0.791728 9.96964 0.804161 9.99368C0.816593 10.0177 0.834584 10.0385 0.856639 10.0541L3.31485 11.8015C3.34027 11.8196 3.37017 11.8303 3.40127 11.8325C3.43238 11.8347 3.46348 11.8282 3.49116 11.8139C3.51888 11.7996 3.54213 11.778 3.55834 11.7513C3.57455 11.7247 3.58309 11.6941 3.58303 11.6629V10.8406L5.79089 10.8407C5.81319 10.8407 5.83528 10.8363 5.85588 10.8277C5.87649 10.8192 5.89521 10.8067 5.91097 10.7909C5.92674 10.7752 5.93924 10.7564 5.94777 10.7358C5.95629 10.7152 5.96067 10.6931 5.96065 10.6708L5.96058 9.14931C5.96059 9.127 5.9562 9.1049 5.94767 9.08429C5.93913 9.06368 5.92662 9.04495 5.91084 9.02918C5.89506 9.0134 5.87633 9.0009 5.85571 8.99237C5.83509 8.98384 5.813 8.97946 5.79069 8.97948H3.5831L3.5831 8.15685C3.5831 8.0934 3.54732 8.03515 3.49083 8.00586C3.46306 7.99157 3.43188 7.98523 3.40074 7.98752C3.36959 7.98982 3.33969 8.00067 3.31431 8.01888Z" fill="#001B69"/>
<path d="M14.6857 11.8013L17.1439 10.0426C17.1658 10.0269 17.1837 10.0062 17.196 9.98221C17.2084 9.95823 17.2148 9.93166 17.2148 9.90469V9.90429C17.2148 9.87722 17.2083 9.85055 17.1958 9.82651C17.1834 9.80247 17.1654 9.78174 17.1434 9.76605L14.6851 8.01867C14.6597 8.00061 14.6298 7.9899 14.5987 7.98772C14.5676 7.98554 14.5365 7.99198 14.5088 8.00632C14.4811 8.02059 14.4579 8.04222 14.4417 8.06886C14.4255 8.09549 14.4169 8.12607 14.417 8.15725V8.9796L12.2091 8.97954C12.1868 8.97953 12.1647 8.98391 12.1441 8.99245C12.1235 9.00098 12.1048 9.01349 12.089 9.02926C12.0733 9.04503 12.0608 9.06376 12.0522 9.08437C12.0437 9.10498 12.0393 9.12706 12.0393 9.14937L12.0394 10.6709C12.0394 10.6932 12.0438 10.7153 12.0523 10.7359C12.0609 10.7565 12.0734 10.7752 12.0892 10.791C12.1049 10.8068 12.1237 10.8193 12.1443 10.8278C12.1649 10.8364 12.187 10.8407 12.2093 10.8407H14.4169V11.6633C14.4169 11.7268 14.4527 11.785 14.5092 11.8143C14.5369 11.8286 14.5681 11.835 14.5993 11.8327C14.6304 11.8304 14.6603 11.8195 14.6857 11.8013Z" fill="#001B69"/>
<rect x="8.2793" y="0.819946" width="1.44" height="18" rx="0.36" fill="#001B69"/>
</svg>
