<svg width="40" height="40" viewBox="0 0 40 40" fill="none" xmlns="http://www.w3.org/2000/svg">
<path d="M20.0001 5C23.6834 5 26.6667 7.98333 26.6667 11.6667C26.6667 15.35 23.6834 18.3333 20.0001 18.3333C16.3167 18.3333 13.3334 15.35 13.3334 11.6667C13.3334 7.98333 16.3167 5 20.0001 5ZM26.6667 22.5667C26.6667 24.3333 26.2001 28.45 23.0167 33.05L21.6667 25L23.2334 21.8667C22.2001 21.75 21.1167 21.6667 20.0001 21.6667C18.8834 21.6667 17.8001 21.75 16.7667 21.8667L18.3334 25L16.9834 33.05C13.8001 28.45 13.3334 24.3333 13.3334 22.5667C9.35008 23.7333 6.66675 25.8333 6.66675 28.3333V35H33.3334V28.3333C33.3334 25.8333 30.6667 23.7333 26.6667 22.5667Z" fill="white"/>
</svg>
