<svg width="12" height="16" viewBox="0 0 12 16" fill="none" xmlns="http://www.w3.org/2000/svg">
<path d="M12 14V4.5L7.5 0H2C1.46957 0 0.960859 0.210714 0.585786 0.585786C0.210714 0.960859 0 1.46957 0 2V14C0 14.5304 0.210714 15.0391 0.585786 15.4142C0.960859 15.7893 1.46957 16 2 16H10C10.5304 16 11.0391 15.7893 11.4142 15.4142C11.7893 15.0391 12 14.5304 12 14ZM7.5 3C7.5 3.39782 7.65804 3.77936 7.93934 4.06066C8.22064 4.34196 8.60218 4.5 9 4.5H11V9H1V2C1 1.73478 1.10536 1.48043 1.29289 1.29289C1.48043 1.10536 1.73478 1 2 1H7.5V3ZM1 12V10H3V12H1ZM1 13H3V15H2C1.73478 15 1.48043 14.8946 1.29289 14.7071C1.10536 14.5196 1 14.2652 1 14V13ZM4 15V13H7V15H4ZM8 15V13H11V14C11 14.2652 10.8946 14.5196 10.7071 14.7071C10.5196 14.8946 10.2652 15 10 15H8ZM11 12H8V10H11V12ZM4 12V10H7V12H4Z" fill="black"/>
</svg>
