<svg width="12" height="16" viewBox="0 0 12 16" fill="none" xmlns="http://www.w3.org/2000/svg">
<path d="M4 12V10H7V12H4Z" fill="#001B69"/>
<path d="M7.293 0H2C1.46957 0 0.960859 0.210714 0.585786 0.585786C0.210714 0.960859 0 1.46957 0 2V14C0 14.5304 0.210714 15.0391 0.585786 15.4142C0.960859 15.7893 1.46957 16 2 16H10C10.5304 16 11.0391 15.7893 11.4142 15.4142C11.7893 15.0391 12 14.5304 12 14V4.707C11.9999 4.4418 11.8945 4.18749 11.707 4L8 0.293C7.81251 0.105451 7.5582 5.66374e-05 7.293 0ZM7.5 3.5V1.5L10.5 4.5H8.5C8.23478 4.5 7.98043 4.39464 7.79289 4.20711C7.60536 4.01957 7.5 3.76522 7.5 3.5ZM1 9H11V10H8V12H11V13H8V15H7V13H4V15H3V13H1V12H3V10H1V9Z" fill="#001B69"/>
</svg>
