<svg xmlns="http://www.w3.org/2000/svg" width="22" height="22" viewBox="0 0 22 22" fill="#203881">
  <path d="M9.29997 12.6002L19.2 2.7002M9.29997 12.6002L12.45 18.9002C12.4895 18.9864 12.5528 19.0594 12.6326 19.1106C12.7124 19.1618 12.8052 19.189 12.9 19.189C12.9947 19.189 13.0875 19.1618 13.1673 19.1106C13.2471 19.0594 13.3105 18.9864 13.35 18.9002L19.2 2.7002M9.29997 12.6002L2.99997 9.45019C2.9138 9.41071 2.84078 9.34731 2.78959 9.26754C2.73839 9.18777 2.71118 9.09498 2.71118 9.00019C2.71118 8.90541 2.73839 8.81262 2.78959 8.73285C2.84078 8.65308 2.9138 8.58968 2.99997 8.55019L19.2 2.7002" stroke="black" stroke-width="1.8" stroke-linecap="round" stroke-linejoin="round"/>
</svg>