<svg width="37" height="39" viewBox="0 0 37 39" fill="none" xmlns="http://www.w3.org/2000/svg">
<path d="M18.5 39C13.5935 39 8.88795 36.9455 5.41852 33.2886C1.9491 29.6316 0 24.6717 0 19.5C0 14.3283 1.9491 9.36838 5.41852 5.71142C8.88795 2.05446 13.5935 0 18.5 0C23.4065 0 28.1121 2.05446 31.5815 5.71142C35.0509 9.36838 37 14.3283 37 19.5C37 24.6717 35.0509 29.6316 31.5815 33.2886C28.1121 36.9455 23.4065 39 18.5 39ZM27.2412 15.3075C27.5474 14.9607 27.7142 14.5024 27.7064 14.0287C27.6987 13.5551 27.517 13.103 27.1996 12.7676C26.8814 12.4331 26.4526 12.2416 26.0032 12.2334C25.5538 12.2253 25.119 12.401 24.79 12.7237L15.6094 22.4006L12.21 18.8175C11.881 18.4948 11.4462 18.319 10.9968 18.3272C10.5474 18.3354 10.1186 18.5268 9.80037 18.8614C9.483 19.1968 9.30134 19.6488 9.29358 20.1225C9.28582 20.5961 9.45255 21.0545 9.75875 21.4012L14.3837 26.2762C14.7089 26.6186 15.1498 26.8109 15.6094 26.8109C16.069 26.8109 16.5098 26.6186 16.835 26.2762L27.2412 15.3075Z" fill="white"/>
</svg>
