<svg width="34" height="34" viewBox="0 0 34 34" fill="none" xmlns="http://www.w3.org/2000/svg">
<g id="fluent:task-list-square-add-24-filled">
<path id="Vector" d="M4.25 8.85417C4.25 7.63307 4.73508 6.46198 5.59853 5.59853C6.46198 4.73508 7.63307 4.25 8.85417 4.25H25.1458C26.3669 4.25 27.538 4.73508 28.4015 5.59853C29.2649 6.46198 29.75 7.63307 29.75 8.85417V17.0312C27.982 15.9004 25.8807 15.4075 23.7942 15.6341C21.7078 15.8608 19.7614 16.7933 18.2774 18.2774C16.7933 19.7614 15.8608 21.7078 15.6341 23.7942C15.4075 25.8807 15.9004 27.982 17.0312 29.75H8.85417C7.63307 29.75 6.46198 29.2649 5.59853 28.4015C4.73508 27.538 4.25 26.3669 4.25 25.1458V8.85417ZM17.7083 13.1042C17.7083 13.6907 18.1843 14.1667 18.7708 14.1667H23.7292C24.011 14.1667 24.2812 14.0547 24.4805 13.8555C24.6797 13.6562 24.7917 13.386 24.7917 13.1042C24.7917 12.8224 24.6797 12.5521 24.4805 12.3529C24.2812 12.1536 24.011 12.0417 23.7292 12.0417H18.7708C18.489 12.0417 18.2188 12.1536 18.0195 12.3529C17.8203 12.5521 17.7083 12.8224 17.7083 13.1042ZM15.2717 12.4383C15.3761 12.3411 15.4598 12.2238 15.5179 12.0934C15.5759 11.9631 15.6072 11.8224 15.6097 11.6797C15.6122 11.5371 15.5859 11.3954 15.5325 11.2631C15.4791 11.1308 15.3995 11.0106 15.2986 10.9097C15.1977 10.8088 15.0776 10.7293 14.9453 10.6758C14.813 10.6224 14.6713 10.5961 14.5286 10.5987C14.3859 10.6012 14.2452 10.6324 14.1149 10.6905C13.9846 10.7485 13.8673 10.8323 13.77 10.9367L11.6875 13.0192L11.0217 12.3533C10.8203 12.1657 10.5539 12.0635 10.2786 12.0683C10.0033 12.0732 9.7407 12.1847 9.54604 12.3794C9.35137 12.574 9.23986 12.8367 9.235 13.1119C9.23015 13.3872 9.33232 13.6536 9.52 13.855L10.9367 15.2717C11.1359 15.4706 11.4059 15.5824 11.6875 15.5824C11.9691 15.5824 12.2391 15.4706 12.4383 15.2717L15.2717 12.4383ZM15.2717 18.7283C15.0724 18.5294 14.8024 18.4176 14.5208 18.4176C14.2393 18.4176 13.9692 18.5294 13.77 18.7283L11.6875 20.8108L11.0217 20.145C10.8203 19.9573 10.5539 19.8551 10.2786 19.86C10.0033 19.8649 9.7407 19.9764 9.54604 20.171C9.35137 20.3657 9.23986 20.6283 9.235 20.9036C9.23015 21.1789 9.33232 21.4453 9.52 21.6467L10.9367 23.0633C11.1359 23.2623 11.4059 23.3741 11.6875 23.3741C11.9691 23.3741 12.2391 23.2623 12.4383 23.0633L15.2717 20.23C15.4706 20.0308 15.5824 19.7607 15.5824 19.4792C15.5824 19.1976 15.4706 18.9276 15.2717 18.7283ZM32.5833 24.7917C32.5833 22.7252 31.7624 20.7433 30.3012 19.2821C28.84 17.8209 26.8581 17 24.7917 17C22.7252 17 20.7433 17.8209 19.2821 19.2821C17.8209 20.7433 17 22.7252 17 24.7917C17 26.8581 17.8209 28.84 19.2821 30.3012C20.7433 31.7624 22.7252 32.5833 24.7917 32.5833C26.8581 32.5833 28.84 31.7624 30.3012 30.3012C31.7624 28.84 32.5833 26.8581 32.5833 24.7917ZM25.5 25.5L25.5014 29.0459C25.5014 29.2338 25.4268 29.4139 25.294 29.5468C25.1611 29.6796 24.9809 29.7543 24.7931 29.7543C24.6052 29.7543 24.4251 29.6796 24.2922 29.5468C24.1594 29.4139 24.0848 29.2338 24.0848 29.0459V25.5H20.536C20.3481 25.5 20.168 25.4254 20.0351 25.2925C19.9023 25.1597 19.8277 24.9795 19.8277 24.7917C19.8277 24.6038 19.9023 24.4236 20.0351 24.2908C20.168 24.158 20.3481 24.0833 20.536 24.0833H24.0833V20.5417C24.0833 20.3538 24.158 20.1736 24.2908 20.0408C24.4236 19.908 24.6038 19.8333 24.7917 19.8333C24.9795 19.8333 25.1597 19.908 25.2925 20.0408C25.4254 20.1736 25.5 20.3538 25.5 20.5417V24.0833H29.0374C29.2253 24.0833 29.4054 24.158 29.5383 24.2908C29.6711 24.4236 29.7458 24.6038 29.7458 24.7917C29.7458 24.9795 29.6711 25.1597 29.5383 25.2925C29.4054 25.4254 29.2253 25.5 29.0374 25.5H25.5Z" fill="#0E9CD8"/>
</g>
</svg>
