<svg width="42" height="40" viewBox="0 0 42 40" fill="none" xmlns="http://www.w3.org/2000/svg">
<path d="M6.22948 5.84594H6.22686C10.1568 2.10285 15.4869 -3.94399e-08 21.0446 0C26.6023 3.94399e-08 31.9324 2.10285 35.8623 5.84594C39.7922 9.58903 42 14.6657 42 19.9593C42 25.2528 39.7922 30.3295 35.8623 34.0726C33.2663 36.5734 30.0227 38.3766 26.4599 39.2998C22.8971 40.223 19.1415 40.2335 15.5731 39.33C12.0047 38.4266 8.75022 36.6414 6.13895 34.155C3.52767 31.6687 1.65231 28.5695 0.702634 25.171C-0.245623 21.7716 -0.233877 18.194 0.736684 14.8003C1.70724 11.4067 3.60215 8.31761 6.22948 5.84594ZM9.00601 31.4256C10.5954 32.9438 12.485 34.1467 14.5656 34.9648C16.6463 35.7829 18.8766 36.1999 21.1275 36.1917C23.3784 36.1835 25.6053 35.7502 27.6793 34.917C29.7533 34.0838 31.6332 32.8671 33.2103 31.3374C34.7875 29.8077 36.0305 27.9954 36.8675 26.0051C37.7044 24.0149 38.1188 21.8864 38.0865 19.7427C38.0542 17.5989 37.5759 15.4826 36.6793 13.5161C35.7828 11.5496 34.4857 9.77187 32.8631 8.28589C29.6306 5.32541 25.3022 3.6992 20.8182 3.76047C16.3341 3.82174 12.0565 5.56554 8.91444 8.61314C5.77235 11.6607 4.01953 15.766 4.03668 20.0373C4.05382 24.3086 5.83955 28.401 9.00601 31.4256ZM15.8844 12.3999L21.0446 17.3147L26.2047 12.3999C26.4448 12.1536 26.7503 11.9735 27.0888 11.8787C27.4274 11.7839 27.7865 11.7777 28.1284 11.861C28.4703 11.9443 28.7823 12.1138 29.0315 12.3518C29.2807 12.5898 29.4579 12.8874 29.5444 13.2132C29.6319 13.5385 29.6258 13.8802 29.5267 14.2024C29.4276 14.5247 29.2392 14.8155 28.9812 15.0444L23.8211 19.9593L28.9812 24.8741C29.2398 25.1028 29.4289 25.3937 29.5285 25.7162C29.628 26.0386 29.6344 26.3807 29.547 26.7063C29.4596 27.032 29.2816 27.3291 29.0317 27.5665C28.7819 27.8039 28.4694 27.9726 28.1273 28.055C27.7858 28.1384 27.427 28.1326 27.0887 28.0382C26.7504 27.9438 26.445 27.7643 26.2047 27.5187L21.0446 22.6038L15.8844 27.5187C15.6443 27.765 15.3389 27.945 15.0003 28.0399C14.6618 28.1347 14.3027 28.1408 13.9608 28.0575C13.6189 27.9743 13.3069 27.8047 13.0577 27.5668C12.8085 27.3288 12.6313 27.0312 12.5448 26.7053C12.4572 26.3801 12.4633 26.0383 12.5624 25.7161C12.6615 25.3939 12.85 25.103 13.1079 24.8741L18.2681 19.9593L13.1079 15.0444C12.7611 14.6895 12.5722 14.2203 12.581 13.7356C12.5898 13.2508 12.7956 12.7881 13.1551 12.4448C13.5155 12.1024 14.0013 11.9064 14.5102 11.898C15.0192 11.8897 15.5118 12.0696 15.8844 12.3999Z" fill="white"/>
</svg>
