<svg width="40" height="40" viewBox="0 0 40 40" fill="none" xmlns="http://www.w3.org/2000/svg">
<path d="M21.6666 10H18.3333V11.6667C18.3333 12.1087 18.5088 12.5326 18.8214 12.8452C19.134 13.1577 19.5579 13.3333 19.9999 13.3333C20.4419 13.3333 20.8659 13.1577 21.1784 12.8452C21.491 12.5326 21.6666 12.1087 21.6666 11.6667V10Z" fill="#203881"/>
<path fill-rule="evenodd" clip-rule="evenodd" d="M10 3.33333V6.66666H11.6667V11.6667C11.6667 13.8768 12.5446 15.9964 14.1074 17.5592C15.6702 19.122 17.7899 20 20 20C17.7899 20 15.6702 20.878 14.1074 22.4408C12.5446 24.0036 11.6667 26.1232 11.6667 28.3333V33.3333H10V36.6667H30V33.3333H28.3333V28.3333C28.3333 26.1232 27.4554 24.0036 25.8926 22.4408C24.3298 20.878 22.2101 20 20 20C21.0943 20 22.178 19.7844 23.189 19.3657C24.2001 18.9469 25.1187 18.333 25.8926 17.5592C26.6664 16.7854 27.2802 15.8667 27.699 14.8557C28.1178 13.8446 28.3333 12.761 28.3333 11.6667V6.66666H30V3.33333H10ZM15 6.66666H25V11.6667C25 12.9927 24.4732 14.2645 23.5355 15.2022C22.5979 16.1399 21.3261 16.6667 20 16.6667C18.6739 16.6667 17.4021 16.1399 16.4645 15.2022C15.5268 14.2645 15 12.9927 15 11.6667V6.66666ZM15 28.3333V33.3333H25V28.3333C25 27.0072 24.4732 25.7355 23.5355 24.7978C22.5979 23.8601 21.3261 23.3333 20 23.3333C18.6739 23.3333 17.4021 23.8601 16.4645 24.7978C15.5268 25.7355 15 27.0072 15 28.3333Z" fill="#203881"/>
</svg>
