<svg width="16" height="16" viewBox="0 0 16 16" fill="none" xmlns="http://www.w3.org/2000/svg">
<g id="Trash">
<path id="Vector" d="M13.1562 3.3125H10.8125V2.84375C10.8125 2.47079 10.6643 2.1131 10.4006 1.84938C10.1369 1.58566 9.77921 1.4375 9.40625 1.4375H6.59375C6.22079 1.4375 5.8631 1.58566 5.59938 1.84938C5.33566 2.1131 5.1875 2.47079 5.1875 2.84375V3.3125H2.84375C2.71943 3.3125 2.6002 3.36189 2.51229 3.44979C2.42439 3.5377 2.375 3.65693 2.375 3.78125C2.375 3.90557 2.42439 4.0248 2.51229 4.11271C2.6002 4.20061 2.71943 4.25 2.84375 4.25H3.3125V12.6875C3.3125 12.9361 3.41127 13.1746 3.58709 13.3504C3.7629 13.5262 4.00136 13.625 4.25 13.625H11.75C11.9986 13.625 12.2371 13.5262 12.4129 13.3504C12.5887 13.1746 12.6875 12.9361 12.6875 12.6875V4.25H13.1562C13.2806 4.25 13.3998 4.20061 13.4877 4.11271C13.5756 4.0248 13.625 3.90557 13.625 3.78125C13.625 3.65693 13.5756 3.5377 13.4877 3.44979C13.3998 3.36189 13.2806 3.3125 13.1562 3.3125ZM7.0625 10.3438C7.0625 10.4681 7.01311 10.5873 6.92521 10.6752C6.8373 10.7631 6.71807 10.8125 6.59375 10.8125C6.46943 10.8125 6.3502 10.7631 6.26229 10.6752C6.17439 10.5873 6.125 10.4681 6.125 10.3438V6.59375C6.125 6.46943 6.17439 6.3502 6.26229 6.26229C6.3502 6.17439 6.46943 6.125 6.59375 6.125C6.71807 6.125 6.8373 6.17439 6.92521 6.26229C7.01311 6.3502 7.0625 6.46943 7.0625 6.59375V10.3438ZM9.875 10.3438C9.875 10.4681 9.82561 10.5873 9.73771 10.6752C9.6498 10.7631 9.53057 10.8125 9.40625 10.8125C9.28193 10.8125 9.1627 10.7631 9.07479 10.6752C8.98689 10.5873 8.9375 10.4681 8.9375 10.3438V6.59375C8.9375 6.46943 8.98689 6.3502 9.07479 6.26229C9.1627 6.17439 9.28193 6.125 9.40625 6.125C9.53057 6.125 9.6498 6.17439 9.73771 6.26229C9.82561 6.3502 9.875 6.46943 9.875 6.59375V10.3438ZM9.875 3.3125H6.125V2.84375C6.125 2.71943 6.17439 2.6002 6.26229 2.51229C6.3502 2.42439 6.46943 2.375 6.59375 2.375H9.40625C9.53057 2.375 9.6498 2.42439 9.73771 2.51229C9.82561 2.6002 9.875 2.71943 9.875 2.84375V3.3125Z" fill="#6E6C6C" fill-opacity="0.5"/>
</g>
</svg>
