<svg width="19" height="18" viewBox="0 0 19 18" fill="none" xmlns="http://www.w3.org/2000/svg">
<g id="UserCheck" clip-path="url(#clip0_12348_27612)">
<path id="Vector" d="M18.3357 9.39883L16.0857 11.6488C16.0335 11.7011 15.9715 11.7426 15.9032 11.7709C15.8349 11.7992 15.7617 11.8138 15.6878 11.8138C15.6138 11.8138 15.5407 11.7992 15.4724 11.7709C15.4041 11.7426 15.342 11.7011 15.2898 11.6488L14.1648 10.5238C14.0593 10.4183 14 10.2751 14 10.1259C14 9.97659 14.0593 9.83344 14.1648 9.72789C14.2703 9.62234 14.4135 9.56305 14.5628 9.56305C14.712 9.56305 14.8552 9.62234 14.9607 9.72789L15.6878 10.4556L17.5398 8.60289C17.6453 8.49734 17.7885 8.43805 17.9378 8.43805C18.087 8.43805 18.2302 8.49734 18.3357 8.60289C18.4413 8.70844 18.5006 8.85159 18.5006 9.00086C18.5006 9.15013 18.4413 9.29328 18.3357 9.39883ZM10.6253 11.0877C11.5071 10.5385 12.186 9.71707 12.5593 8.74765C12.9327 7.77822 12.9801 6.71357 12.6945 5.71477C12.4089 4.71597 11.8058 3.83736 10.9764 3.21187C10.1469 2.58639 9.13637 2.24805 8.09753 2.24805C7.0587 2.24805 6.04813 2.58639 5.21871 3.21187C4.38929 3.83736 3.78615 4.71597 3.50054 5.71477C3.21493 6.71357 3.26239 7.77822 3.63574 8.74765C4.00909 9.71707 4.68801 10.5385 5.5698 11.0877C4.11785 11.563 2.81144 12.4511 1.76097 13.7012C1.6922 13.783 1.64813 13.8826 1.63391 13.9885C1.61969 14.0944 1.63592 14.2021 1.68069 14.2991C1.72546 14.3961 1.79693 14.4783 1.88673 14.5362C1.97652 14.5941 2.08094 14.6252 2.18777 14.6259H14.0003C14.1075 14.626 14.2124 14.5955 14.3029 14.5379C14.3933 14.4804 14.4654 14.3982 14.5107 14.301C14.556 14.2039 14.5725 14.0958 14.5585 13.9896C14.5444 13.8833 14.5003 13.7833 14.4313 13.7012C13.3801 12.4511 12.0737 11.563 10.6253 11.0877Z" fill="#001B69"/>
</g>
<defs>
<clipPath id="clip0_12348_27612">
<rect width="18" height="18" fill="white" transform="translate(0.5)"/>
</clipPath>
</defs>
</svg>
