<svg width="20" height="21" viewBox="0 0 20 21" fill="none" xmlns="http://www.w3.org/2000/svg">
<g id="ph:user-list-bold" clip-path="url(#clip0_2458_7714)">
<path id="Vector" d="M11.8751 7.03154C11.8751 6.7829 11.9739 6.54445 12.1497 6.36863C12.3255 6.19281 12.5639 6.09404 12.8126 6.09404H19.0626C19.3112 6.09404 19.5497 6.19281 19.7255 6.36863C19.9013 6.54445 20.0001 6.7829 20.0001 7.03154C20.0001 7.28018 19.9013 7.51864 19.7255 7.69446C19.5497 7.87027 19.3112 7.96904 19.0626 7.96904H12.8126C12.5639 7.96904 12.3255 7.87027 12.1497 7.69446C11.9739 7.51864 11.8751 7.28018 11.8751 7.03154ZM19.0626 9.84404H12.8126C12.5639 9.84404 12.3255 9.94281 12.1497 10.1186C11.9739 10.2944 11.8751 10.5329 11.8751 10.7815C11.8751 11.0302 11.9739 11.2686 12.1497 11.4445C12.3255 11.6203 12.5639 11.719 12.8126 11.719H19.0626C19.3112 11.719 19.5497 11.6203 19.7255 11.4445C19.9013 11.2686 20.0001 11.0302 20.0001 10.7815C20.0001 10.5329 19.9013 10.2944 19.7255 10.1186C19.5497 9.94281 19.3112 9.84404 19.0626 9.84404ZM19.0626 13.594H14.6876C14.4389 13.594 14.2005 13.6928 14.0247 13.8686C13.8489 14.0444 13.7501 14.2829 13.7501 14.5315C13.7501 14.7802 13.8489 15.0186 14.0247 15.1945C14.2005 15.3703 14.4389 15.469 14.6876 15.469H19.0626C19.3112 15.469 19.5497 15.3703 19.7255 15.1945C19.9013 15.0186 20.0001 14.7802 20.0001 14.5315C20.0001 14.2829 19.9013 14.0444 19.7255 13.8686C19.5497 13.6928 19.3112 13.594 19.0626 13.594ZM12.1579 15.5472C12.1887 15.6664 12.1957 15.7905 12.1785 15.9124C12.1613 16.0343 12.1203 16.1517 12.0577 16.2577C11.9952 16.3638 11.9124 16.4565 11.814 16.5306C11.7157 16.6046 11.6037 16.6586 11.4845 16.6894C11.3652 16.7201 11.2411 16.7271 11.1192 16.7099C10.9973 16.6928 10.8799 16.6517 10.7739 16.5892C10.6678 16.5267 10.5751 16.4438 10.5011 16.3455C10.427 16.2471 10.373 16.1351 10.3423 16.0159C9.89539 14.2792 8.13602 12.969 6.25008 12.969C4.36414 12.969 2.60477 14.2784 2.15789 16.0159C2.12711 16.1351 2.07315 16.2471 1.9991 16.3455C1.92504 16.4438 1.83233 16.5267 1.72627 16.5892C1.62021 16.6517 1.50287 16.6928 1.38095 16.7099C1.25903 16.7271 1.13492 16.7201 1.0157 16.6894C0.896489 16.6586 0.784503 16.6046 0.68614 16.5306C0.587778 16.4565 0.504965 16.3638 0.442431 16.2577C0.379896 16.1517 0.338865 16.0343 0.321679 15.9124C0.304492 15.7905 0.311488 15.6664 0.342267 15.5472C0.762579 13.9144 1.9118 12.5659 3.39774 11.7972C2.82365 11.2314 2.43083 10.5077 2.26926 9.71801C2.10769 8.92836 2.18466 8.10849 2.49038 7.36271C2.79611 6.61693 3.31677 5.97894 3.98613 5.52992C4.65549 5.0809 5.44328 4.84114 6.2493 4.84114C7.05531 4.84114 7.84311 5.0809 8.51247 5.52992C9.18182 5.97894 9.70249 6.61693 10.0082 7.36271C10.3139 8.10849 10.3909 8.92836 10.2293 9.71801C10.0678 10.5077 9.67495 11.2314 9.10086 11.7972C10.5884 12.5667 11.7376 13.9151 12.1579 15.5472ZM6.25008 11.094C6.68273 11.094 7.10566 10.9657 7.46539 10.7254C7.82512 10.485 8.1055 10.1434 8.27107 9.74366C8.43663 9.34395 8.47995 8.90412 8.39555 8.47978C8.31114 8.05545 8.1028 7.66567 7.79688 7.35975C7.49095 7.05382 7.10117 6.84548 6.67684 6.76107C6.25251 6.67667 5.81267 6.71999 5.41296 6.88556C5.01325 7.05112 4.67161 7.3315 4.43124 7.69123C4.19087 8.05097 4.06258 8.4739 4.06258 8.90654C4.06258 9.19381 4.11916 9.47826 4.22909 9.74366C4.33903 10.0091 4.50016 10.2502 4.70328 10.4533C5.11352 10.8636 5.66992 11.094 6.25008 11.094Z" fill="#001B69"/>
</g>
<defs>
<clipPath id="clip0_2458_7714">
<rect width="20" height="20" fill="white" transform="translate(0 0.78154)"/>
</clipPath>
</defs>
</svg>
