<svg xmlns="http://www.w3.org/2000/svg" width="16" height="17" viewBox="0 0 16 17" fill="none">
  <g clip-path="url(#clip0_3257_4573)">
    <path
      d="M8 16.9473C5.87827 16.9473 3.84344 16.1044 2.34315 14.6041C0.842855 13.1038 0 11.069 0 8.94727C0 6.82553 0.842855 4.7907 2.34315 3.29041C3.84344 1.79012 5.87827 0.947266 8 0.947266C10.1217 0.947266 12.1566 1.79012 13.6569 3.29041C15.1571 4.7907 16 6.82553 16 8.94727C16 11.069 15.1571 13.1038 13.6569 14.6041C12.1566 16.1044 10.1217 16.9473 8 16.9473ZM8.847 8.80227C9.40125 8.60286 9.86737 8.21431 10.1633 7.70502C10.4592 7.19573 10.566 6.59837 10.4648 6.0181C10.3636 5.43784 10.0609 4.91188 9.61003 4.53284C9.15917 4.15381 8.58902 3.94599 8 3.94599C7.41097 3.94599 6.84084 4.15381 6.38997 4.53284C5.9391 4.91188 5.63642 5.43784 5.53521 6.0181C5.434 6.59837 5.54076 7.19573 5.8367 7.70502C6.13263 8.21431 6.59875 8.60286 7.153 8.80227C5.471 9.20827 4 10.7223 4 11.9473C4 12.3423 4.145 12.9423 5 12.9423H11C11.855 12.9423 12 12.3423 12 11.9473C12 10.7233 10.53 9.20727 8.847 8.80227Z"
      fill="#203881" />
  </g>
  <defs>
    <clipPath id="clip0_3257_4573">
      <rect width="16" height="16" fill="white" transform="translate(0 0.947266)" />
    </clipPath>
  </defs>
</svg>