<svg width="41" height="40" viewBox="0 0 41 40" fill="none" xmlns="http://www.w3.org/2000/svg">
<path d="M27.1663 28.3333V31.6666H3.83301V28.3333C3.83301 28.3333 3.83301 21.6666 15.4997 21.6666C27.1663 21.6666 27.1663 28.3333 27.1663 28.3333ZM21.333 12.4999C21.333 11.3462 20.9909 10.2184 20.3499 9.2591C19.7089 8.29981 18.7979 7.55214 17.732 7.11063C16.6661 6.66912 15.4932 6.5536 14.3616 6.77868C13.2301 7.00376 12.1907 7.55933 11.3749 8.37514C10.5591 9.19094 10.0035 10.2303 9.77843 11.3619C9.55335 12.4935 9.66887 13.6663 10.1104 14.7322C10.5519 15.7981 11.2996 16.7092 12.2588 17.3502C13.2181 17.9911 14.346 18.3333 15.4997 18.3333C17.0468 18.3333 18.5305 17.7187 19.6245 16.6247C20.7184 15.5308 21.333 14.047 21.333 12.4999ZM27.0663 21.6666C28.0909 22.4595 28.9293 23.4673 29.5225 24.6191C30.1156 25.7709 30.4492 27.0387 30.4997 28.3333V31.6666H37.1663V28.3333C37.1663 28.3333 37.1663 22.2833 27.0663 21.6666ZM25.4997 6.66659C24.3525 6.6602 23.2305 7.00318 22.283 7.64993C23.2954 9.06449 23.8398 10.7604 23.8398 12.4999C23.8398 14.2394 23.2954 15.9354 22.283 17.3499C23.2305 17.9967 24.3525 18.3396 25.4997 18.3333C27.0468 18.3333 28.5305 17.7187 29.6245 16.6247C30.7184 15.5308 31.333 14.047 31.333 12.4999C31.333 10.9528 30.7184 9.4691 29.6245 8.37514C28.5305 7.28117 27.0468 6.66659 25.4997 6.66659Z" fill="white"/>
</svg>
