<svg width="24" height="24" viewBox="0 0 24 24" fill="none" xmlns="http://www.w3.org/2000/svg">
<path d="M13 17.5C13 17.7652 12.8946 18.0196 12.7071 18.2071C12.5196 18.3946 12.2652 18.5 12 18.5C11.7348 18.5 11.4804 18.3946 11.2929 18.2071C11.1054 18.0196 11 17.7652 11 17.5C11 17.2348 11.1054 16.9804 11.2929 16.7929C11.4804 16.6054 11.7348 16.5 12 16.5C12.2652 16.5 12.5196 16.6054 12.7071 16.7929C12.8946 16.9804 13 17.2348 13 17.5ZM12.75 9.25C12.75 9.05109 12.671 8.86032 12.5303 8.71967C12.3897 8.57902 12.1989 8.5 12 8.5C11.8011 8.5 11.6103 8.57902 11.4697 8.71967C11.329 8.86032 11.25 9.05109 11.25 9.25V13.75C11.25 13.9489 11.329 14.1397 11.4697 14.2803C11.6103 14.421 11.8011 14.5 12 14.5C12.1989 14.5 12.3897 14.421 12.5303 14.2803C12.671 14.1397 12.75 13.9489 12.75 13.75V9.25Z" fill="#DF0000"/>
<path d="M9.83597 3.24411C10.799 1.57911 13.201 1.57911 14.164 3.24411L23.131 18.7481C24.094 20.4151 22.891 22.5001 20.966 22.5001H3.03397C1.10797 22.5001 -0.0940274 20.4151 0.868973 18.7481L9.83597 3.24411ZM12.866 3.99511C12.7778 3.84361 12.6514 3.71789 12.4995 3.63051C12.3475 3.54313 12.1753 3.49714 12 3.49714C11.8247 3.49714 11.6525 3.54313 11.5005 3.63051C11.3485 3.71789 11.2221 3.84361 11.134 3.99511L2.16797 19.4991C2.0806 19.6513 2.0347 19.8237 2.03488 19.9991C2.03505 20.1746 2.08129 20.3469 2.16897 20.4989C2.25665 20.6508 2.38269 20.7771 2.53449 20.8651C2.68629 20.953 2.85853 20.9996 3.03397 21.0001H20.966C21.1413 20.9995 21.3133 20.9529 21.465 20.865C21.6167 20.7771 21.7426 20.6509 21.8303 20.4991C21.9179 20.3473 21.9642 20.1751 21.9645 19.9998C21.9648 19.8245 21.9191 19.6522 21.832 19.5001L12.866 3.99511Z" fill="#DF0000"/>
</svg>
