<svg width="13" height="13" viewBox="0 0 13 13" fill="none" xmlns="http://www.w3.org/2000/svg">
<path d="M11.4321 1.19061H3.8514C3.78928 1.19056 3.72775 1.20275 3.67033 1.22647C3.61292 1.2502 3.56074 1.285 3.51677 1.32889C3.4728 1.37279 3.43791 1.42491 3.41409 1.48228C3.39027 1.53966 3.37798 1.60117 3.37793 1.66329V3.7703L7.77094 5.06014L11.906 3.7703V1.66329C11.9059 1.60113 11.8936 1.53959 11.8698 1.48219C11.8459 1.42479 11.811 1.37265 11.767 1.32875C11.723 1.28486 11.6708 1.25006 11.6133 1.22636C11.5558 1.20266 11.4943 1.19051 11.4321 1.19061Z" fill="#41A5EE"/>
<path d="M11.906 3.77032H3.37793V6.35001L7.77094 7.12392L11.906 6.35001V3.77032Z" fill="#2B7CD3"/>
<path d="M3.37793 6.35001V8.92969L7.51257 9.44563L11.906 8.92969V6.35001H3.37793Z" fill="#185ABD"/>
<path d="M3.8514 11.5094H11.4317C11.4939 11.5095 11.5555 11.4974 11.613 11.4737C11.6705 11.4501 11.7228 11.4153 11.7669 11.3714C11.8109 11.3275 11.8459 11.2753 11.8697 11.2179C11.8936 11.1605 11.9059 11.0989 11.906 11.0367V8.92969H3.37793V11.0367C3.37798 11.0988 3.39027 11.1603 3.41409 11.2177C3.43791 11.2751 3.4728 11.3272 3.51677 11.3711C3.56074 11.415 3.61292 11.4498 3.67033 11.4735C3.72775 11.4972 3.78928 11.5094 3.8514 11.5094Z" fill="#103F91"/>
<path opacity="0.1" d="M6.52197 3.25436H3.37793V9.70358H6.52197C6.64725 9.70296 6.76724 9.653 6.85594 9.56452C6.94464 9.47605 6.9949 9.35618 6.99584 9.2309V3.72704C6.9949 3.60176 6.94464 3.4819 6.85594 3.39343C6.76724 3.30495 6.64725 3.25499 6.52197 3.25436Z" fill="black"/>
<path opacity="0.2" d="M6.26361 3.51233H3.37793V9.96155H6.26361C6.38889 9.96092 6.50888 9.91096 6.59758 9.82249C6.68627 9.73401 6.73654 9.61415 6.73748 9.48887V3.98501C6.73654 3.85973 6.68627 3.73987 6.59758 3.65139C6.50888 3.56291 6.38889 3.51295 6.26361 3.51233Z" fill="black"/>
<path opacity="0.2" d="M6.26361 3.51233H3.37793V9.44561H6.26361C6.38889 9.44499 6.50888 9.39503 6.59758 9.30655C6.68627 9.21807 6.73654 9.09821 6.73748 8.97293V3.98501C6.73654 3.85973 6.68627 3.73987 6.59758 3.65139C6.50888 3.56291 6.38889 3.51295 6.26361 3.51233Z" fill="black"/>
<path opacity="0.2" d="M6.00524 3.51233H3.37793V9.44561H6.00524C6.13052 9.44499 6.25051 9.39503 6.33921 9.30655C6.42791 9.21807 6.47817 9.09821 6.47911 8.97293V3.98501C6.47817 3.85973 6.42791 3.73987 6.33921 3.65139C6.25051 3.56291 6.13052 3.51295 6.00524 3.51233Z" fill="black"/>
<path d="M1.26781 3.51233H6.00571C6.13121 3.51222 6.25162 3.56195 6.34048 3.65059C6.42934 3.73922 6.47937 3.8595 6.47958 3.98501V8.71496C6.47937 8.84047 6.42934 8.96075 6.34048 9.04939C6.25162 9.13802 6.13121 9.18775 6.00571 9.18764H1.26781C1.20566 9.18775 1.14409 9.1756 1.08662 9.1519C1.02916 9.12819 0.976935 9.0934 0.932927 9.0495C0.888919 9.00561 0.853993 8.95347 0.830146 8.89606C0.806299 8.83866 0.793997 8.77712 0.793945 8.71496V3.98501C0.793997 3.92285 0.806299 3.86131 0.830146 3.80391C0.853993 3.74651 0.888919 3.69437 0.932927 3.65047C0.976935 3.60657 1.02916 3.57178 1.08662 3.54807C1.14409 3.52437 1.20566 3.51223 1.26781 3.51233Z" fill="url(#paint0_linear_3690_6332)"/>
<path d="M2.73862 7.13898C2.74775 7.21201 2.7541 7.27551 2.75687 7.32988H2.76799C2.77195 7.27829 2.78069 7.21598 2.79378 7.14335C2.80688 7.07072 2.81839 7.0092 2.8291 6.9588L3.32718 4.8129H3.97171L4.48765 6.92665C4.5177 7.0574 4.53917 7.18998 4.55194 7.32353H4.56067C4.57015 7.19352 4.58805 7.06427 4.61425 6.93658L5.0266 4.81012H5.61279L4.88889 7.88511H4.20348L3.71255 5.85073C3.69826 5.79199 3.68212 5.71552 3.66413 5.62133C3.64614 5.52714 3.63503 5.45835 3.63079 5.41496H3.62246C3.6169 5.46496 3.60579 5.53918 3.58912 5.6376C3.57245 5.73643 3.55935 5.80905 3.54943 5.85668L3.08787 7.8863H2.39095L1.66309 4.8129H2.2584L2.70726 6.96317C2.72066 7.02121 2.73113 7.07989 2.73862 7.13898Z" fill="white"/>
<defs>
<linearGradient id="paint0_linear_3690_6332" x1="1.78375" y1="3.14085" x2="5.48977" y2="9.55912" gradientUnits="userSpaceOnUse">
<stop stop-color="#2368C4"/>
<stop offset="0.5" stop-color="#1A5DBE"/>
<stop offset="1" stop-color="#1146AC"/>
</linearGradient>
</defs>
</svg>
