<svg width="41" height="41" viewBox="0 0 41 41" fill="none" xmlns="http://www.w3.org/2000/svg">
<path d="M17.9375 13.2396H23.0625V10.8194H17.9375V13.2396ZM28.1875 33.8108C26.4151 33.8108 24.9041 33.2207 23.6544 32.0404C22.4048 30.8602 21.7804 29.4335 21.7813 27.7604C21.7813 26.0865 22.4061 24.6594 23.6557 23.4792C24.9054 22.299 26.416 21.7093 28.1875 21.7101C29.9599 21.7101 31.4709 22.3002 32.7206 23.4804C33.9702 24.6606 34.5946 26.0873 34.5938 27.7604C34.5938 29.4343 33.9689 30.8614 32.7193 32.0416C31.4696 33.2219 29.959 33.8116 28.1875 33.8108ZM30.3016 30.6041L31.1984 29.757L28.8281 27.5184V24.1302H27.5469V28.0024L30.3016 30.6041ZM20.0836 31.3906H10.25C9.54531 31.3906 8.94184 31.1535 8.43959 30.6791C7.93734 30.2048 7.68665 29.6352 7.6875 28.9705V15.6597C7.6875 14.9942 7.93863 14.4242 8.44088 13.9499C8.94313 13.4756 9.54617 13.2388 10.25 13.2396H15.375V10.8194C15.375 10.1539 15.6261 9.58397 16.1284 9.10962C16.6306 8.63527 17.2337 8.3985 17.9375 8.39931H23.0625C23.7672 8.39931 24.3707 8.63648 24.8729 9.11083C25.3752 9.58518 25.6259 10.1547 25.625 10.8194V13.2396H30.75C31.4547 13.2396 32.0582 13.4768 32.5604 13.9511C33.0627 14.4255 33.3134 14.995 33.3125 15.6597V20.8328C32.5651 20.3286 31.7536 19.9454 30.8781 19.6832C30.0026 19.421 29.1057 19.2899 28.1875 19.2899C25.6891 19.2899 23.5694 20.112 21.8287 21.7561C20.0879 23.4001 19.2179 25.4016 19.2188 27.7604C19.2188 28.4058 19.2884 29.031 19.4276 29.636C19.5668 30.2411 19.7855 30.8259 20.0836 31.3906Z" fill="#EEFAFF"/>
</svg>
