<svg width="18" height="18" viewBox="0 0 18 18" fill="none" xmlns="http://www.w3.org/2000/svg">
<path d="M9 9V13.5M9 13.5L11.25 12M9 13.5L6.75 12M9.75 2.25H6.15C5.31 2.25 4.89 2.25 4.569 2.4135C4.28674 2.55727 4.05727 2.78674 3.9135 3.069C3.75 3.39 3.75 3.81 3.75 4.65V13.35C3.75 14.19 3.75 14.61 3.9135 14.931C4.05731 15.2132 4.28677 15.4427 4.569 15.5865C4.88925 15.75 5.30925 15.75 6.14775 15.75H11.8523C12.6908 15.75 13.11 15.75 13.4302 15.5865C13.713 15.4425 13.9425 15.213 14.0865 14.931C14.25 14.61 14.25 14.1915 14.25 13.353V6.75M9.75 2.25C9.9645 2.25225 10.0995 2.2605 10.2292 2.29125C10.3822 2.32875 10.5285 2.38875 10.6628 2.47125C10.8143 2.56425 10.944 2.694 11.2028 2.9535L13.5472 5.29725C13.8067 5.55675 13.9357 5.68575 14.0287 5.83725C14.1112 5.97225 14.1712 6.11775 14.2087 6.27075C14.2387 6.4005 14.2477 6.53625 14.25 6.75M9.75 2.25V4.35C9.75 5.19 9.75 5.61 9.9135 5.931C10.0573 6.21323 10.2868 6.44269 10.569 6.5865C10.8892 6.75 11.3093 6.75 12.1478 6.75H14.25" stroke="#0E9CD8" stroke-width="2" stroke-linecap="round" stroke-linejoin="round"/>
</svg>
