<svg width="14" height="15" viewBox="0 0 14 15" fill="none" xmlns="http://www.w3.org/2000/svg">
<path d="M11.25 9.37498H9.99998C9.83422 9.37498 9.67525 9.44083 9.55804 9.55804C9.44083 9.67525 9.37498 9.83422 9.37498 9.99998V14.375C9.37498 14.5407 9.44083 14.6997 9.55804 14.8169C9.67525 14.9341 9.83422 15 9.99998 15C10.1657 15 10.3247 14.9341 10.4419 14.8169C10.5591 14.6997 10.625 14.5407 10.625 14.375V13.75H11.25C11.8301 13.75 12.3865 13.5195 12.7968 13.1093C13.207 12.699 13.4375 12.1426 13.4375 11.5625C13.4375 10.9823 13.207 10.4259 12.7968 10.0157C12.3865 9.60545 11.8301 9.37498 11.25 9.37498ZM11.25 12.5H10.625V10.625H11.25C11.4986 10.625 11.7371 10.7238 11.9129 10.8996C12.0887 11.0754 12.1875 11.3138 12.1875 11.5625C12.1875 11.8111 12.0887 12.0496 11.9129 12.2254C11.7371 12.4012 11.4986 12.5 11.25 12.5ZM7.49999 9.99998V14.375C7.49999 14.5407 7.43414 14.6997 7.31693 14.8169C7.19972 14.9341 7.04075 15 6.87499 15C6.70923 15 6.55026 14.9341 6.43305 14.8169C6.31584 14.6997 6.24999 14.5407 6.24999 14.375V9.99998C6.24999 9.83422 6.31584 9.67525 6.43305 9.55804C6.55026 9.44083 6.70923 9.37498 6.87499 9.37498C7.04075 9.37498 7.19972 9.44083 7.31693 9.55804C7.43414 9.67525 7.49999 9.83422 7.49999 9.99998ZM4.37499 14.375C4.37499 14.5407 4.30914 14.6997 4.19193 14.8169C4.07472 14.9341 3.91575 15 3.74999 15H1.25C1.13981 15.001 1.03132 14.9728 0.935528 14.9184C0.839732 14.8639 0.760035 14.7851 0.704513 14.6899C0.648992 14.5947 0.619621 14.4866 0.619377 14.3764C0.619133 14.2662 0.648025 14.1579 0.703124 14.0625L2.66875 10.625H1.25C1.08424 10.625 0.925267 10.5591 0.808057 10.4419C0.690847 10.3247 0.624999 10.1657 0.624999 9.99998C0.624999 9.83422 0.690847 9.67525 0.808057 9.55804C0.925267 9.44083 1.08424 9.37498 1.25 9.37498H3.74999C3.86018 9.37399 3.96867 9.40215 4.06446 9.4566C4.16026 9.51105 4.23996 9.58986 4.29548 9.68504C4.351 9.78022 4.38037 9.88839 4.38061 9.99857C4.38086 10.1088 4.35197 10.2171 4.29687 10.3125L2.32734 13.75H3.74999C3.91575 13.75 4.07472 13.8158 4.19193 13.933C4.30914 14.0502 4.37499 14.2092 4.37499 14.375ZM13.5672 4.55781L9.19217 0.182812C9.13409 0.124791 9.06514 0.0787824 8.98927 0.0474149C8.9134 0.0160474 8.83209 -6.43661e-05 8.74999 1.93249e-07H1.25C0.918478 1.93249e-07 0.600536 0.131696 0.366116 0.366116C0.131696 0.600536 0 0.918478 0 1.25V6.87499C0 7.04075 0.065848 7.19972 0.183058 7.31693C0.300268 7.43414 0.459239 7.49999 0.624999 7.49999H13.125C13.2907 7.49999 13.4497 7.43414 13.5669 7.31693C13.6841 7.19972 13.75 7.04075 13.75 6.87499V4.99999C13.75 4.91789 13.7339 4.83658 13.7026 4.76071C13.6712 4.68484 13.6252 4.61589 13.5672 4.55781ZM8.74999 4.99999V1.5625L12.1875 4.99999H8.74999Z" fill="#0E9CD8"/>
</svg>
