<svg width="18" height="18" viewBox="0 0 18 18" fill="none" xmlns="http://www.w3.org/2000/svg">
<path d="M13.5 13.5V15.75H4.5V13.5H3.375V15.75C3.375 16.0484 3.49353 16.3345 3.7045 16.5455C3.91548 16.7565 4.20163 16.875 4.5 16.875H13.5C13.7984 16.875 14.0845 16.7565 14.2955 16.5455C14.5065 16.3345 14.625 16.0484 14.625 15.75V13.5H13.5Z" fill="#0E9CD8"/>
<path d="M11.8125 11.8125L11.0171 11.0171L9.5625 12.4718V7.875H8.4375V12.4718L6.98287 11.0171L6.1875 11.8125L9 14.625L11.8125 11.8125ZM15.75 2.25V1.125H12.375V6.75H13.5V4.5H15.1875V3.375H13.5V2.25H15.75ZM9.5625 6.75H7.3125V1.125H9.5625C10.0099 1.12545 10.4389 1.30338 10.7552 1.61975C11.0716 1.93612 11.2496 2.36508 11.25 2.8125V5.0625C11.2496 5.50992 11.0716 5.93888 10.7552 6.25525C10.4389 6.57162 10.0099 6.74955 9.5625 6.75ZM8.4375 5.625H9.5625C9.71164 5.62485 9.85463 5.56554 9.96008 5.46008C10.0655 5.35463 10.1249 5.21164 10.125 5.0625V2.8125C10.1249 2.66336 10.0655 2.52037 9.96008 2.41492C9.85463 2.30946 9.71164 2.25015 9.5625 2.25H8.4375V5.625ZM5.0625 1.125H2.25V6.75H3.375V5.0625H5.0625C5.36073 5.06205 5.64662 4.94338 5.8575 4.7325C6.06838 4.52162 6.18705 4.23573 6.1875 3.9375V2.25C6.1872 1.95172 6.06858 1.66575 5.85767 1.45483C5.64675 1.24392 5.36078 1.1253 5.0625 1.125ZM3.375 3.9375V2.25H5.0625L5.06306 3.9375H3.375Z" fill="#0E9CD8"/>
</svg>
